SplineFontDB: 3.2
FontName: WTCarleight
FullName: WT Carleighl
FamilyName: WT Carleighl
Weight: Regular
Copyright: (c) 2025 Werconian Type. From the LXGW Neo Xi hei font but no Hanzi.
Version: v1.0 Werconian Type
ItalicAngle: 0
UnderlinePosition: -32
UnderlineWidth: 18
Ascent: 225
Descent: 31
InvalidEm: 0
sfntRevision: 0x00010000
LayerCount: 2
Layer: 0 0 "Back" 1
Layer: 1 0 "Fore" 0
HasVMetrics: 1
XUID: [1021 318 329363189 21877]
StyleMap: 0x0040
FSType: 0
OS2Version: 4
OS2_WeightWidthSlopeOnly: 1
OS2_UseTypoMetrics: 0
CreationTime: 1609414047
ModificationTime: 1754795900
PfmFamily: 17
TTFWeight: 400
TTFWidth: 5
LineGap: 0
VLineGap: 0
Panose: 2 0 5 0 0 0 0 0 0 0
OS2TypoAscent: 225
OS2TypoAOffset: 0
OS2TypoDescent: -31
OS2TypoDOffset: 0
OS2TypoLinegap: 0
OS2WinAscent: 234
OS2WinAOffset: 0
OS2WinDescent: 71
OS2WinDOffset: 0
HheadAscent: 225
HheadAOffset: 0
HheadDescent: -31
HheadDOffset: 0
OS2SubXSize: 179
OS2SubYSize: 166
OS2SubXOff: 0
OS2SubYOff: 38
OS2SupXSize: 179
OS2SupYSize: 166
OS2SupXOff: 0
OS2SupYOff: 115
OS2StrikeYSize: 13
OS2StrikeYPos: 66
OS2CapHeight: 179
OS2XHeight: 120
OS2Vendor: 'LXGW'
OS2CodePages: 6014019f.9fd70000
OS2UnicodeRanges: e00002ff.6acffdfb.04000016.0400a008
Lookup: 1 0 0 "'vert' Vertical Alternates lookup 0" { "'vert' Vertical Alternates lookup 0 subtable"  } ['vert' ('DFLT' <'dflt' > 'cyrl' <'dflt' > 'grek' <'dflt' > 'hani' <'dflt' > 'kana' <'dflt' > 'latn' <'dflt' > ) ]
Lookup: 4 0 0 "'ccmp' Glyph Composition/Decomposition lookup 1" { "'ccmp' Glyph Composition/Decomposition lookup 1 subtable"  } ['ccmp' ('DFLT' <'dflt' > 'cyrl' <'dflt' > 'grek' <'dflt' > 'hani' <'dflt' > 'kana' <'dflt' > 'latn' <'dflt' > ) ]
Lookup: 1 0 0 "'numr' Numerators lookup 2" { "'numr' Numerators lookup 2 subtable"  } ['numr' ('DFLT' <'dflt' > 'cyrl' <'dflt' > 'grek' <'dflt' > 'hani' <'dflt' > 'kana' <'dflt' > 'latn' <'dflt' > ) ]

StartChar: .notdef
Encoding: 65536 -1 0
Width: 242
GlyphClass: 2
Flags: HW
LayerCount: 2
Fore
SplineSet
223 -26 m 1
 19 -26 l 1
 19 220 l 1
 223 220 l 1
 223 -26 l 1
202 207 m 1
 41 207 l 1
 121 108 l 1
 202 207 l 1
210 -2 m 1
 210 196 l 1
 130 97 l 1
 210 -2 l 1
113 97 m 1
 32 197 l 1
 32 -2 l 1
 113 97 l 1
201 -12 m 1
 121 86 l 1
 41 -12 l 1
 201 -12 l 1
EndSplineSet
EndChar

StartChar: exclam
Encoding: 33 33 2
Width: 58
GlyphClass: 2
Flags: HW
LayerCount: 2
Fore
SplineSet
43 2 m 1
 17 2 l 1
 17 29 l 1
 43 29 l 1
 43 2 l 1
38 49 m 1
 22 49 l 1
 17 185 l 1
 42 185 l 1
 38 49 l 1
EndSplineSet
Substitution2: "'hwid' Half Widths lookup 5 subtable" exclam.hwid
Substitution2: "'fwid' Full Widths lookup 4 subtable" uFF01
EndChar

StartChar: quotedbl
Encoding: 34 34 3
Width: 84
GlyphClass: 2
Flags: HW
LayerCount: 2
Fore
SplineSet
32 123 m 1
 17 123 l 1
 13 192 l 1
 36 192 l 1
 32 123 l 1
68 123 m 1
 53 123 l 1
 49 192 l 1
 72 192 l 1
 68 123 l 1
EndSplineSet
Substitution2: "'hwid' Half Widths lookup 5 subtable" quotedbl.hwid
Substitution2: "'fwid' Full Widths lookup 4 subtable" uFF02
EndChar

StartChar: numbersign
Encoding: 35 35 4
Width: 154
GlyphClass: 2
Flags: HW
LayerCount: 2
Fore
SplineSet
92 -4 m 1
 77 -1 l 1
 89 68 l 1
 53 68 l 1
 40 -4 l 1
 25 -1 l 1
 38 68 l 1
 10 68 l 1
 10 81 l 1
 40 81 l 1
 48 123 l 1
 12 123 l 1
 12 136 l 1
 50 136 l 1
 49.3330078125 136 52.3330078125 153.666992188 59 189 c 1
 75 186 l 1
 65 136 l 1
 100 136 l 1
 109 189 l 1
 124 187 l 1
 115 136 l 1
 145 136 l 1
 145 123 l 1
 113 123 l 1
 106 81 l 1
 143 81 l 1
 143 68 l 1
 104 68 l 1
 92 -4 l 1
91 81 m 1
 98 123 l 1
 63 123 l 1
 55 81 l 1
 91 81 l 1
EndSplineSet
Substitution2: "'hwid' Half Widths lookup 5 subtable" numbersign.hwid
Substitution2: "'fwid' Full Widths lookup 4 subtable" uFF03
EndChar

StartChar: dollar
Encoding: 36 36 5
Width: 135
GlyphClass: 2
Flags: HW
LayerCount: 2
Fore
SplineSet
66 167 m 0
 49.1748046875 167 33 157.528320312 33 139 c 128
 33 126.694335938 38.9248046875 119.4296875 70 107 c 1
 79 104 l 1
 111 92 127 74.6669921875 127 52 c 0
 127 34.6669921875 119.666992188 21.6669921875 105 13 c 0
 97 7.6669921875 87 4.6669921875 75 4 c 1
 75 -17 l 1
 59 -17 l 1
 59 4 l 1
 37 6 19.3330078125 16 6 34 c 1
 23 47 l 1
 35 31 50.3330078125 22.6669921875 69 22 c 0
 79 22 86.6669921875 24.3330078125 92 29 c 0
 100 34.3330078125 104 41.6669921875 104 51 c 0
 104 65.6669921875 89.6669921875 78.3330078125 61 89 c 1
 53 91 l 1
 25 101 11 116.333007812 11 137 c 0
 11 160.721679688 27.9755859375 180.552734375 59 184 c 1
 59 203 l 1
 75 203 l 1
 75 184 l 1
 95.6669921875 182 112 172.333007812 124 155 c 1
 107 143 l 1
 97.6669921875 159 84 167 66 167 c 0
EndSplineSet
Substitution2: "'hwid' Half Widths lookup 5 subtable" dollar.hwid
Substitution2: "'fwid' Full Widths lookup 4 subtable" uFF04
EndChar

StartChar: percent
Encoding: 37 37 6
Width: 210
GlyphClass: 2
Flags: HW
LayerCount: 2
Fore
SplineSet
11 140 m 128
 11 150.190429688 13.42578125 190.634765625 52 189.5 c 128
 66.30859375 189.079101562 90.6640625 181.823242188 91.5 137.5 c 128
 91.8330078125 119.833007812 87 106.666992188 77 98 c 0
 70.3330078125 91.3330078125 61.5 88 50.5 88 c 128
 43.4091796875 88 11 90.697265625 11 140 c 128
42 -5 m 1
 32 3 l 1
 32 3 78 65.3330078125 170 192 c 1
 181 184 l 1
 42 -5 l 1
121 50 m 128
 121 101.70703125 167.415039062 111.592773438 190.5 86.5 c 128
 198.166992188 78.1669921875 202 65.3330078125 202 48 c 128
 202 35.42578125 198.638671875 -0.3447265625 160.5 -1.5 c 128
 148.606445312 -1.8603515625 121 4.3828125 121 50 c 128
72 139 m 0
 72 143.327148438 71.2841796875 174 51 174 c 0
 37 174 30 162.333007812 30 139 c 128
 30 115.666992188 37 104 51 104 c 128
 65 104 72 115.666992188 72 139 c 0
162 14 m 128
 176 14 182.833007812 25.6669921875 182.5 49 c 128
 182.166992188 72.3330078125 175 84 161 84 c 128
 147 84 140.166992188 72.3330078125 140.5 49 c 128
 140.833007812 25.6669921875 148 14 162 14 c 128
EndSplineSet
Substitution2: "'hwid' Half Widths lookup 5 subtable" percent.hwid
Substitution2: "'fwid' Full Widths lookup 4 subtable" uFF05
EndChar

StartChar: ampersand
Encoding: 38 38 7
Width: 174
GlyphClass: 2
Flags: HW
LayerCount: 2
Fore
SplineSet
75.5 189 m 128
 106.362304688 189 120 167.453125 120 148 c 0
 120 128 107 111.333007812 81 98 c 1
 90.3330078125 87.3330078125 104.333007812 73.3330078125 123 56 c 1
 131 68 136.666992188 81.3330078125 140 96 c 1
 159 88 l 1
 153.666992188 69.3330078125 146.666992188 54.3330078125 138 43 c 1
 150.666992188 32.3330078125 161.666992188 23.6669921875 171 17 c 1
 157 0 l 1
 146.333007812 8 135.666992188 17 125 27 c 1
 107.666992188 9 87.3330078125 0 64 0 c 0
 26.291015625 0 9 24.9296875 9 49 c 0
 9 72.3330078125 23 90.3330078125 51 103 c 1
 37 119.666992188 30.1669921875 134 30.5 146 c 128
 31.0537109375 165.938476562 44.134765625 189 75.5 189 c 128
32 50 m 0
 32 35.1953125 42.859375 18 67 18 c 0
 83.6669921875 18 98.3330078125 25 111 39 c 1
 94.3330078125 54.3330078125 78.3330078125 71 63 89 c 1
 42.3330078125 79.6669921875 32 66.6669921875 32 50 c 0
76 172 m 128
 65.333984375 172 52 164.956054688 52 145.5 c 128
 52 137.166992188 55.6669921875 128.333007812 63 119 c 0
 67 113.666992188 69.3330078125 110.666992188 70 110 c 0
 89.3330078125 119.333007812 99 132 99 148 c 0
 99 163.8359375 88.328125 172 76 172 c 128
EndSplineSet
Substitution2: "'hwid' Half Widths lookup 5 subtable" ampersand.hwid
Substitution2: "'fwid' Full Widths lookup 4 subtable" uFF06
EndChar

StartChar: quotesingle
Encoding: 39 39 8
Width: 48
GlyphClass: 2
Flags: HW
LayerCount: 2
Fore
SplineSet
32 123 m 1
 17 123 l 1
 13 192 l 1
 36 192 l 1
 32 123 l 1
EndSplineSet
Substitution2: "'hwid' Half Widths lookup 5 subtable" quotesingle.hwid
Substitution2: "'fwid' Full Widths lookup 4 subtable" uFF07
EndChar

StartChar: parenleft
Encoding: 40 40 9
Width: 75
GlyphClass: 2
Flags: HW
LayerCount: 2
Fore
SplineSet
60.5048828125 -47 m 1
 29.171875 -14.3330078125 13.671875 26.1669921875 14.0048828125 74.5 c 128
 14.3388671875 122.833007812 29.8388671875 163.333007812 60.5048828125 196 c 1
 71.5048828125 190 l 1
 46.8388671875 156.666992188 34.5048828125 118 34.5048828125 74 c 128
 34.5048828125 30 46.8388671875 -8.3330078125 71.5048828125 -41 c 1
 60.5048828125 -47 l 1
EndSplineSet
Substitution2: "'hwid' Half Widths lookup 5 subtable" parenleft.hwid
Substitution2: "'fwid' Full Widths lookup 4 subtable" uFF08
EndChar

StartChar: parenright
Encoding: 41 41 10
Width: 74
GlyphClass: 2
Flags: HW
LayerCount: 2
Fore
SplineSet
15 -47 m 1
 4 -41 l 1
 28.6669921875 -8.3330078125 41 30 41 74 c 128
 41 118 28.6669921875 156.666992188 4 190 c 1
 15 196 l 1
 46.3330078125 162.666992188 62 122.166992188 62 74.5 c 128
 62 26.8330078125 46.3330078125 -13.6669921875 15 -47 c 1
EndSplineSet
Substitution2: "'hwid' Half Widths lookup 5 subtable" parenright.hwid
Substitution2: "'fwid' Full Widths lookup 4 subtable" uFF09
EndChar

StartChar: asterisk
Encoding: 42 42 11
Width: 95
GlyphClass: 2
Flags: HW
LayerCount: 2
Fore
SplineSet
57 108 m 1
 40 108 l 1
 40.6669921875 108 41.6669921875 117.666992188 43 137 c 1
 19 120 l 1
 11 134 l 1
 37 146 l 1
 11 158 l 1
 19 172 l 1
 43 155 l 1
 40 184 l 1
 57 184 l 1
 54 155 l 1
 77 172 l 1
 85 158 l 1
 59 146 l 1
 85 134 l 1
 77 120 l 1
 54 137 l 1
 57 108 l 1
EndSplineSet
Substitution2: "'hwid' Half Widths lookup 5 subtable" asterisk.hwid
Substitution2: "'fwid' Full Widths lookup 4 subtable" uFF0A
EndChar

StartChar: plus
Encoding: 43 43 12
Width: 161
GlyphClass: 2
Flags: HW
LayerCount: 2
Fore
SplineSet
89 9 m 1
 73 9 l 1
 73 74 l 1
 11 74 l 1
 11 89 l 1
 73 89 l 1
 73 149 l 1
 89 149 l 1
 89 89 l 1
 151 89 l 1
 151 74 l 1
 89 74 l 1
 89 9 l 1
EndSplineSet
Substitution2: "'nalt' Alternate Annotation Forms lookup 6 subtable" uFF0B.fwid
Substitution2: "'hwid' Half Widths lookup 5 subtable" plus.hwid
Substitution2: "'fwid' Full Widths lookup 4 subtable" uFF0B
EndChar

StartChar: comma
Encoding: 44 44 13
Width: 58
GlyphClass: 2
Flags: HW
LayerCount: 2
Fore
SplineSet
24 -40 m 1
 8 -36 l 1
 17.3330078125 -14.6669921875 23 7 25 29 c 1
 48 29 l 1
 44.6669921875 5.6669921875 36.6669921875 -17.3330078125 24 -40 c 1
EndSplineSet
Substitution2: "'hwid' Half Widths lookup 5 subtable" comma.hwid
Substitution2: "'fwid' Full Widths lookup 4 subtable" uFF0C
EndChar

StartChar: hyphen
Encoding: 45 45 14
AltUni2: 002012.ffffffff.0 002011.ffffffff.0 002010.ffffffff.0 002012.ffffffff.0 002011.ffffffff.0 002010.ffffffff.0
Width: 97
GlyphClass: 2
Flags: HW
LayerCount: 2
Fore
SplineSet
91 68 m 1
 25 68 l 1
 25 88 l 1
 91 88 l 1
 91 68 l 1
EndSplineSet
Substitution2: "'hwid' Half Widths lookup 5 subtable" hyphen.hwid
Substitution2: "'fwid' Full Widths lookup 4 subtable" hyphen.fwid
Substitution2: "'vert' Vertical Alternates lookup 0 subtable" hyphen.vert
EndChar

StartChar: period
Encoding: 46 46 15
Width: 51
GlyphClass: 2
Flags: HW
LayerCount: 2
Fore
SplineSet
40 2 m 1
 13 2 l 1
 13 30 l 1
 40 30 l 1
 40 2 l 1
EndSplineSet
Substitution2: "'hwid' Half Widths lookup 5 subtable" period.hwid
Substitution2: "'fwid' Full Widths lookup 4 subtable" uFF0E
EndChar

StartChar: slash
Encoding: 47 47 16
Width: 102
GlyphClass: 2
Flags: HW
LayerCount: 2
Fore
SplineSet
14 -35 m 1
 14 -34.3330078125 10 -32.6669921875 2 -30 c 1
 86 193 l 1
 99 188 l 1
 14 -35 l 1
EndSplineSet
Substitution2: "'hwid' Half Widths lookup 5 subtable" slash.hwid
Substitution2: "'fwid' Full Widths lookup 4 subtable" uFF0F
EndChar

StartChar: zero
Encoding: 48 48 17
Width: 160
GlyphClass: 2
Flags: HW
LayerCount: 2
Fore
SplineSet
82 189 m 0
 129.010709025 189 147 142.884068372 147 94 c 128
 147 68 142.333333333 46.6666666667 133 30 c 0
 121 9.33333333333 103.5 -1 80.5 -1 c 128
 57.5 -1 40 9.33333333333 28 30 c 0
 18.6666666667 46.6666666667 14 68 14 94 c 0
 14 130 22.6666666667 156.333333333 40 173 c 0
 52 183.666666667 66 189 82 189 c 0
80.5 171 m 128
 56.7998251653 171 37 146.306722809 37 94 c 128
 37 70 41 51.3333333333 49 38 c 0
 57 24.6666666667 67.6666666667 18 81 18 c 0
 94.9731488177 18 124 26.5396979478 124 97.5 c 128
 124 119.166666667 120 136.833333333 112 150.5 c 128
 104 164.166666667 93.5 171 80.5 171 c 128
EndSplineSet
Substitution2: "'hwid' Half Widths lookup 5 subtable" zero.hwid
Substitution2: "'fwid' Full Widths lookup 4 subtable" uFF10
EndChar

StartChar: one
Encoding: 49 49 18
Width: 94
GlyphClass: 2
Flags: HW
LayerCount: 2
Fore
SplineSet
76 2 m 1
 54 2 l 1
 54 164 l 1
 40.6669921875 159.333007812 26 155.333007812 10 152 c 1
 5 169 l 1
 27 174.333007812 46 181 62 189 c 1
 76 189 l 1
 76 2 l 1
EndSplineSet
Substitution2: "'sups' Superscript lookup 10 subtable" u00B9
AlternateSubs2: "'nalt' Alternate Annotation Forms lookup 7 subtable" u2460 u2776 u24F5
Substitution2: "'hwid' Half Widths lookup 5 subtable" one.hwid
Substitution2: "'fwid' Full Widths lookup 4 subtable" uFF11
Substitution2: "'numr' Numerators lookup 2 subtable" u00B9
EndChar

StartChar: two
Encoding: 50 50 19
Width: 145
GlyphClass: 2
Flags: HW
LayerCount: 2
Fore
SplineSet
76 189 m 0
 117.140625 189 134 162.428710938 134 137 c 0
 134 83.013671875 52.6337890625 78.5546875 30 23 c 1
 137 23 l 1
 137 2 l 1
 9 2 l 1
 9 24 l 1
 30.630859375 74.4716796875 84.08203125 94.0341796875 103 116.5 c 128
 108.333007812 122.833007812 111 130.166992188 111 138.5 c 128
 111 152.143554688 100.143554688 170 74 170 c 0
 52 170 37.6669921875 157.666992188 31 133 c 1
 11 140 l 1
 20.3330078125 172.666992188 42 189 76 189 c 0
EndSplineSet
Substitution2: "'sups' Superscript lookup 10 subtable" u00B2
AlternateSubs2: "'nalt' Alternate Annotation Forms lookup 7 subtable" u2461 u2777 u24F6
Substitution2: "'hwid' Half Widths lookup 5 subtable" two.hwid
Substitution2: "'fwid' Full Widths lookup 4 subtable" uFF12
Substitution2: "'numr' Numerators lookup 2 subtable" u00B2
EndChar

StartChar: three
Encoding: 51 51 20
Width: 143
GlyphClass: 2
Flags: HW
LayerCount: 2
Fore
SplineSet
134 51 m 0
 134 40.6123046875 130.358398438 -1 72 -1 c 0
 41.3330078125 -1 19.3330078125 11 6 35 c 1
 24 45 l 1
 33.3330078125 26.3330078125 49.3330078125 17.3330078125 72 18 c 0
 85.6201171875 18 112 22.0009765625 112 53 c 128
 112 75.349609375 89.4873046875 88 60 88 c 2
 48 88 l 1
 48 107 l 1
 60 107 l 2
 74.6015625 107 108 110.349609375 108 141 c 0
 108 152.333007812 103.333007812 160.666992188 94 166 c 0
 88 170 80.3330078125 171.666992188 71 171 c 0
 52.3330078125 171 38.6669921875 161.666992188 30 143 c 1
 11 152 l 1
 23.6669921875 176.666992188 44 189 72 189 c 0
 106.38671875 189 131 170.588867188 131 142 c 128
 131 121.982421875 118.896484375 101.737304688 89 98 c 1
 89 97 l 1
 119 91.6669921875 134 76.3330078125 134 51 c 0
EndSplineSet
Substitution2: "'sups' Superscript lookup 10 subtable" u00B3
AlternateSubs2: "'nalt' Alternate Annotation Forms lookup 7 subtable" u2462 u2778 u24F7
Substitution2: "'hwid' Half Widths lookup 5 subtable" three.hwid
Substitution2: "'fwid' Full Widths lookup 4 subtable" uFF13
Substitution2: "'numr' Numerators lookup 2 subtable" u00B3
EndChar

StartChar: four
Encoding: 52 52 21
Width: 159
GlyphClass: 2
Flags: HW
LayerCount: 2
Fore
SplineSet
123 2 m 1
 103 2 l 1
 103 46 l 1
 9 46 l 1
 9 67 l 1
 99 187 l 1
 123 187 l 1
 123 65 l 1
 153 65 l 1
 153 46 l 1
 123 46 l 1
 123 2 l 1
103 65 m 1
 103 126 l 2
 103 135.333007812 103.333007812 148 104 164 c 1
 103 164 l 1
 95.6669921875 152 88.3330078125 141 81 131 c 2
 31 65 l 1
 103 65 l 1
EndSplineSet
AlternateSubs2: "'nalt' Alternate Annotation Forms lookup 7 subtable" u2463 u2779 u24F8
Substitution2: "'hwid' Half Widths lookup 5 subtable" four.hwid
Substitution2: "'fwid' Full Widths lookup 4 subtable" uFF14
EndChar

StartChar: five
Encoding: 53 53 22
Width: 145
GlyphClass: 2
Flags: HW
LayerCount: 2
Fore
SplineSet
136 61 m 128
 136 40.0478515625 124.1640625 -2.5634765625 71 -1 c 0
 42.3330078125 -1 21.6669921875 9.6669921875 9 31 c 1
 9.6669921875 31 16 34.3330078125 28 41 c 1
 37.3330078125 25 51.3330078125 17 70 17 c 0
 91.1064453125 17 113 30.52734375 113 59.5 c 128
 113 69.2001953125 110.094726562 101 72 101 c 0
 54.6669921875 101 41.6669921875 94.3330078125 33 81 c 1
 14 84 l 1
 25 185 l 1
 126 185 l 1
 126 166 l 1
 44 166 l 1
 35 104 l 1
 37 104 l 1
 49 113.333007812 63 118 79 118 c 128
 112.465820312 118 136 90.7998046875 136 61 c 128
EndSplineSet
AlternateSubs2: "'nalt' Alternate Annotation Forms lookup 7 subtable" u2464 u277A u24F9
Substitution2: "'hwid' Half Widths lookup 5 subtable" five.hwid
Substitution2: "'fwid' Full Widths lookup 4 subtable" uFF15
EndChar

StartChar: six
Encoding: 54 54 23
Width: 152
GlyphClass: 2
Flags: HW
LayerCount: 2
Fore
SplineSet
142.043945312 59.5 m 128
 142.043945312 30.6201171875 122.047851562 -1 82.0439453125 -1 c 0
 43.916015625 -1 14.0439453125 25.8427734375 14.0439453125 92 c 0
 13.376953125 122 20.376953125 146 35.0439453125 164 c 0
 47.7099609375 180.666992188 64.7099609375 189 86.0439453125 189 c 0
 110.709960938 189 128.376953125 179.666992188 139.043945312 161 c 1
 121.043945312 151 l 1
 114.376953125 164.333007812 103.043945312 171 87.0439453125 171 c 0
 55.7099609375 171 38.7099609375 145 36.0439453125 93 c 1
 37.0439453125 93 l 1
 49.0439453125 110.333007812 64.376953125 119 83.0439453125 119 c 0
 92.5546875 118.66015625 142.043945312 114.26171875 142.043945312 59.5 c 128
120.043945312 61.5 m 128
 120.043945312 79.123046875 109.278320312 102 80.5439453125 102 c 128
 50.86328125 102 40.01953125 75.275390625 39.5439453125 61 c 128
 39.2099609375 51 42.376953125 42 49.0439453125 34 c 0
 57.7099609375 22.6669921875 68.7099609375 17 82.0439453125 17 c 128
 103.840820312 17 120.043945312 33.5078125 120.043945312 61.5 c 128
EndSplineSet
AlternateSubs2: "'nalt' Alternate Annotation Forms lookup 7 subtable" u2465 u277B u24FA
Substitution2: "'hwid' Half Widths lookup 5 subtable" six.hwid
Substitution2: "'fwid' Full Widths lookup 4 subtable" uFF16
EndChar

StartChar: seven
Encoding: 55 55 24
Width: 139
GlyphClass: 2
Flags: HW
LayerCount: 2
Fore
SplineSet
60 2 m 1
 34 2 l 1
 46 49.3330078125 70.3330078125 103.666992188 107 165 c 1
 6 165 l 1
 6 185 l 1
 133 185 l 1
 133 170 l 1
 96.3330078125 112.666992188 72 56.6669921875 60 2 c 1
EndSplineSet
AlternateSubs2: "'nalt' Alternate Annotation Forms lookup 7 subtable" u2466 u277C u24FB
Substitution2: "'hwid' Half Widths lookup 5 subtable" seven.hwid
Substitution2: "'fwid' Full Widths lookup 4 subtable" uFF17
EndChar

StartChar: eight
Encoding: 56 56 25
Width: 152
GlyphClass: 2
Flags: HW
LayerCount: 2
Fore
SplineSet
144 48 m 0
 144 15.01171875 113.805664062 -2 76.5 -2 c 128
 65.0390625 -2 10 0.4248046875 10 47 c 0
 10 68.3330078125 24 84.3330078125 52 95 c 1
 52 96 l 1
 27.3330078125 104.666992188 15 119.333007812 15 140 c 0
 15 170.87109375 41.5908203125 190 78 190 c 128
 95.3330078125 190 109.666992188 185.333007812 121 176 c 0
 132.333007812 167.333007812 138 156.333007812 138 143 c 0
 138 120.333007812 124.666992188 105.333007812 98 98 c 1
 98 97 l 1
 128.666992188 86.3330078125 144 70 144 48 c 0
33 49 m 0
 31.623046875 24.2080078125 54.8798828125 16 76 16 c 0
 91.3330078125 16 103 20 111 28 c 0
 117 34 120 41.3330078125 120 50 c 0
 120 79.466796875 78.2275390625 88 75 88 c 0
 47 80.6669921875 33 67.6669921875 33 49 c 0
76.5 174 m 128
 56.091796875 174 38 162.552734375 38 141 c 0
 38 126.333007812 47 115.666992188 65 109 c 0
 71.6669921875 106.333007812 75.6669921875 105 77 105 c 0
 103 111 116 123 116 141 c 0
 116 151.666992188 111.666992188 160 103 166 c 0
 96.3330078125 171.333007812 87.5 174 76.5 174 c 128
EndSplineSet
AlternateSubs2: "'nalt' Alternate Annotation Forms lookup 7 subtable" u2467 u277D u24FC
Substitution2: "'hwid' Half Widths lookup 5 subtable" eight.hwid
Substitution2: "'fwid' Full Widths lookup 4 subtable" uFF18
EndChar

StartChar: nine
Encoding: 57 57 26
Width: 153
GlyphClass: 2
Flags: HW
LayerCount: 2
Fore
SplineSet
73 189 m 0
 116.865234375 189 141.553710938 154.930664062 140 99 c 0
 140 66.3330078125 133.333007812 41.5 120 24.5 c 128
 106.666992188 7.5 89.6669921875 -1 69 -1 c 0
 45 -1 26.6669921875 8.6669921875 14 28 c 1
 32 38 l 1
 40 24 52 17 68 17 c 0
 99.3330078125 17 116 42.6669921875 118 94 c 1
 117 94 l 1
 104.333007812 76.6669921875 88.6669921875 68.3330078125 70 69 c 0
 40.142578125 69 13 88.6943359375 13 125 c 128
 13 155.578125 30.623046875 189 73 189 c 0
115 128 m 128
 115 148.822265625 97.703125 171 74.5 171 c 128
 32.2265625 171 25.6728515625 117.327148438 44 99 c 0
 51.3330078125 90.3330078125 61.6669921875 86 75 86 c 128
 99.958984375 86 115 107.62890625 115 128 c 128
EndSplineSet
AlternateSubs2: "'nalt' Alternate Annotation Forms lookup 7 subtable" u2468 u277E u24FD
Substitution2: "'hwid' Half Widths lookup 5 subtable" nine.hwid
Substitution2: "'fwid' Full Widths lookup 4 subtable" uFF19
EndChar

StartChar: colon
Encoding: 58 58 27
Width: 61
GlyphClass: 2
Flags: HW
LayerCount: 2
Fore
SplineSet
45 2 m 1
 17 2 l 1
 17 30 l 1
 45 30 l 1
 45 2 l 1
45 102 m 1
 17 102 l 1
 17 130 l 1
 45 130 l 1
 45 102 l 1
EndSplineSet
Substitution2: "Single Substitution lookup 12 subtable" colon.calt
Substitution2: "'hwid' Half Widths lookup 5 subtable" colon.hwid
Substitution2: "'fwid' Full Widths lookup 4 subtable" uFF1A
EndChar

StartChar: semicolon
Encoding: 59 59 28
Width: 61
GlyphClass: 2
Flags: HW
LayerCount: 2
Fore
SplineSet
21 -40 m 1
 5 -36 l 1
 14.3330078125 -14.6669921875 19.6669921875 7 21 29 c 1
 45 29 l 1
 42.3330078125 5.6669921875 34.3330078125 -17.3330078125 21 -40 c 1
46 102 m 1
 18 102 l 1
 18 130 l 1
 46 130 l 1
 46 102 l 1
EndSplineSet
Substitution2: "'hwid' Half Widths lookup 5 subtable" semicolon.hwid
Substitution2: "'fwid' Full Widths lookup 4 subtable" uFF1B
EndChar

StartChar: less
Encoding: 60 60 29
Width: 162
GlyphClass: 2
Flags: HW
LayerCount: 2
Fore
SplineSet
146 10 m 1
 11 75 l 1
 11 87 l 1
 146 152 l 1
 152 138 l 1
 31 81 l 1
 152 24 l 1
 146 10 l 1
EndSplineSet
Substitution2: "'hwid' Half Widths lookup 5 subtable" less.hwid
Substitution2: "'fwid' Full Widths lookup 4 subtable" uFF1C
EndChar

StartChar: equal
Encoding: 61 61 30
Width: 173
GlyphClass: 2
Flags: HW
LayerCount: 2
Fore
SplineSet
157 50 m 1
 17 50 l 1
 17 65 l 1
 157 65 l 1
 157 50 l 1
157 98 m 1
 17 98 l 1
 17 112 l 1
 157 112 l 1
 157 98 l 1
EndSplineSet
Substitution2: "'hwid' Half Widths lookup 5 subtable" equal.hwid
Substitution2: "'fwid' Full Widths lookup 4 subtable" uFF1D
EndChar

StartChar: greater
Encoding: 62 62 31
Width: 162
GlyphClass: 2
Flags: HW
LayerCount: 2
Fore
SplineSet
18 10 m 1
 11 24 l 1
 133 81 l 1
 11 138 l 1
 18 152 l 1
 152 87 l 1
 152 75 l 1
 18 10 l 1
EndSplineSet
Substitution2: "'hwid' Half Widths lookup 5 subtable" greater.hwid
Substitution2: "'fwid' Full Widths lookup 4 subtable" uFF1E
EndChar

StartChar: question
Encoding: 63 63 32
Width: 130
GlyphClass: 2
Flags: HW
LayerCount: 2
Fore
SplineSet
75 2 m 1
 49 2 l 1
 49 29 l 1
 75 29 l 1
 75 2 l 1
66 189 m 0
 106.8125 189 122 160.635742188 122 141.5 c 128
 122 116.72265625 106.822265625 104.458007812 90 91 c 1
 85 86 l 2
 76.3330078125 78 72 67.3330078125 72 54 c 2
 72 48 l 1
 53 48 l 1
 53 57 l 2
 53 73.6669921875 59 88 71 100 c 0
 82.921875 109.935546875 99 124.340820312 99 141 c 0
 99 157.705078125 85.1123046875 171 66 171 c 0
 44.6669921875 171 31 158 25 132 c 1
 5 137 l 1
 12.3330078125 171.666992188 32.6669921875 189 66 189 c 0
EndSplineSet
Substitution2: "'hwid' Half Widths lookup 5 subtable" question.hwid
Substitution2: "'fwid' Full Widths lookup 4 subtable" uFF1F
EndChar

StartChar: at
Encoding: 64 64 33
Width: 212
GlyphClass: 2
Flags: HW
LayerCount: 2
Fore
SplineSet
31 91.5 m 128
 31 47.365234375 60.380859375 13 111.5 13 c 128
 135.833007812 13 157.666992188 19.3330078125 177 32 c 1
 183 18 l 1
 162.333007812 4.6669921875 138.666992188 -2 112 -2 c 0
 81.3330078125 -2 57.1669921875 6.8330078125 39.5 24.5 c 128
 21.8330078125 42.1669921875 13 64.5 13 91.5 c 128
 13 145.979492188 54.7451171875 190.18359375 111.5 189.5 c 128
 164.015625 188.8671875 201 155.459960938 201 106 c 0
 201 65.404296875 175.124023438 36 148 36 c 0
 136 36 129.666992188 42.6669921875 129 56 c 1
 118.333007812 43.3330078125 106.333007812 37.3330078125 93 38 c 0
 76.4814453125 38 58 49.7236328125 58 81 c 0
 57.3330078125 101.666992188 63 119 75 133 c 0
 85.6669921875 146.333007812 98.5 153.166992188 113.5 153.5 c 128
 128.5 153.833007812 138.333007812 147.333007812 143 134 c 1
 148 148 l 1
 162 148 l 1
 146 83 l 2
 144 74.3330078125 143 68 143 64 c 0
 143 56 145.666992188 52 151 52 c 0
 165.16796875 52 186.48046875 70.478515625 185 106 c 0
 185 139.51171875 162.677734375 175 112.5 175 c 128
 90.1669921875 175 71 166.833007812 55 150.5 c 128
 39 134.166992188 31 114.5 31 91.5 c 128
115 139 m 0
 97.93359375 139 78 116.97265625 78 82 c 0
 78 63.3330078125 84 54 96 54 c 0
 119.91015625 54 135 90.056640625 135 112 c 0
 135 114.21484375 134.5625 139 115 139 c 0
EndSplineSet
Substitution2: "'hwid' Half Widths lookup 5 subtable" at.hwid
Substitution2: "'fwid' Full Widths lookup 4 subtable" uFF20
EndChar

StartChar: A
Encoding: 65 65 34
Width: 172
GlyphClass: 2
Flags: HW
LayerCount: 2
Fore
SplineSet
168 2 m 1
 144 2 l 1
 124 56 l 1
 50 56 l 1
 30 2 l 1
 6 2 l 1
 78 187 l 1
 96 187 l 1
 168 2 l 1
117 74 m 1
 99 123 l 2
 93.6669921875 136.333007812 89.6669921875 148.666992188 87 160 c 1
 86 160 l 1
 83.3330078125 148 79.6669921875 135.666992188 75 123 c 0
 74.3330078125 122.333007812 68 106 56 74 c 1
 117 74 l 1
EndSplineSet
Substitution2: "'hwid' Half Widths lookup 5 subtable" A.hwid
Substitution2: "'fwid' Full Widths lookup 4 subtable" uFF21
EndChar

StartChar: B
Encoding: 66 66 35
Width: 158
GlyphClass: 2
Flags: HW
LayerCount: 2
Fore
SplineSet
148 54 m 0
 148 22.3095703125 121.825195312 2 79 2 c 2
 19 2 l 1
 19 185 l 1
 72 185 l 2
 104.106445312 185 141 176.958984375 141 140 c 0
 141 116.666992188 128.333007812 102.666992188 103 98 c 1
 103 97 l 1
 133 92.3330078125 148 78 148 54 c 0
124 55 m 0
 124 87.6416015625 77.705078125 89 70 89 c 2
 41 89 l 1
 41 21 l 1
 76 21 l 2
 108 21 124 32.3330078125 124 55 c 0
69 106 m 2
 101 106 117 116.333007812 117 137 c 0
 117 157 101.333007812 167 70 167 c 2
 41 167 l 1
 41 106 l 1
 69 106 l 2
EndSplineSet
Substitution2: "'hwid' Half Widths lookup 5 subtable" B.hwid
Substitution2: "'fwid' Full Widths lookup 4 subtable" uFF22
EndChar

StartChar: C
Encoding: 67 67 36
Width: 178
GlyphClass: 2
Flags: HW
LayerCount: 2
Fore
SplineSet
170 44 m 1
 165.251953125 33.146484375 146.461914062 -1 98 -1 c 0
 44.75390625 -1 11 38.6396484375 11 94 c 128
 11 122 19.3330078125 144.833007812 36 162.5 c 128
 52.6669921875 180.166992188 73 189 97 189 c 0
 131 189 155 174.333007812 169 145 c 1
 148 136 l 1
 138 158.666992188 121.333007812 170 98 170 c 0
 66.2548828125 170 36 144.108398438 36 95.5 c 128
 36 73.1669921875 41 55.3330078125 51 42 c 0
 62.3330078125 26.6669921875 78 19 98 19 c 0
 122 19 139.666992188 30.3330078125 151 53 c 0
 151 53.6669921875 157.333007812 50.6669921875 170 44 c 1
EndSplineSet
Substitution2: "'nalt' Alternate Annotation Forms lookup 6 subtable" copyright
Substitution2: "'hwid' Half Widths lookup 5 subtable" C.hwid
Substitution2: "'fwid' Full Widths lookup 4 subtable" uFF23
EndChar

StartChar: D
Encoding: 68 68 37
Width: 185
GlyphClass: 2
Flags: HW
LayerCount: 2
Fore
SplineSet
74 185 m 2
 107.966796875 185 173 174.490234375 173 94 c 0
 173 59.3330078125 160.666992188 34 136 18 c 0
 120 7.3330078125 99 2 73 2 c 2
 19 2 l 1
 19 185 l 1
 74 185 l 2
71 22 m 2
 123 22 149 46 149 94 c 128
 149 142 123.333007812 166 72 166 c 2
 42 166 l 1
 42 22 l 1
 71 22 l 2
EndSplineSet
Substitution2: "'hwid' Half Widths lookup 5 subtable" D.hwid
Substitution2: "'fwid' Full Widths lookup 4 subtable" uFF24
EndChar

StartChar: E
Encoding: 69 69 38
Width: 146
GlyphClass: 2
Flags: HW
LayerCount: 2
Fore
SplineSet
137 2 m 1
 19 2 l 1
 19 185 l 1
 134 185 l 1
 134 166 l 1
 42 166 l 1
 42 106 l 1
 123 106 l 1
 123 88 l 1
 42 88 l 1
 42 22 l 1
 137 22 l 1
 137 2 l 1
EndSplineSet
Substitution2: "'hwid' Half Widths lookup 5 subtable" E.hwid
Substitution2: "'fwid' Full Widths lookup 4 subtable" uFF25
EndChar

StartChar: F
Encoding: 70 70 39
Width: 139
GlyphClass: 2
Flags: HW
LayerCount: 2
Fore
SplineSet
42 2 m 1
 19 2 l 1
 19 185 l 1
 134 185 l 1
 134 166 l 1
 42 166 l 1
 42 106 l 1
 123 106 l 1
 123 88 l 1
 42 88 l 1
 42 2 l 1
EndSplineSet
Substitution2: "'hwid' Half Widths lookup 5 subtable" F.hwid
Substitution2: "'fwid' Full Widths lookup 4 subtable" uFF26
EndChar

StartChar: G
Encoding: 71 71 40
Width: 186
GlyphClass: 2
Flags: HW
LayerCount: 2
Fore
SplineSet
172 31 m 5
 169.303710938 27.4052734375 146.52734375 -1 100 -1 c 4
 74 -1 52.6669921875 7.6669921875 36 25 c 132
 19.3330078125 42.3330078125 11 65.1669921875 11 93.5 c 132
 11 121.833007812 19.3330078125 144.833007812 36 162.5 c 132
 52.6669921875 180.166992188 73 189 97 189 c 4
 131 189 155 174.333007812 169 145 c 5
 149 136 l 5
 138.333007812 158.666992188 121.333007812 170 98 170 c 4
 66.767578125 170 36 144.833007812 36 95 c 132
 36 78.982421875 40.06640625 18 102 18 c 132
 123.333007812 18 139.666992188 25 151 39 c 5
 151 74 l 5
 110 74 l 5
 110 92 l 5
 172 92 l 5
 172 31 l 5
EndSplineSet
Substitution2: "'hwid' Half Widths lookup 5 subtable" G.hwid
Substitution2: "'fwid' Full Widths lookup 4 subtable" uFF27
EndChar

StartChar: H
Encoding: 72 72 41
Width: 181
GlyphClass: 2
Flags: HW
LayerCount: 2
Fore
SplineSet
162 2 m 1
 140 2 l 1
 140 88 l 1
 42 88 l 1
 42 2 l 1
 19 2 l 1
 19 185 l 1
 42 185 l 1
 42 107 l 1
 140 107 l 1
 140 185 l 1
 162 185 l 1
 162 2 l 1
EndSplineSet
Substitution2: "'hwid' Half Widths lookup 5 subtable" H.hwid
Substitution2: "'fwid' Full Widths lookup 4 subtable" uFF28
EndChar

StartChar: I
Encoding: 73 73 42
Width: 61
GlyphClass: 2
Flags: HW
LayerCount: 2
Fore
SplineSet
42 2 m 1
 19 2 l 1
 19 185 l 1
 42 185 l 1
 42 2 l 1
EndSplineSet
Substitution2: "'hwid' Half Widths lookup 5 subtable" I.hwid
Substitution2: "'fwid' Full Widths lookup 4 subtable" uFF29
EndChar

StartChar: J
Encoding: 74 74 43
Width: 102
GlyphClass: 2
Flags: HW
LayerCount: 2
Fore
SplineSet
41 -1 m 0
 29 -1 17.3330078125 2 6 8 c 1
 14 26 l 1
 22 20.6669921875 30.3330078125 18 39 18 c 0
 53.6669921875 18 61 28 61 48 c 2
 61 185 l 1
 84 185 l 1
 84 49 l 2
 83.3330078125 15.6669921875 69 -1 41 -1 c 0
EndSplineSet
Substitution2: "'hwid' Half Widths lookup 5 subtable" J.hwid
Substitution2: "'fwid' Full Widths lookup 4 subtable" uFF2A
EndChar

StartChar: K
Encoding: 75 75 44
Width: 166
GlyphClass: 2
Flags: HW
LayerCount: 2
Fore
SplineSet
161 2 m 1
 131 2 l 1
 62 94 l 1
 42 74 l 1
 42 2 l 1
 19 2 l 1
 19 185 l 1
 42 185 l 1
 42 98 l 1
 123 185 l 1
 153 185 l 1
 77 108 l 1
 161 2 l 1
EndSplineSet
Substitution2: "'hwid' Half Widths lookup 5 subtable" K.hwid
Substitution2: "'fwid' Full Widths lookup 4 subtable" uFF2B
EndChar

StartChar: L
Encoding: 76 76 45
Width: 136
GlyphClass: 2
Flags: HW
HStem: 2 20<42 129> 165 20G<19 42>
VStem: 19 23<22 185>
LayerCount: 2
Fore
SplineSet
129 2 m 1
 19 2 l 1
 19 185 l 1
 42 185 l 1
 42 22 l 1
 129 22 l 1
 129 2 l 1
EndSplineSet
Substitution2: "'hwid' Half Widths lookup 5 subtable" L.hwid
Substitution2: "'fwid' Full Widths lookup 4 subtable" uFF2C
EndChar

StartChar: M
Encoding: 77 77 46
Width: 220
GlyphClass: 2
Flags: HW
LayerCount: 2
Fore
SplineSet
201 2 m 1
 179 2 l 1
 179 101 l 2
 179 121 179.333007812 142.333007812 180 165 c 1
 179 165 l 1
 172.333007812 145.666992188 165.333007812 126.333007812 158 107 c 2
 118 8 l 1
 101 8 l 1
 61 109 l 2
 53 129.666992188 46 148.666992188 40 166 c 1
 39 166 l 1
 40.3330078125 139.333007812 41 118 41 102 c 2
 41 2 l 1
 19 2 l 1
 19 185 l 1
 52 185 l 1
 95 78 l 2
 100.333007812 65.3330078125 105.333007812 51.3330078125 110 36 c 1
 111 36 l 1
 115 49.3330078125 119.333007812 63 124 77 c 2
 168 185 l 1
 201 185 l 1
 201 2 l 1
EndSplineSet
Substitution2: "'hwid' Half Widths lookup 5 subtable" M.hwid
Substitution2: "'fwid' Full Widths lookup 4 subtable" uFF2D
EndChar

StartChar: N
Encoding: 78 78 47
Width: 184
GlyphClass: 2
Flags: HW
LayerCount: 2
Fore
SplineSet
165 2 m 1
 144 2 l 1
 63 126 l 2
 57 135.333007812 49.6669921875 148 41 164 c 1
 40 164 l 1
 41.3330078125 136 41.6669921875 114.333007812 41 99 c 2
 41 2 l 1
 19 2 l 1
 19 185 l 1
 50 185 l 1
 49.3330078125 185 72.3330078125 149.666992188 119 79 c 0
 128.333007812 65 136.333007812 51.6669921875 143 39 c 1
 145 39 l 1
 143.666992188 63.6669921875 143 83.6669921875 143 99 c 2
 143 185 l 1
 165 185 l 1
 165 2 l 1
EndSplineSet
Substitution2: "'hwid' Half Widths lookup 5 subtable" N.hwid
Substitution2: "'fwid' Full Widths lookup 4 subtable" uFF2E
EndChar

StartChar: O
Encoding: 79 79 48
Width: 197
GlyphClass: 2
Flags: HW
LayerCount: 2
Fore
SplineSet
98 -1 m 128
 47.2900390625 -1 11 35.31640625 11 94 c 0
 11 124.666992188 20 148.666992188 38 166 c 0
 54 182 74 189.833007812 98 189.5 c 0
 122 189.833007812 142 182 158 166 c 0
 176 148 184.833007812 124 184.5 94 c 128
 183.88671875 38.78125 150.866210938 -1 98 -1 c 128
98 171 m 128
 64.603515625 171 35 143.541992188 35 93.5 c 128
 35 67.8330078125 42.3330078125 48 57 34 c 0
 91.736328125 -0.736328125 160 18.607421875 160 94 c 128
 160 119.333007812 152.666992188 139.333007812 138 154 c 0
 127.333007812 165.333007812 114 171 98 171 c 128
EndSplineSet
Substitution2: "'hwid' Half Widths lookup 5 subtable" O.hwid
Substitution2: "'fwid' Full Widths lookup 4 subtable" uFF2F
EndChar

StartChar: P
Encoding: 80 80 49
Width: 152
GlyphClass: 2
Flags: HW
LayerCount: 2
Fore
SplineSet
42 2 m 1
 19 2 l 1
 19 185 l 1
 73 185 l 2
 119.666992188 185 143 167.666992188 143 133 c 0
 143 95.6669921875 119 77 71 77 c 2
 42 77 l 1
 42 2 l 1
67 95 m 2
 101.666992188 95 119 107.666992188 119 133 c 0
 119 156.333007812 103 167.666992188 71 167 c 2
 42 167 l 1
 42 95 l 1
 67 95 l 2
EndSplineSet
Substitution2: "'hwid' Half Widths lookup 5 subtable" P.hwid
Substitution2: "'fwid' Full Widths lookup 4 subtable" uFF30
EndChar

StartChar: Q
Encoding: 81 81 50
Width: 198
GlyphClass: 2
Flags: HW
LayerCount: 2
Fore
SplineSet
176 -12 m 1
 162.666992188 -2.6669921875 151.666992188 5 143 11 c 1
 129.666992188 3 114.333007812 -1 97 -1 c 0
 73 -1 53.3330078125 6.6669921875 38 22 c 0
 20 39.3330078125 11 63.1669921875 11 93.5 c 0
 11 124.5 20 148.666992188 38 166 c 0
 54 182 74 189.833007812 98 189.5 c 0
 122 189.833007812 142 182 158 166 c 0
 176 148 184.833007812 124.5 184.5 95.5 c 128
 184.166992188 66.5 175.333007812 42.6669921875 158 24 c 1
 167.333007812 17.3330078125 177.333007812 10.6669921875 188 4 c 1
 176 -12 l 1
35 94 m 0
 33.5986328125 40.748046875 67.74609375 18 99 18 c 0
 110.333007812 18 120 20.3330078125 128 25 c 1
 116 33 103.666992188 40.6669921875 91 48 c 0
 90.3330078125 48 94 53.3330078125 102 64 c 1
 116.666992188 54 130.333007812 44.6669921875 143 36 c 1
 155 49.3330078125 161 68.6669921875 161 94 c 128
 161 143.036132812 131.71875 171 98 171 c 0
 82 171.666992188 68.3330078125 166 57 154 c 0
 42.3330078125 139.333007812 35 119.333007812 35 94 c 0
EndSplineSet
Substitution2: "'hwid' Half Widths lookup 5 subtable" Q.hwid
Substitution2: "'fwid' Full Widths lookup 4 subtable" uFF31
EndChar

StartChar: R
Encoding: 82 82 51
Width: 161
GlyphClass: 2
Flags: HW
LayerCount: 2
Fore
SplineSet
158 2 m 1
 131 2 l 1
 113.666992188 40.6669921875 99.6669921875 64.3330078125 89 73 c 0
 81 79 71.3330078125 82 60 82 c 2
 42 82 l 1
 42 2 l 1
 19 2 l 1
 19 185 l 1
 75 185 l 2
 94.2744140625 185 141.63671875 180.513671875 142.5 136.5 c 128
 142.833007812 119.5 136 106.666992188 122 98 c 0
 114.666992188 92.6669921875 106 89.6669921875 96 89 c 1
 96 88 l 1
 107.333007812 84 116.833007812 76 124.5 64 c 128
 132.166992188 52 143.333007812 31.3330078125 158 2 c 1
70 99 m 2
 103.333007812 99 119.666992188 111 119 135 c 0
 119 156.333007812 103.333007812 167 72 167 c 2
 42 167 l 1
 42 99 l 1
 70 99 l 2
EndSplineSet
Substitution2: "'nalt' Alternate Annotation Forms lookup 6 subtable" registered
Substitution2: "'hwid' Half Widths lookup 5 subtable" R.hwid
Substitution2: "'fwid' Full Widths lookup 4 subtable" uFF32
EndChar

StartChar: S
Encoding: 83 83 52
Width: 141
GlyphClass: 2
Flags: HW
LayerCount: 2
Fore
SplineSet
131 50 m 0
 131 7.8369140625 92.0546875 -1 71 -1 c 0
 42.3330078125 -1 20.6669921875 9.6669921875 6 31 c 1
 24 44 l 1
 36 26.6669921875 52 18 72 18 c 0
 105.131835938 18 117.765625 50.748046875 98.5 69 c 128
 92.1669921875 75 80.3330078125 81.3330078125 63 88 c 2
 56 91 l 1
 26.6669921875 102.333007812 12 118.333007812 12 139 c 0
 12 162.873046875 28.71484375 189 68 189 c 0
 94 189 114 178.666992188 128 158 c 1
 111 146 l 1
 101.666992188 162.666992188 87.3330078125 170.666992188 68 170 c 0
 49.0595703125 170 35 158.880859375 35 141 c 128
 35 127.782226562 42.626953125 119.571289062 73 108 c 1
 82 104 l 2
 105.118164062 94.43359375 131 80.7685546875 131 50 c 0
EndSplineSet
Substitution2: "'hwid' Half Widths lookup 5 subtable" S.hwid
Substitution2: "'fwid' Full Widths lookup 4 subtable" uFF33
EndChar

StartChar: T
Encoding: 84 84 53
Width: 166
GlyphClass: 2
Flags: HW
LayerCount: 2
Fore
SplineSet
93 2 m 1
 70 2 l 1
 70 166 l 1
 5 166 l 1
 5 185 l 1
 161 185 l 1
 161 166 l 1
 93 166 l 1
 93 2 l 1
EndSplineSet
Substitution2: "'hwid' Half Widths lookup 5 subtable" T.hwid
Substitution2: "'fwid' Full Widths lookup 4 subtable" uFF34
EndChar

StartChar: U
Encoding: 85 85 54
Width: 180
GlyphClass: 2
Flags: HW
LayerCount: 2
Fore
SplineSet
90 17 m 0
 112.000976562 17 140 25.3740234375 140 68 c 2
 140 185 l 1
 163 185 l 1
 163 65 l 2
 162.333007812 48.3330078125 158 34.6669921875 150 24 c 0
 136.666992188 6.6669921875 116.5 -2 89.5 -2 c 128
 62.5 -2 42 6.6669921875 28 24 c 0
 20 34.6669921875 16 48.3330078125 16 65 c 2
 16 185 l 1
 38 185 l 1
 38 68 l 2
 38 52.6669921875 42 41 50 33 c 0
 60 22.3330078125 73.3330078125 17 90 17 c 0
EndSplineSet
Substitution2: "'hwid' Half Widths lookup 5 subtable" U.hwid
Substitution2: "'fwid' Full Widths lookup 4 subtable" uFF35
EndChar

StartChar: V
Encoding: 86 86 55
Width: 170
GlyphClass: 2
Flags: HW
LayerCount: 2
Fore
SplineSet
93 0 m 1
 76 0 l 1
 4 185 l 1
 29 185 l 1
 72 71 l 2
 77.3330078125 55.6669921875 81.6669921875 42.3330078125 85 31 c 1
 86 31 l 1
 89.3330078125 43.6669921875 93.6669921875 57 99 71 c 2
 142 185 l 1
 167 185 l 1
 93 0 l 1
EndSplineSet
Substitution2: "'hwid' Half Widths lookup 5 subtable" V.hwid
Substitution2: "'fwid' Full Widths lookup 4 subtable" uFF36
EndChar

StartChar: W
Encoding: 87 87 56
Width: 242
GlyphClass: 2
Flags: HW
LayerCount: 2
Fore
SplineSet
182 0 m 1
 165 0 l 1
 132 110 l 2
 128.666992188 122 125.333007812 135.333007812 122 150 c 1
 121 150 l 1
 118.333007812 138 115 124.666992188 111 110 c 2
 79 0 l 1
 61 0 l 1
 5 185 l 1
 30 185 l 1
 59 82 l 2
 63.6669921875 66 67.6669921875 51 71 37 c 1
 72 37 l 1
 74.6669921875 49.6669921875 78.3330078125 64.6669921875 83 82 c 2
 112 182 l 1
 131 182 l 1
 162 82 l 2
 166 68.6669921875 170 53.6669921875 174 37 c 1
 175 37 l 1
 185 82 l 1
 215 185 l 1
 239 185 l 1
 182 0 l 1
EndSplineSet
Substitution2: "'hwid' Half Widths lookup 5 subtable" W.hwid
Substitution2: "'fwid' Full Widths lookup 4 subtable" uFF37
EndChar

StartChar: X
Encoding: 88 88 57
Width: 173
GlyphClass: 2
Flags: HW
LayerCount: 2
Fore
SplineSet
169 2 m 1
 140 2 l 2
 139.333007812 2 121.666992188 27.6669921875 87 79 c 1
 87 78.3330078125 70 52.6669921875 36 2 c 1
 7 2 l 1
 74 95 l 1
 9 185 l 1
 38 185 l 1
 88 110 l 1
 139 185 l 1
 168 185 l 1
 102 95 l 1
 169 2 l 1
EndSplineSet
Substitution2: "'hwid' Half Widths lookup 5 subtable" X.hwid
Substitution2: "'fwid' Full Widths lookup 4 subtable" uFF38
EndChar

StartChar: Y
Encoding: 89 89 58
Width: 165
GlyphClass: 2
Flags: HW
LayerCount: 2
Fore
SplineSet
94 2 m 1
 71 2 l 1
 71 88 l 1
 71.6669921875 88 49.3330078125 120.333007812 4 185 c 1
 32 185 l 1
 32 185 49 159.333007812 83 106 c 1
 134 185 l 1
 162 185 l 1
 162 185 139.333007812 153.333007812 94 88 c 1
 94 2 l 1
EndSplineSet
Substitution2: "'hwid' Half Widths lookup 5 subtable" Y.hwid
Substitution2: "'fwid' Full Widths lookup 4 subtable" uFF39
EndChar

StartChar: Z
Encoding: 90 90 59
Width: 163
GlyphClass: 2
Flags: HW
LayerCount: 2
Fore
SplineSet
156 2 m 1
 9 2 l 1
 9 19 l 1
 97 135 l 2
 101.666992188 141 110 151 122 165 c 1
 122 166 l 1
 17 166 l 1
 17 185 l 1
 149 185 l 1
 149 167 l 1
 63 52 l 2
 53.6669921875 40 46 30.6669921875 40 24 c 1
 40 22 l 1
 156 22 l 1
 156 2 l 1
EndSplineSet
Substitution2: "'hwid' Half Widths lookup 5 subtable" Z.hwid
Substitution2: "'fwid' Full Widths lookup 4 subtable" uFF3A
EndChar

StartChar: bracketleft
Encoding: 91 91 60
Width: 69
GlyphClass: 2
Flags: HW
LayerCount: 2
Fore
SplineSet
64 -40 m 1
 19 -40 l 1
 19 190 l 1
 64 190 l 1
 64 178 l 1
 37 178 l 1
 37 -27 l 1
 64 -27 l 1
 64 -40 l 1
EndSplineSet
Substitution2: "'hwid' Half Widths lookup 5 subtable" bracketleft.hwid
Substitution2: "'fwid' Full Widths lookup 4 subtable" uFF3B
EndChar

StartChar: backslash
Encoding: 92 92 61
Width: 102
GlyphClass: 2
Flags: HW
LayerCount: 2
Fore
SplineSet
89 -35 m 1
 4 188 l 1
 4.6669921875 188 9 189.666992188 17 193 c 1
 17 193 45 119.333007812 101 -30 c 1
 89 -35 l 1
EndSplineSet
Substitution2: "'fwid' Full Widths lookup 4 subtable" uFF3C
EndChar

StartChar: bracketright
Encoding: 93 93 62
Width: 69
GlyphClass: 2
Flags: HW
LayerCount: 2
Fore
SplineSet
50 -40 m 1
 5 -40 l 1
 5 -27 l 1
 32 -27 l 1
 32 178 l 1
 5 178 l 1
 5 190 l 1
 50 190 l 1
 50 -40 l 1
EndSplineSet
Substitution2: "'hwid' Half Widths lookup 5 subtable" bracketright.hwid
Substitution2: "'fwid' Full Widths lookup 4 subtable" uFF3D
EndChar

StartChar: asciicircum
Encoding: 94 94 63
Width: 134
GlyphClass: 2
Flags: HW
LayerCount: 2
Fore
SplineSet
114 83 m 1
 67 139 l 1
 20 83 l 1
 9 94 l 1
 67 160 l 1
 125 94 l 1
 114 83 l 1
EndSplineSet
Substitution2: "'hwid' Half Widths lookup 5 subtable" uFF3E.hwid
Substitution2: "'fwid' Full Widths lookup 4 subtable" uFF3E
EndChar

StartChar: underscore
Encoding: 95 95 64
Width: 159
GlyphClass: 2
Flags: HW
LayerCount: 2
Fore
SplineSet
144 -30 m 1
 16 -30 l 1
 16 -17 l 1
 144 -17 l 1
 144 -30 l 1
EndSplineSet
EndChar

StartChar: grave
Encoding: 96 96 65
Width: 61
GlyphClass: 2
Flags: HW
LayerCount: 2
Fore
SplineSet
52 151 m 1
 35 151 l 1
 9 185 l 1
 33 185 l 1
 52 151 l 1
EndSplineSet
EndChar

StartChar: a
Encoding: 97 97 66
Width: 131
GlyphClass: 2
Flags: HW
LayerCount: 2
Fore
SplineSet
68 133 m 0
 86.384765625 133 115 126.633789062 115 87 c 2
 115 40 l 2
 115 24 117.333007812 11.3330078125 122 2 c 1
 103 2 l 1
 100.333007812 8.6669921875 98.3330078125 15.3330078125 97 22 c 1
 96 22 l 1
 86.6669921875 6.6669921875 72.3330078125 -1 53 -1 c 0
 22.287109375 -1 10 20.435546875 10 38 c 0
 10 64.6669921875 32.6669921875 78.6669921875 78 80 c 1
 95 80 l 1
 95 87 l 2
 95 91.3857421875 93.8056640625 116 67 116 c 0
 52.3330078125 116 41.6669921875 109 35 95 c 1
 16 104 l 1
 28 123.333007812 45.3330078125 133 68 133 c 0
32 38 m 0
 32 36.5068359375 32.447265625 16 57 16 c 0
 79.201171875 16 96 34.4072265625 96 54 c 2
 96 65 l 1
 82 65 l 2
 48.6669921875 64.3330078125 32 55.3330078125 32 38 c 0
EndSplineSet
Substitution2: "'nalt' Alternate Annotation Forms lookup 6 subtable" u24D0
Substitution2: "'hwid' Half Widths lookup 5 subtable" a.hwid
Substitution2: "'fwid' Full Widths lookup 4 subtable" uFF41
EndChar

StartChar: b
Encoding: 98 98 67
Width: 154
GlyphClass: 2
Flags: HW
LayerCount: 2
Fore
SplineSet
85 134 m 0
 115.872070312 134 143 110.010742188 143 66.5 c 128
 143 44.8330078125 136.666992188 27.6669921875 124 15 c 0
 113.333007812 4.3330078125 99.6669921875 -1 83 -1 c 128
 66.3330078125 -1 52 6.3330078125 40 21 c 1
 36 2 l 1
 19 2 l 1
 19 192 l 1
 41 192 l 1
 41 109 l 1
 52.3330078125 125 67 133.333007812 85 134 c 0
41 50 m 2
 41 34.55078125 58.7880859375 16 82 16 c 128
 102.436523438 16 120.126953125 33.9208984375 119.5 64 c 128
 118.748046875 100.08984375 99.298828125 116 81.5 116 c 128
 58.5185546875 116 41 92.994140625 41 80 c 2
 41 50 l 2
EndSplineSet
Substitution2: "'nalt' Alternate Annotation Forms lookup 6 subtable" u24D1
Substitution2: "'hwid' Half Widths lookup 5 subtable" b.hwid
Substitution2: "'fwid' Full Widths lookup 4 subtable" uFF42
EndChar

StartChar: c
Encoding: 99 99 68
Width: 137
GlyphClass: 2
Flags: HW
LayerCount: 2
Fore
SplineSet
33 67 m 128
 33 27.6171875 60.5888671875 17 76 17 c 0
 92 17 104 25 112 41 c 1
 129 31 l 1
 117 9.6669921875 98.6669921875 -1 74 -1 c 0
 41.0068359375 -1 10 22.2861328125 10 66.5 c 0
 10 102.055664062 34.1982421875 132.5078125 73 134 c 0
 97.6669921875 134 115.333007812 123.333007812 126 102 c 1
 108 92 l 1
 100.666992188 108 89.3330078125 116 74 116 c 0
 54.904296875 116 33 101.157226562 33 67 c 128
EndSplineSet
Substitution2: "'nalt' Alternate Annotation Forms lookup 6 subtable" u24D2
Substitution2: "'hwid' Half Widths lookup 5 subtable" c.hwid
Substitution2: "'fwid' Full Widths lookup 4 subtable" uFF43
EndChar

StartChar: d
Encoding: 100 100 69
Width: 153
GlyphClass: 2
Flags: HW
LayerCount: 2
Fore
SplineSet
67.5126953125 -1 m 0
 38.6611328125 -1 10.6943359375 22.2314453125 10.0126953125 66.5 c 0
 9.6796875 88.8330078125 15.845703125 106 28.5126953125 118 c 0
 39.1796875 128.666992188 52.5126953125 134 68.5126953125 134 c 128
 84.5126953125 134 98.845703125 126.666992188 111.512695312 112 c 1
 111.512695312 192 l 1
 133.512695312 192 l 1
 133.512695312 2 l 1
 113.512695312 2 l 1
 113.512695312 25 l 1
 101.512695312 7.6669921875 86.1796875 -1 67.5126953125 -1 c 0
70.5126953125 116 m 128
 50.076171875 116 32.3857421875 98.0791015625 33.0126953125 68 c 128
 33.345703125 52 37.1796875 39.3330078125 44.5126953125 30 c 128
 51.845703125 20.6669921875 61.345703125 16 73.0126953125 16 c 128
 84.6796875 16 94.845703125 22.3330078125 103.512695312 35 c 0
 108.845703125 41.6669921875 111.512695312 47.3330078125 111.512695312 52 c 2
 111.512695312 84 l 2
 111.512695312 92.6669921875 106.1796875 100.666992188 95.5126953125 108 c 0
 88.1796875 113.333007812 79.845703125 116 70.5126953125 116 c 128
EndSplineSet
Substitution2: "'nalt' Alternate Annotation Forms lookup 6 subtable" u24D3
Substitution2: "'hwid' Half Widths lookup 5 subtable" d.hwid
Substitution2: "'fwid' Full Widths lookup 4 subtable" uFF44
EndChar

StartChar: e
Encoding: 101 101 70
Width: 143
GlyphClass: 2
Flags: HW
LayerCount: 2
Fore
SplineSet
32 64 m 1
 33.4443359375 32.2236328125 54.68359375 16 78 16 c 0
 94 16 106.666992188 23.6669921875 116 39 c 1
 131 29 l 1
 119 9 100.333007812 -1 75 -1 c 0
 42.462890625 -1 10 19.4560546875 10 66.5 c 128
 10 87.5 16.1669921875 104 28.5 116 c 128
 40.8330078125 128 55.1669921875 134 71.5 134 c 128
 102.228515625 134 131 113.575195312 131 69 c 2
 131 64 l 1
 32 64 l 1
108 80 m 1
 107.39453125 85.1455078125 102.303710938 118 71 118 c 128
 57.130859375 118 37.5537109375 106.653320312 34 80 c 1
 108 80 l 1
EndSplineSet
Substitution2: "'nalt' Alternate Annotation Forms lookup 6 subtable" u24D4
Substitution2: "'hwid' Half Widths lookup 5 subtable" e.hwid
Substitution2: "'fwid' Full Widths lookup 4 subtable" uFF45
EndChar

StartChar: f
Encoding: 102 102 71
Width: 102
GlyphClass: 2
Flags: HW
LayerCount: 2
Fore
SplineSet
48 2 m 1
 27 2 l 1
 27 114 l 1
 6 114 l 1
 6 130 l 1
 27 130 l 1
 27 146 l 2
 27 160 30.3330078125 171 37 179 c 0
 45 188.333007812 55.6669921875 193.333007812 69 194 c 0
 79.6669921875 194 89.6669921875 191 99 185 c 1
 90 170 l 1
 83.3330078125 174.666992188 77 177 71 177 c 0
 56.3330078125 177 48.6669921875 167 48 147 c 2
 48 130 l 1
 83 130 l 1
 83 114 l 1
 48 114 l 1
 48 2 l 1
EndSplineSet
Substitution2: "'nalt' Alternate Annotation Forms lookup 6 subtable" u24D5
Substitution2: "'hwid' Half Widths lookup 5 subtable" f.hwid
Substitution2: "'fwid' Full Widths lookup 4 subtable" uFF46
EndChar

StartChar: g
Encoding: 103 103 72
Width: 134
GlyphClass: 2
Flags: HW
LayerCount: 2
Fore
SplineSet
115 87 m 128
 115 72.0029296875 106.659179688 44 66 44 c 0
 59.3330078125 44 53 44.6669921875 47 46 c 1
 38.3330078125 45.3330078125 34 42 34 36 c 0
 34 28 44 23.6669921875 64 23 c 2
 79 22 l 2
 110.333007812 20.6669921875 126 9.3330078125 126 -12 c 0
 126 -22.6669921875 121 -31.3330078125 111 -38 c 0
 100.333007812 -46 85.8330078125 -50 67.5 -50 c 128
 49.1669921875 -50 34.6669921875 -47 24 -41 c 128
 13.3330078125 -35 8 -27 8 -17 c 0
 8 -3.6669921875 17.6669921875 5.3330078125 37 10 c 1
 37 11 l 1
 21.6669921875 15 14 21.6669921875 14 31 c 128
 14 40.3330078125 20.6669921875 47.3330078125 34 52 c 1
 19.3330078125 59.3330078125 12 71 12 87 c 0
 12 99.6669921875 16.5 110.5 25.5 119.5 c 0
 35.1669921875 128.5 48 133 64 133 c 0
 74.6669921875 133 83.6669921875 130.666992188 91 126 c 1
 97 134 108 138 124 138 c 1
 124 120 l 1
 112.666992188 120 105.333007812 119.333007812 102 118 c 1
 110.666992188 109.333007812 115 99 115 87 c 128
66 -35 m 0
 82 -35 93.3330078125 -31.3330078125 100 -24 c 0
 103.333007812 -20 105 -16 105 -12 c 0
 105 0.6669921875 91.3330078125 6.6669921875 64 6 c 0
 41.3330078125 6 30 -1 30 -15 c 0
 30 -28.3330078125 42 -35 66 -35 c 0
63.5 117 m 128
 43.6865234375 117 34 102.46875 34 87.5 c 128
 34 72.5869140625 43.416015625 59 64 59 c 128
 84.58203125 59 94 72.5849609375 94 87.5 c 128
 94 103.416992188 82.517578125 117 63.5 117 c 128
EndSplineSet
Substitution2: "'nalt' Alternate Annotation Forms lookup 6 subtable" u24D6
Substitution2: "'hwid' Half Widths lookup 5 subtable" g.hwid
Substitution2: "'fwid' Full Widths lookup 4 subtable" uFF47
EndChar

StartChar: h
Encoding: 104 104 73
Width: 146
GlyphClass: 2
Flags: HW
LayerCount: 2
Fore
SplineSet
130 2 m 1
 108 2 l 1
 108 82 l 2
 108 103.333007812 99 114 81 114 c 0
 63 114 49.6669921875 103.333007812 41 82 c 1
 41 2 l 1
 19 2 l 1
 19 192 l 1
 41 192 l 1
 41 108 l 1
 52.3330078125 124 67.3330078125 132.333007812 86 133 c 0
 115.333007812 133 130 116.333007812 130 83 c 2
 130 2 l 1
EndSplineSet
Substitution2: "'nalt' Alternate Annotation Forms lookup 6 subtable" u24D7
Substitution2: "'hwid' Half Widths lookup 5 subtable" h.hwid
Substitution2: "'fwid' Full Widths lookup 4 subtable" uFF48
EndChar

StartChar: i
Encoding: 105 105 74
Width: 59
GlyphClass: 2
Flags: HW
LayerCount: 2
Fore
SplineSet
40 2 m 1
 18 2 l 1
 18 130 l 1
 40 130 l 1
 40 2 l 1
41 157 m 1
 16 157 l 1
 16 183 l 1
 41 183 l 1
 41 157 l 1
EndSplineSet
Substitution2: "'nalt' Alternate Annotation Forms lookup 6 subtable" u24D8
Substitution2: "'hwid' Half Widths lookup 5 subtable" i.hwid
Substitution2: "'fwid' Full Widths lookup 4 subtable" uFF49
EndChar

StartChar: j
Encoding: 106 106 75
Width: 76
GlyphClass: 2
Flags: HW
LayerCount: 2
Fore
SplineSet
3 -32 m 1
 26.82421875 -28.5966796875 35 -16.580078125 35 6 c 2
 35 130 l 1
 57 130 l 1
 57 6 l 2
 57 -36.1162109375 35.3759765625 -46.193359375 10 -50 c 1
 3 -32 l 1
59 157 m 1
 34 157 l 1
 34 183 l 1
 59 183 l 1
 59 157 l 1
EndSplineSet
Substitution2: "'nalt' Alternate Annotation Forms lookup 6 subtable" u24D9
Substitution2: "'hwid' Half Widths lookup 5 subtable" j.hwid
Substitution2: "'fwid' Full Widths lookup 4 subtable" uFF4A
EndChar

StartChar: k
Encoding: 107 107 76
Width: 130
GlyphClass: 2
Flags: HW
LayerCount: 2
Fore
SplineSet
126 2 m 1
 99 2 l 1
 55 64 l 1
 41 50 l 1
 41 2 l 1
 19 2 l 1
 19 192 l 1
 41 192 l 1
 41 71 l 1
 40.3330078125 71 58 90.6669921875 94 130 c 1
 122 130 l 1
 69 77 l 1
 126 2 l 1
EndSplineSet
Substitution2: "'nalt' Alternate Annotation Forms lookup 6 subtable" u24DA
Substitution2: "'hwid' Half Widths lookup 5 subtable" k.hwid
Substitution2: "'fwid' Full Widths lookup 4 subtable" uFF4B
EndChar

StartChar: l
Encoding: 108 108 77
Width: 62
GlyphClass: 2
Flags: HW
HStem: 0 17<43.46 56> 172 20G<18 40>
VStem: 18 22<19.344 192>
LayerCount: 2
Fore
SplineSet
40 36 m 2
 40 22.6669921875 44.6669921875 16.3330078125 54 17 c 2
 56 17 l 1
 56 0 l 1
 49 0 l 2
 28.3330078125 0 18 11 18 33 c 2
 18 192 l 1
 40 192 l 1
 40 36 l 2
EndSplineSet
Substitution2: "'nalt' Alternate Annotation Forms lookup 6 subtable" u24DB
Substitution2: "'hwid' Half Widths lookup 5 subtable" l.hwid
Substitution2: "'fwid' Full Widths lookup 4 subtable" uFF4C
EndChar

StartChar: m
Encoding: 109 109 78
Width: 212
GlyphClass: 2
Flags: HW
LayerCount: 2
Fore
SplineSet
153 133 m 0
 164.384765625 133 196 128.870117188 196 83 c 2
 196 2 l 1
 174 2 l 1
 174 82 l 2
 174 103.333007812 165.666992188 114.333007812 149 115 c 0
 135.969726562 115 122.06640625 104.264648438 117 84 c 1
 117 2 l 1
 95 2 l 1
 95 83 l 2
 95 104.333007812 87.3330078125 115 72 115 c 0
 54.552734375 115 39 94.3271484375 39 82 c 2
 39 2 l 1
 17 2 l 1
 17 130 l 1
 38 130 l 1
 38 108 l 1
 46.6669921875 124.666992188 59.8330078125 133 77.5 133 c 128
 95.1669921875 133 107 124 113 106 c 1
 122.333007812 124 135.666992188 133 153 133 c 0
EndSplineSet
Substitution2: "'nalt' Alternate Annotation Forms lookup 6 subtable" u24DC
Substitution2: "'hwid' Half Widths lookup 5 subtable" m.hwid
Substitution2: "'fwid' Full Widths lookup 4 subtable" uFF4D
EndChar

StartChar: n
Encoding: 110 110 79
Width: 144
GlyphClass: 2
Flags: HW
LayerCount: 2
Fore
SplineSet
128 2 m 1
 106 2 l 1
 106 82 l 2
 106 103.333007812 97 114 79 114 c 0
 60.3330078125 114 47 103.333007812 39 82 c 1
 39 2 l 1
 17 2 l 1
 17 130 l 1
 38 130 l 1
 38 107 l 1
 50 124.333007812 65.3330078125 133 84 133 c 0
 113.333007812 133 128 116.333007812 128 83 c 2
 128 2 l 1
EndSplineSet
Substitution2: "'nalt' Alternate Annotation Forms lookup 6 subtable" u24DD
Substitution2: "'hwid' Half Widths lookup 5 subtable" n.hwid
Substitution2: "'fwid' Full Widths lookup 4 subtable" uFF4E
EndChar

StartChar: o
Encoding: 111 111 80
Width: 150
GlyphClass: 2
Flags: HW
LayerCount: 2
Fore
SplineSet
74.5 -1 m 128
 41.5048828125 -1 10 20.7919921875 10 65.5 c 128
 10 109.469726562 41.6953125 134 75 134 c 128
 109.36328125 134 139 108.290039062 139 66 c 128
 139 23.3876953125 109.107421875 -1 74.5 -1 c 128
116 66.5 m 128
 116 101.901367188 92.890625 117 74.5 117 c 128
 64.1669921875 117 55.3330078125 113 48 105 c 0
 22.7109375 79.7109375 29.0302734375 16 74.5 16 c 128
 85.5 16 94.6669921875 20 102 28 c 0
 111.333007812 37.3330078125 116 50.1669921875 116 66.5 c 128
EndSplineSet
Substitution2: "'nalt' Alternate Annotation Forms lookup 6 subtable" u24DE
Substitution2: "'hwid' Half Widths lookup 5 subtable" o.hwid
Substitution2: "'fwid' Full Widths lookup 4 subtable" uFF4F
EndChar

StartChar: p
Encoding: 112 112 81
Width: 152
GlyphClass: 2
Flags: HW
LayerCount: 2
Fore
SplineSet
141 66.5 m 128
 141 24.267578125 115.368164062 -1 82 -1 c 128
 66 -1 51.6669921875 6 39 20 c 1
 39 -49 l 1
 17 -49 l 1
 17 130 l 1
 38 130 l 1
 38 108 l 1
 50 125.333007812 65 134 83 134 c 0
 109.98828125 134 141 113.602539062 141 66.5 c 128
39 52 m 1
 40.146484375 33.6552734375 58.591796875 16 80.5 16 c 128
 99.9677734375 16 118 33.6083984375 118 64 c 128
 118 80 114 92.6669921875 106 102 c 0
 98.6669921875 111.333007812 89.3330078125 116 78 116 c 128
 66.6669921875 116 57 110.333007812 49 99 c 0
 43 91 39.6669921875 84 39 78 c 2
 39 52 l 1
EndSplineSet
Substitution2: "'nalt' Alternate Annotation Forms lookup 6 subtable" u24DF
Substitution2: "'hwid' Half Widths lookup 5 subtable" p.hwid
Substitution2: "'fwid' Full Widths lookup 4 subtable" uFF50
EndChar

StartChar: q
Encoding: 113 113 82
Width: 152
GlyphClass: 2
Flags: HW
LayerCount: 2
Fore
SplineSet
133.512695312 -49 m 1
 111.512695312 -49 l 1
 111.512695312 22 l 1
 100.846679688 6 86.1796875 -1.6669921875 67.5126953125 -1 c 0
 38.263671875 -1 10.6875 22.8134765625 10.0126953125 66 c 128
 9.232421875 115.969726562 44.0751953125 134 71.0126953125 134 c 128
 88.0126953125 134 102.1796875 126.666992188 113.512695312 112 c 1
 116.512695312 131 l 1
 133.512695312 131 l 1
 133.512695312 -49 l 1
111.512695312 84 m 2
 111.512695312 90.5517578125 98.126953125 116 72.0126953125 116 c 128
 42.5146484375 116 33.5126953125 87.0966796875 33.5126953125 66 c 128
 33.5126953125 39.40625 48.2587890625 16 73.0126953125 16 c 128
 96.125 16 111.512695312 42.6298828125 111.512695312 51 c 2
 111.512695312 84 l 2
EndSplineSet
Substitution2: "'nalt' Alternate Annotation Forms lookup 6 subtable" u24E0
Substitution2: "'hwid' Half Widths lookup 5 subtable" q.hwid
Substitution2: "'fwid' Full Widths lookup 4 subtable" uFF51
EndChar

StartChar: r
Encoding: 114 114 83
Width: 95
GlyphClass: 2
Flags: HW
LayerCount: 2
Fore
SplineSet
39 2 m 1
 17 2 l 1
 17 130 l 1
 38 130 l 1
 37 92 l 1
 38 92 l 1
 47.3330078125 120 61 134 79 134 c 0
 81.6669921875 134 84.3330078125 133.666992188 87 133 c 1
 83 111 l 1
 80.3330078125 111.666992188 78 112 76 112 c 0
 66 112 57.6669921875 107.333007812 51 98 c 0
 43 86 39 75.6669921875 39 67 c 2
 39 2 l 1
EndSplineSet
Substitution2: "'nalt' Alternate Annotation Forms lookup 6 subtable" u24E1
Substitution2: "'hwid' Half Widths lookup 5 subtable" r.hwid
Substitution2: "'fwid' Full Widths lookup 4 subtable" uFF52
EndChar

StartChar: s
Encoding: 115 115 84
Width: 117
GlyphClass: 2
Flags: HW
LayerCount: 2
Fore
SplineSet
105 36 m 0
 105 18.107421875 92.6552734375 -1 59 -1 c 0
 39.6669921875 -1 23 6 9 20 c 1
 23 33 l 1
 33.6669921875 21.6669921875 46 16 60 16 c 0
 76.6669921875 16 84.6669921875 22.3330078125 84 35 c 0
 84 44.3330078125 75 52.3330078125 57 59 c 2
 48 62 l 2
 25.3330078125 70 14 81.6669921875 14 97 c 0
 14 109.2578125 21.435546875 134 57 134 c 0
 75.6669921875 134 91 127.333007812 103 114 c 1
 88 102 l 1
 80 112 70 117 58 117 c 0
 42 117 34.3330078125 111 35 99 c 0
 35 90.3330078125 43.3330078125 83.3330078125 60 78 c 2
 69 75 l 2
 93 67 105 54 105 36 c 0
EndSplineSet
Substitution2: "'nalt' Alternate Annotation Forms lookup 6 subtable" u24E2
Substitution2: "'hwid' Half Widths lookup 5 subtable" s.hwid
Substitution2: "'fwid' Full Widths lookup 4 subtable" uFF53
EndChar

StartChar: t
Encoding: 116 116 85
Width: 92
GlyphClass: 2
Flags: HW
LayerCount: 2
Fore
SplineSet
54 0 m 0
 34 0 24 11 24 33 c 2
 24 114 l 1
 7 114 l 1
 7 130 l 1
 24 130 l 1
 24 159 l 1
 45 169 l 1
 45 130 l 1
 80 130 l 1
 80 114 l 1
 45 114 l 1
 45 36 l 1
 43.3330078125 2.66796875 74.2861328125 22.857421875 76 24 c 1
 83 10 l 1
 73.6669921875 3.3330078125 64 0 54 0 c 0
EndSplineSet
Substitution2: "'nalt' Alternate Annotation Forms lookup 6 subtable" u24E3
Substitution2: "'hwid' Half Widths lookup 5 subtable" t.hwid
Substitution2: "'fwid' Full Widths lookup 4 subtable" uFF54
EndChar

StartChar: u
Encoding: 117 117 86
Width: 143
GlyphClass: 2
Flags: HW
LayerCount: 2
Fore
SplineSet
59 0 m 0
 44.755859375 0 15 4.974609375 15 50 c 0
 15 130 15 130 15 130 c 1
 37 130 l 1
 37 50 l 2
 37 28.6669921875 45.8330078125 18.1669921875 63.5 18.5 c 128
 81.1669921875 18.8330078125 94.3330078125 30 103 52 c 1
 103 130 l 1
 125 130 l 1
 125 2 l 1
 105 2 l 1
 105 26 l 1
 92.3330078125 8.6669921875 77 0 59 0 c 0
EndSplineSet
Substitution2: "'nalt' Alternate Annotation Forms lookup 6 subtable" u24E4
Substitution2: "'hwid' Half Widths lookup 5 subtable" u.hwid
Substitution2: "'fwid' Full Widths lookup 4 subtable" uFF55
EndChar

StartChar: v
Encoding: 118 118 87
Width: 136
GlyphClass: 2
Flags: HW
LayerCount: 2
Fore
SplineSet
75 0 m 1
 60 0 l 1
 6 130 l 1
 30 130 l 2
 30.6669921875 130 40.3330078125 105.333007812 59 56 c 1
 68 28 l 1
 69 28 l 1
 70.3330078125 33.3330078125 73.3330078125 42.6669921875 78 56 c 2
 106 130 l 1
 129 130 l 1
 75 0 l 1
EndSplineSet
Substitution2: "'nalt' Alternate Annotation Forms lookup 6 subtable" u24E5
Substitution2: "'hwid' Half Widths lookup 5 subtable" v.hwid
Substitution2: "'fwid' Full Widths lookup 4 subtable" uFF56
EndChar

StartChar: w
Encoding: 119 119 88
Width: 202
GlyphClass: 2
Flags: HW
LayerCount: 2
Fore
SplineSet
151 0 m 1
 135 0 l 1
 108 77 l 2
 105.333007812 84.3330078125 102.666992188 93.6669921875 100 105 c 1
 98.6669921875 97 96 87.6669921875 92 77 c 2
 65 0 l 1
 50 0 l 1
 6 130 l 1
 29 130 l 1
 50 60 l 2
 51.3330078125 56 54 46 58 30 c 1
 59 30 l 1
 61.6669921875 40 64.6669921875 50 68 60 c 2
 91 130 l 1
 110 130 l 1
 134 60 l 2
 136.666992188 53.3330078125 139.666992188 43.3330078125 143 30 c 1
 144 30 l 1
 146.666992188 41.3330078125 149 51.3330078125 151 60 c 2
 173 130 l 1
 195 130 l 1
 151 0 l 1
EndSplineSet
Substitution2: "'nalt' Alternate Annotation Forms lookup 6 subtable" u24E6
Substitution2: "'hwid' Half Widths lookup 5 subtable" w.hwid
Substitution2: "'fwid' Full Widths lookup 4 subtable" uFF57
EndChar

StartChar: x
Encoding: 120 120 89
Width: 135
GlyphClass: 2
Flags: HW
LayerCount: 2
Fore
SplineSet
128 2 m 1
 103 2 l 1
 68 54 l 1
 34 2 l 1
 8 2 l 1
 56 67 l 1
 10 130 l 1
 36 130 l 1
 69 81 l 1
 68.3330078125 81 79.3330078125 97.3330078125 102 130 c 1
 127 130 l 1
 81 67 l 1
 128 2 l 1
EndSplineSet
Substitution2: "'nalt' Alternate Annotation Forms lookup 6 subtable" u24E7
Substitution2: "'hwid' Half Widths lookup 5 subtable" x.hwid
Substitution2: "'fwid' Full Widths lookup 4 subtable" uFF58
EndChar

StartChar: y
Encoding: 121 121 90
Width: 136
GlyphClass: 2
Flags: HW
LayerCount: 2
Fore
SplineSet
26 -48 m 2
 23 -48 l 1
 18 -28 l 1
 22 -28 l 2
 36 -28 45.3330078125 -22 50 -10 c 2
 58 11 l 1
 6 130 l 1
 30 130 l 1
 58 58 l 2
 62.6669921875 46.6669921875 66 37.6669921875 68 31 c 1
 69 31 l 1
 72.3330078125 41.6669921875 75.3330078125 50.6669921875 78 58 c 2
 105 130 l 1
 129 130 l 1
 67 -20 l 2
 59 -38.6669921875 45.3330078125 -48 26 -48 c 2
EndSplineSet
Substitution2: "'nalt' Alternate Annotation Forms lookup 6 subtable" u24E8
Substitution2: "'hwid' Half Widths lookup 5 subtable" y.hwid
Substitution2: "'fwid' Full Widths lookup 4 subtable" uFF59
EndChar

StartChar: z
Encoding: 122 122 91
Width: 123
GlyphClass: 2
Flags: HW
LayerCount: 2
Fore
SplineSet
113 2 m 1
 10 2 l 1
 10 15 l 1
 65 87 l 2
 71.6669921875 95.6669921875 78.3330078125 104 85 112 c 1
 85 113 l 1
 17 113 l 1
 17 130 l 1
 110 130 l 1
 110 116 l 1
 57 46 l 2
 53.6669921875 42 47 33.6669921875 37 21 c 1
 37 20 l 1
 113 20 l 1
 113 2 l 1
EndSplineSet
Substitution2: "'nalt' Alternate Annotation Forms lookup 6 subtable" u24E9
Substitution2: "'hwid' Half Widths lookup 5 subtable" z.hwid
Substitution2: "'fwid' Full Widths lookup 4 subtable" uFF5A
EndChar

StartChar: braceleft
Encoding: 123 123 92
Width: 75
GlyphClass: 2
Flags: HW
LayerCount: 2
Fore
SplineSet
70 -40 m 1
 59 -40 l 2
 35.6669921875 -40 24 -28 24 -4 c 2
 24 47 l 2
 24 61 19 69 9 71 c 1
 9 82 l 1
 19 84 24 91.6669921875 24 105 c 2
 24 155 l 2
 24 179 35.6669921875 190.666992188 59 190 c 2
 70 190 l 1
 70 178 l 1
 62 178 l 2
 49.3330078125 178 43 169.666992188 43 153 c 2
 43 107 l 2
 43 92.3330078125 37 82.3330078125 25 77 c 1
 37 71 43 60.6669921875 43 46 c 2
 43 -2 l 2
 43.6669921875 -18.6669921875 50 -27 62 -27 c 2
 70 -27 l 1
 70 -40 l 1
EndSplineSet
Substitution2: "'hwid' Half Widths lookup 5 subtable" braceleft.hwid
Substitution2: "'fwid' Full Widths lookup 4 subtable" uFF5B
EndChar

StartChar: bar
Encoding: 124 124 93
Width: 53
GlyphClass: 2
Flags: HW
LayerCount: 2
Fore
SplineSet
34 -39 m 1
 19 -39 l 1
 19 190 l 1
 34 190 l 1
 34 -39 l 1
EndSplineSet
Substitution2: "'hwid' Half Widths lookup 5 subtable" uFFE8
Substitution2: "'fwid' Full Widths lookup 4 subtable" uFF5C
EndChar

StartChar: braceright
Encoding: 125 125 94
Width: 74
GlyphClass: 2
Flags: HW
LayerCount: 2
Fore
SplineSet
16 -40 m 2
 5 -40 l 1
 5 -27 l 1
 13 -27 l 2
 25.6669921875 -27 32 -18.6669921875 32 -2 c 2
 32 46 l 2
 32 60 38 70.3330078125 50 77 c 1
 38 83 32 93 32 107 c 2
 32 153 l 2
 32 169.666992188 25.6669921875 178 13 178 c 2
 5 178 l 1
 5 190 l 1
 16 190 l 2
 39.3330078125 190 51 178.333007812 51 155 c 2
 51 105 l 2
 51 91 56 83.3330078125 66 82 c 1
 66 71 l 1
 56 69 51 61 51 47 c 2
 51 -4 l 2
 51 -28 39.3330078125 -40 16 -40 c 2
EndSplineSet
Substitution2: "'hwid' Half Widths lookup 5 subtable" braceright.hwid
Substitution2: "'fwid' Full Widths lookup 4 subtable" uFF5D
EndChar

StartChar: asciitilde
Encoding: 126 126 95
AltUni2: 00223c.ffffffff.0 00223c.ffffffff.0
Width: 152
GlyphClass: 2
Flags: HW
LayerCount: 2
Fore
SplineSet
48 101 m 0
 68.103077286 101 89.5534883706 79 104 79 c 0
 114.666666667 79 126 84.6666666667 138 96 c 1
 138 76 l 1
 127.333333333 66.6666666667 116.333333333 62 105 62 c 0
 81.6104560027 62 64.056210664 84 49 84 c 0
 37.6666666667 84 26.3333333333 78.3333333333 15 67 c 1
 15 88 l 1
 25 97.3333333333 36 101.666666667 48 101 c 0
EndSplineSet
Substitution2: "'hwid' Half Widths lookup 5 subtable" u301C.hwid
Substitution2: "'fwid' Full Widths lookup 4 subtable" u301C
EndChar

StartChar: exclamdown
Encoding: 161 161 96
Width: 58
GlyphClass: 2
Flags: HW
LayerCount: 2
Fore
SplineSet
42 158 m 1
 16 158 l 1
 16 185 l 1
 42 185 l 1
 42 158 l 1
42 2 m 1
 17 2 l 1
 21 138 l 1
 38 138 l 1
 42 2 l 1
EndSplineSet
Substitution2: "'hwid' Half Widths lookup 5 subtable" exclamdown.hwid
EndChar

StartChar: cent
Encoding: 162 162 97
Width: 146
GlyphClass: 2
Flags: HW
LayerCount: 2
Fore
SplineSet
49 8 m 1
 30 8 l 1
 45 46 l 1
 23.6669921875 58.6669921875 13 78 13 104 c 0
 13 122.666992188 19.5048828125 138.166992188 32 151 c 0
 44.1708984375 163.5 59.3330078125 170 78 170 c 0
 82 170 86 169.333007812 90 168 c 1
 100 197 l 1
 119 197 l 1
 106 164 l 1
 120.666992188 156.666992188 130.666992188 144.333007812 136 127 c 1
 114 127 l 1
 111.333007812 135 106.666992188 141.333007812 100 146 c 1
 67 57 l 1
 71 56.3330078125 74.3330078125 56 77 56 c 0
 97 56 110 65.6669921875 116 85 c 1
 139 85 l 1
 135 69 127.166992188 57.1669921875 115.5 49.5 c 128
 103.833007812 41.8330078125 91.3330078125 38 78 38 c 0
 72 38 66 38.6669921875 60 40 c 1
 49 8 l 1
79 152 m 0
 51.642578125 152 34 131.649414062 34 104 c 0
 33.3330078125 86.6669921875 39 73.3330078125 51 64 c 1
 83 151 l 1
 82.3330078125 151 81 151.333007812 79 152 c 0
EndSplineSet
Substitution2: "'fwid' Full Widths lookup 4 subtable" uFFE0
EndChar

StartChar: sterling
Encoding: 163 163 98
Width: 187
GlyphClass: 2
Flags: HW
LayerCount: 2
Fore
SplineSet
57.111328125 152 m 0
 57.111328125 179.956054688 79.126953125 197 106.111328125 197 c 128
 120.111328125 197 131.444335938 192.333007812 140.111328125 183 c 0
 148.111328125 175.666992188 152.444335938 164.666992188 153.111328125 150 c 1
 131.111328125 150 l 1
 129.77734375 170 120.611328125 180 103.611328125 180 c 128
 86.611328125 180 78.111328125 170 78.111328125 150 c 0
 78.111328125 143.333007812 80.111328125 134.666992188 84.111328125 124 c 1
 142.111328125 124 l 1
 142.111328125 105 l 1
 92.111328125 105 l 1
 96.77734375 91.6669921875 99.111328125 80.6669921875 99.111328125 72 c 128
 99.111328125 63.3330078125 98.111328125 55.3330078125 96.111328125 48 c 1
 112.111328125 34.6669921875 125.111328125 28 135.111328125 28 c 0
 149.77734375 28 160.444335938 39.3330078125 167.111328125 62 c 1
 184.111328125 48 l 1
 171.444335938 21.3330078125 155.77734375 8 137.111328125 8 c 0
 123.77734375 8 107.77734375 15.6669921875 89.111328125 31 c 1
 80.4443359375 15.6669921875 66.4443359375 8 47.111328125 8 c 0
 30.5185546875 8 8.111328125 18.525390625 8.111328125 43 c 0
 7.4443359375 51.6669921875 9.77734375 58.6669921875 15.111328125 64 c 0
 26.7763671875 77.998046875 48.3447265625 81.84375 81.111328125 60 c 1
 81.111328125 69 l 2
 81.111328125 78.3330078125 78.111328125 90.3330078125 72.111328125 105 c 1
 28.111328125 105 l 1
 28.111328125 124 l 1
 64.111328125 124 l 1
 59.4443359375 134.666992188 57.111328125 144 57.111328125 152 c 0
48.111328125 25 m 0
 60.111328125 25 69.4443359375 31 76.111328125 43 c 1
 64.77734375 53 54.4443359375 58 45.111328125 58 c 0
 34.4443359375 58 27.111328125 53.7685546875 27.111328125 45 c 0
 27.111328125 31.6669921875 34.111328125 25 48.111328125 25 c 0
EndSplineSet
Substitution2: "'fwid' Full Widths lookup 4 subtable" uFFE1
EndChar

StartChar: currency
Encoding: 164 164 99
Width: 146
GlyphClass: 2
Flags: HW
LayerCount: 2
Fore
SplineSet
39 127 m 1
 46.8994140625 132.430664062 77.1669921875 150.125 108 127 c 1
 123 142 l 1
 133 132 l 1
 119 117 l 1
 127 106.333007812 131 94.8330078125 131 82.5 c 128
 131 70.1669921875 127 58.6669921875 119 48 c 1
 133 33 l 1
 123 22 l 1
 108 37 l 1
 100.759765625 31.5693359375 72.63671875 13.875 39 37 c 1
 39 36.3330078125 34 31.3330078125 24 22 c 1
 14 33 l 1
 29 48 l 1
 21 58.6669921875 17 70.1669921875 17 82.5 c 128
 17 94.8330078125 21 106.333007812 29 117 c 0
 29 117.666992188 24 122.666992188 14 132 c 1
 24 142 l 1
 39 127 l 1
31 82 m 0
 31 65.1787109375 40.912109375 39 74 39 c 0
 94.9658203125 39 117 55.5615234375 117 83 c 128
 117 111.518554688 93.3818359375 126 75 126 c 128
 52.5087890625 126 31 108.912109375 31 82 c 0
EndSplineSet
EndChar

StartChar: yen
Encoding: 165 165 100
Width: 163
GlyphClass: 2
Flags: HW
LayerCount: 2
Fore
SplineSet
92 2 m 1
 71 2 l 1
 71 48 l 1
 23 48 l 1
 23 62 l 1
 71 62 l 1
 71 88 l 1
 23 88 l 1
 23 102 l 1
 65 102 l 1
 4 185 l 1
 31 185 l 1
 82 109 l 1
 133 185 l 1
 160 185 l 1
 98 102 l 1
 139 102 l 1
 139 88 l 1
 92 88 l 1
 92 62 l 1
 139 62 l 1
 139 48 l 1
 92 48 l 1
 92 2 l 1
EndSplineSet
Substitution2: "'hwid' Half Widths lookup 5 subtable" yen.hwid
Substitution2: "'fwid' Full Widths lookup 4 subtable" uFFE5
EndChar

StartChar: brokenbar
Encoding: 166 166 101
Width: 52
GlyphClass: 2
Flags: HW
LayerCount: 2
Fore
SplineSet
34 -39 m 1
 19 -39 l 1
 19 56 l 1
 34 56 l 1
 34 -39 l 1
34 94 m 1
 19 94 l 1
 19 190 l 1
 34 190 l 1
 34 94 l 1
EndSplineSet
Substitution2: "'hwid' Half Widths lookup 5 subtable" uFFE8
Substitution2: "'fwid' Full Widths lookup 4 subtable" uFFE4
EndChar

StartChar: section
Encoding: 167 167 102
Width: 133
GlyphClass: 2
Flags: HW
LayerCount: 2
Fore
SplineSet
117 24 m 0
 117 -3.3837890625 94.0458984375 -17 67 -17 c 0
 35.6669921875 -16.3330078125 18 0.6669921875 14 34 c 1
 37 34 l 1
 38.3330078125 12.6669921875 48.3330078125 2 67 2 c 128
 85.6669921875 2 95 9.6669921875 95 25 c 0
 95 34.3330078125 92.1669921875 41.1669921875 86.5 45.5 c 128
 70.7236328125 57.564453125 43.71875 63.6240234375 24.5 79.5 c 128
 16.8330078125 85.8330078125 13 93.6669921875 13 103 c 0
 13 114.333007812 21 125.333007812 37 136 c 1
 36 137 l 1
 24.6669921875 145 19 155.666992188 19 169 c 0
 19 187.393554688 33.24609375 212 67.5 212 c 128
 83.1669921875 212 95.3330078125 207.5 104 198.5 c 128
 112.666992188 189.5 117.333007812 177.666992188 118 163 c 1
 95 163 l 1
 94.3330078125 183 85 193 67 193 c 128
 49 193 40 185 40 169 c 0
 40 138.572265625 88.5966796875 137.403320312 109 117 c 0
 117 109.666992188 121 101 121 91 c 0
 121 79 113.666992188 68 99 58 c 1
 101.666992188 56.6669921875 105 54 109 50 c 0
 115 42 117.666992188 33.3330078125 117 24 c 0
83 67 m 1
 93.6669921875 73 99 81 99 91 c 0
 99 105.595703125 84.4833984375 113.620117188 64 122 c 2
 52 127 l 1
 41.3330078125 121 35.6669921875 113.333007812 35 104 c 0
 35 97.9873046875 37.3779296875 88.2265625 65.5 76 c 128
 73.1669921875 72.6669921875 79 69.6669921875 83 67 c 1
EndSplineSet
Substitution2: "'fwid' Full Widths lookup 4 subtable" section.fwid
EndChar

StartChar: dieresis
Encoding: 168 168 103
Width: 97
GlyphClass: 2
Flags: HW
LayerCount: 2
Fore
SplineSet
85 156 m 1
 61 156 l 1
 61 180 l 1
 85 180 l 1
 85 156 l 1
35 156 m 1
 12 156 l 1
 12 180 l 1
 35 180 l 1
 35 156 l 1
EndSplineSet
EndChar

StartChar: copyright
Encoding: 169 169 104
Width: 232
GlyphClass: 2
Flags: HW
LayerCount: 2
Fore
SplineSet
117 202 m 0
 175.362304688 202 221 153.365234375 221 97 c 0
 221 79 216.833007812 62.6669921875 208.5 48 c 128
 197.569335938 28.76171875 170.107421875 -7 117 -7 c 0
 54.0947265625 -7 13 45.8740234375 13 98 c 0
 13 130.666992188 26.3330078125 157.666992188 53 179 c 0
 72.3330078125 193.666992188 93.6669921875 201.333007812 117 202 c 0
23 97 m 0
 23 50.5888671875 61.814453125 3 117 3 c 0
 165.565429688 3 211 44.185546875 211 97 c 0
 211 125.666992188 199.666992188 149.666992188 177 169 c 0
 159 183.666992188 139 191 117 191 c 0
 106.3515625 191 67.912109375 188.493164062 43 154 c 0
 29.6669921875 136.666992188 23 117.666992188 23 97 c 0
78 98.5 m 0
 78 63.5244140625 102.678710938 48.017578125 121 47 c 0
 137 47 149 54.3330078125 157 69 c 1
 176 61 l 1
 165.333007812 38.3330078125 147 27 121 27 c 0
 82.384765625 27 55 54.517578125 55 97 c 0
 55 109 57.3330078125 120.333007812 62 131 c 0
 74 155.666992188 93.1669921875 168 119.5 168 c 128
 145.833007812 168 164.666992188 157 176 135 c 1
 155 126 l 1
 148.333007812 140.666992188 136.333007812 148 119 148 c 0
 97.328125 148 78 128.806640625 78 98.5 c 0
EndSplineSet
EndChar

StartChar: ordfeminine
Encoding: 170 170 105
Width: 108
GlyphClass: 2
Flags: HW
LayerCount: 2
Fore
SplineSet
95 74 m 1
 12 74 l 1
 12 86 l 1
 95 86 l 1
 95 74 l 1
43 100 m 0
 33.1865234375 100 14 102.947265625 14 126 c 0
 14 144 29 153.666992188 59 155 c 1
 72 155 l 1
 72 158 l 2
 72 169.333007812 66 175 54 175 c 0
 44 175 37 170.666992188 33 162 c 1
 18 170 l 1
 25.3330078125 183.333007812 37.6669921875 190 55 190 c 0
 67.6669921875 190 77.3330078125 185.666992188 84 177 c 0
 87.3330078125 173 88.6669921875 167 88 159 c 2
 88 128 l 2
 88 116.666992188 90 107.666992188 94 101 c 1
 79 101 l 1
 77 104.333007812 75.3330078125 108.666992188 74 114 c 1
 64.6669921875 104.666992188 54.3330078125 100 43 100 c 0
32 126 m 0
 32 118 37 114 47 114 c 128
 57 114 64.3330078125 118.666992188 69 128 c 0
 71 130.666992188 72 133 72 135 c 2
 72 143 l 1
 60 142 l 2
 41.3330078125 141.333007812 32 136 32 126 c 0
EndSplineSet
EndChar

StartChar: guillemotleft
Encoding: 171 171 106
Width: 123
GlyphClass: 2
Flags: HW
LayerCount: 2
Fore
SplineSet
100 22 m 1
 59 78 l 1
 100 134 l 2
 100.666992188 134 105 131.333007812 113 126 c 1
 81 78 l 1
 113 29 l 1
 100 22 l 1
51 22 m 1
 10 78 l 1
 51 134 l 1
 64 126 l 1
 32 78 l 1
 64 29 l 1
 51 22 l 1
EndSplineSet
Substitution2: "'hwid' Half Widths lookup 5 subtable" guillemotleft.hwid
Substitution2: "'fwid' Full Widths lookup 4 subtable" u300A
EndChar

StartChar: logicalnot
Encoding: 172 172 107
Width: 158
GlyphClass: 2
Flags: HW
LayerCount: 2
Fore
SplineSet
142 40 m 1
 127 40 l 1
 127 87 l 1
 14 87 l 1
 14 101 l 1
 142 101 l 1
 142 40 l 1
EndSplineSet
EndChar

StartChar: u00AD
Encoding: 173 173 108
AltUni2: 002212.ffffffff.0 002212.ffffffff.0
Width: 171
GlyphClass: 2
Flags: HW
LayerCount: 2
Fore
SplineSet
155 74 m 1
 15 74 l 1
 15 89 l 1
 155 89 l 1
 155 74 l 1
EndSplineSet
Substitution2: "'nalt' Alternate Annotation Forms lookup 6 subtable" uFF0D.fwid
Substitution2: "'fwid' Full Widths lookup 4 subtable" uFF0D
EndChar

StartChar: registered
Encoding: 174 174 109
Width: 232
GlyphClass: 2
Flags: HW
LayerCount: 2
Fore
SplineSet
117 202 m 0
 175.362304688 202 221 153.365234375 221 97 c 0
 221 79 216.833007812 62.6669921875 208.5 48 c 128
 197.569335938 28.76171875 170.107421875 -7 117 -7 c 0
 54.0947265625 -7 13 45.8740234375 13 98 c 0
 13 130.666992188 26.3330078125 157.666992188 53 179 c 0
 72.3330078125 193.666992188 93.6669921875 201.333007812 117 202 c 0
23 97 m 0
 23 50.5888671875 61.814453125 3 117 3 c 0
 165.565429688 3 211 44.185546875 211 97 c 0
 211 125.666992188 199.666992188 149.666992188 177 169 c 0
 159 183.666992188 139 191 117 191 c 0
 106.3515625 191 67.912109375 188.493164062 43 154 c 0
 29.6669921875 136.666992188 23 117.666992188 23 97 c 0
153 28 m 1
 135.22265625 75.4052734375 125.545898438 85 108 85 c 2
 94 85 l 1
 94 28 l 1
 72 28 l 1
 72 164 l 1
 118 164 l 2
 130.666992188 164 141.333007812 161.333007812 150 156 c 0
 162 149.333007812 168 139.333007812 168 126 c 0
 168 106 158 94.3330078125 138 91 c 1
 144.666992188 88.3330078125 150.333007812 83.3330078125 155 76 c 0
 162.333007812 63.3330078125 170.333007812 47.3330078125 179 28 c 1
 153 28 l 1
110 101 m 2
 132.666992188 101 144.333007812 108.666992188 145 124 c 0
 145 138 135 145 115 145 c 2
 94 145 l 1
 94 101 l 1
 110 101 l 2
EndSplineSet
EndChar

StartChar: macron
Encoding: 175 175 110
Width: 89
GlyphClass: 2
Flags: HW
LayerCount: 2
Fore
SplineSet
77 161 m 1
 12 161 l 1
 12 175 l 1
 77 175 l 1
 77 161 l 1
EndSplineSet
EndChar

StartChar: degree
Encoding: 176 176 111
Width: 78
GlyphClass: 2
Flags: HW
LayerCount: 2
Fore
SplineSet
68 184.5 m 128
 68 172.010742188 59.3544921875 155 39 155 c 0
 25.3212890625 155 10 163.318359375 10 184 c 0
 10 196.061523438 18.3369140625 212 40 212 c 128
 55.8759765625 212 68 196.307617188 68 184.5 c 128
21 183 m 0
 21 179.771484375 25.3369140625 166 39 166 c 0
 43.2529296875 166 56 169.015625 56 183.5 c 128
 56 198.069335938 43.037109375 201 39.5 201 c 128
 38.0087890625 201 21 199.16015625 21 183 c 0
EndSplineSet
Substitution2: "'fwid' Full Widths lookup 4 subtable" degree.fwid
EndChar

StartChar: plusminus
Encoding: 177 177 112
Width: 166
GlyphClass: 2
Flags: HW
LayerCount: 2
Fore
SplineSet
92 45 m 1
 76 45 l 1
 76 99 l 1
 14 99 l 1
 14 113 l 1
 76 113 l 1
 76 164 l 1
 92 164 l 1
 92 113 l 1
 154 113 l 1
 154 99 l 1
 92 99 l 1
 92 45 l 1
154 18 m 1
 14 18 l 1
 14 33 l 1
 154 33 l 1
 154 18 l 1
EndSplineSet
Substitution2: "'fwid' Full Widths lookup 4 subtable" plusminus.fwid
EndChar

StartChar: u00B2
Encoding: 178 178 113
Width: 100
GlyphClass: 2
Flags: HW
LayerCount: 2
Fore
SplineSet
58 130 m 1
 54.8173828125 126.817382812 33.94140625 120.82421875 29 106 c 1
 86 106 l 1
 86 91 l 1
 14 91 l 1
 14 105 l 1
 17.3330078125 117.666992188 27 128.666992188 43 138 c 1
 49 142 l 1
 61.6669921875 148.666992188 68 155 68 161 c 0
 68 169.666992188 62.6669921875 174 52 174 c 128
 41.3330078125 174 33.6669921875 167.666992188 29 155 c 1
 15 163 l 1
 21.6669921875 180.333007812 34 188.666992188 52 188 c 0
 75.3046875 188 86 173.862304688 86 161 c 0
 86 148.333007812 76.6669921875 138 58 130 c 1
EndSplineSet
EndChar

StartChar: u00B3
Encoding: 179 179 114
Width: 99
GlyphClass: 2
Flags: HW
LayerCount: 2
Fore
SplineSet
86 116 m 0
 86 94.6582885136 62.5221604421 89 50 89 c 0
 30 89 17.3333333333 96 12 110 c 1
 27 117 l 1
 29.6666666667 107.666666667 37.3333333333 103 50 103 c 128
 62.6666666667 103 69 108.166666667 69 118.5 c 128
 69 128.833333333 61.6666666667 134 47 134 c 2
 38 134 l 1
 38 146 l 1
 46 146 l 2
 60.6666666667 146 67.6666666667 151 67 161 c 0
 67 170.333333333 61.3333333333 175 50 175 c 0
 40.6666666667 175 33.6666666667 169.666666667 29 159 c 1
 15 166 l 1
 21.6666666667 181.333333333 33.3333333333 189 50 189 c 0
 69.7793647516 189 84 177.593206094 84 162 c 0
 84 150 77.6666666667 143 65 141 c 1
 65 140 l 1
 79 136 86 128 86 116 c 0
EndSplineSet
EndChar

StartChar: acute
Encoding: 180 180 115
Width: 60
GlyphClass: 2
Flags: HW
LayerCount: 2
Fore
SplineSet
26 151 m 1
 10 151 l 1
 28 185 l 1
 52 185 l 1
 26 151 l 1
EndSplineSet
EndChar

StartChar: mu
Encoding: 181 181 116
AltUni2: 0003bc.ffffffff.0 0003bc.ffffffff.0
Width: 146
GlyphClass: 2
Flags: HW
LayerCount: 2
Fore
SplineSet
38 17 m 1
 38 -49 l 1
 17 -49 l 1
 17 130 l 1
 38 130 l 1
 38 50 l 1
 40 29.3330078125 50 19 68 19 c 128
 86 19 98.3330078125 30 105 52 c 1
 105 130 l 1
 127 130 l 1
 127 2 l 1
 107 2 l 1
 107 26 l 1
 98.3330078125 8.6669921875 85.6669921875 0 69 0 c 0
 55.6669921875 0 45.3330078125 5.6669921875 38 17 c 1
EndSplineSet
EndChar

StartChar: paragraph
Encoding: 182 182 117
Width: 128
GlyphClass: 2
Flags: HW
LayerCount: 2
Fore
SplineSet
7 166 m 0
 7 179.016601562 10.4765625 211 58 211 c 0
 110 211 110 211 110 211 c 1
 110 -16 l 1
 95 -16 l 1
 95 198 l 1
 66 198 l 1
 66 -16 l 1
 51 -16 l 1
 51 121 l 1
 41.451171875 122.060546875 7 128.48828125 7 166 c 0
EndSplineSet
Substitution2: "'fwid' Full Widths lookup 4 subtable" paragraph.fwid
EndChar

StartChar: periodcentered
Encoding: 183 183 118
AltUni2: 002219.ffffffff.0 002219.ffffffff.0
Width: 59
GlyphClass: 2
Flags: HW
LayerCount: 2
Fore
SplineSet
40 64 m 1
 12 64 l 1
 12 92 l 1
 40 92 l 1
 40 64 l 1
EndSplineSet
Substitution2: "'hwid' Half Widths lookup 5 subtable" uFF65
Substitution2: "'fwid' Full Widths lookup 4 subtable" u30FB
EndChar

StartChar: cedilla
Encoding: 184 184 119
Width: 71
GlyphClass: 2
Flags: HW
LayerCount: 2
Fore
SplineSet
10 -58 m 1
 10 -44 l 1
 32 -44 43 -40 43 -32 c 0
 43 -25.3330078125 34 -22 16 -22 c 1
 16 -16 l 1
 26 2 l 1
 42 2 l 1
 35 -12 l 1
 52.3330078125 -12.6669921875 61 -19.6669921875 61 -33 c 0
 61.6669921875 -49.6669921875 44.6669921875 -58 10 -58 c 1
EndSplineSet
EndChar

StartChar: u00B9
Encoding: 185 185 120
Width: 69
GlyphClass: 2
Flags: HW
LayerCount: 2
Fore
SplineSet
52 91 m 1
 34 91 l 1
 34 169 l 1
 26 165.666992188 18 163.333007812 10 162 c 1
 6 175 l 1
 18.6669921875 179 29 183.333007812 37 188 c 1
 52 188 l 1
 52 91 l 1
EndSplineSet
EndChar

StartChar: ordmasculine
Encoding: 186 186 121
Width: 112
GlyphClass: 2
Flags: HW
LayerCount: 2
Fore
SplineSet
98 74 m 1
 14 74 l 1
 14 86 l 1
 98 86 l 1
 98 74 l 1
99 144.5 m 128
 99 92.5166015625 45.568359375 89.0322265625 24 111.5 c 128
 16 119.833007812 12 130.666992188 12 144 c 0
 12 152.931640625 14.5 190 56 190 c 0
 86.7705078125 190 99 164.69140625 99 144.5 c 128
55 176 m 128
 37.3994140625 176 32 156.821289062 32 144 c 0
 32 124 40 114 56 114 c 128
 72 114 80 124 80 144 c 0
 80 148.389648438 79.0439453125 176 55 176 c 128
EndSplineSet
EndChar

StartChar: guillemotright
Encoding: 187 187 122
Width: 123
GlyphClass: 2
Flags: HW
LayerCount: 2
Fore
SplineSet
73 22 m 1
 61 29 l 1
 92 78 l 2
 92.6669921875 78 82.3330078125 94 61 126 c 1
 73 134 l 1
 114 78 l 1
 73 22 l 1
24 22 m 1
 12 29 l 1
 44 78 l 1
 12 126 l 1
 24 134 l 1
 66 78 l 1
 24 22 l 1
EndSplineSet
Substitution2: "'hwid' Half Widths lookup 5 subtable" guillemotright.hwid
Substitution2: "'fwid' Full Widths lookup 4 subtable" u300B
EndChar

StartChar: onequarter
Encoding: 188 188 123
Width: 189
GlyphClass: 2
Flags: HW
LayerCount: 2
Fore
SplineSet
169 2 m 1
 153 2 l 1
 153 22 l 1
 102 22 l 1
 102 36 l 1
 149 102 l 1
 169 102 l 1
 169 35 l 1
 185 35 l 1
 185 21 l 1
 169 21 l 1
 169 2 l 1
31 -5 m 1
 21 3 l 1
 158 192 l 1
 169 184 l 1
 31 -5 l 1
51 91 m 1
 33 91 l 1
 33 169 l 1
 24.3330078125 165.666992188 16 163.333007812 8 162 c 1
 5 175 l 1
 17.6669921875 179 28 183.333007812 36 188 c 1
 51 188 l 1
 51 91 l 1
153 35 m 1
 153 84 l 1
 152 84 l 1
 148 77.3330078125 144 71.6669921875 140 67 c 2
 118 35 l 1
 153 35 l 1
EndSplineSet
EndChar

StartChar: onehalf
Encoding: 189 189 124
Width: 198
GlyphClass: 2
Flags: HW
LayerCount: 2
Fore
SplineSet
51 91 m 1
 33 91 l 1
 33 169 l 1
 24.3330078125 165.666992188 16 163.333007812 8 162 c 1
 5 175 l 1
 17.6669921875 179 28 183.333007812 36 188 c 1
 51 188 l 1
 51 91 l 1
154 100 m 0
 154.553710938 100 188 99.880859375 188 71 c 128
 188 59.6669921875 179 49.6669921875 161 41 c 2
 155 38 l 2
 143.666992188 32.6669921875 136.333007812 26 133 18 c 1
 188 18 l 1
 188 2 l 1
 116 2 l 1
 116 17 l 1
 120 30.3330078125 130 41.3330078125 146 50 c 2
 151 53 l 2
 163.666992188 59.6669921875 170 66 170 72 c 0
 170 80.6669921875 164.666992188 85 154 85 c 128
 143.333007812 85 135.666992188 79 131 67 c 1
 117 74 l 1
 123.666992188 91.3330078125 136 100 154 100 c 0
31 -5 m 1
 21 3 l 1
 158 192 l 1
 169 184 l 1
 31 -5 l 1
EndSplineSet
EndChar

StartChar: threequarters
Encoding: 190 190 125
Width: 201
GlyphClass: 2
Flags: HW
LayerCount: 2
Fore
SplineSet
84 116 m 0
 84 94.658203125 60.5224609375 89 48 89 c 0
 28 89 15.3330078125 96 10 110 c 1
 25 117 l 1
 27.6669921875 107.666992188 35.3330078125 103 48 103 c 128
 60.6669921875 103 67 108.166992188 67 118.5 c 128
 67 128.833007812 59.6669921875 134 45 134 c 2
 36 134 l 1
 36 146 l 1
 44 146 l 2
 58.6669921875 146 65.6669921875 151 65 161 c 0
 65 170.333007812 59.3330078125 175 48 175 c 0
 38.6669921875 175 31.6669921875 169.666992188 27 159 c 1
 13 166 l 1
 19.6669921875 181.333007812 31.3330078125 189 48 189 c 0
 67.779296875 189 82 177.592773438 82 162 c 0
 82 150 75.6669921875 143 63 141 c 1
 63 140 l 1
 77 136 84 128 84 116 c 0
42 -5 m 1
 32 3 l 1
 170 192 l 1
 180 184 l 1
 42 -5 l 1
180 2 m 1
 165 2 l 1
 165 22 l 1
 114 22 l 1
 114 36 l 1
 160 102 l 1
 180 102 l 1
 180 35 l 1
 197 35 l 1
 197 21 l 1
 180 21 l 1
 180 2 l 1
165 35 m 1
 165 84 l 1
 164 84 l 1
 160 77.3330078125 156 71.6669921875 152 67 c 2
 130 35 l 1
 165 35 l 1
EndSplineSet
EndChar

StartChar: questiondown
Encoding: 191 191 126
Width: 131
GlyphClass: 2
Flags: HW
LayerCount: 2
Fore
SplineSet
66 -1 m 0
 33.392578125 -1 11 18.7060546875 11 47 c 0
 11 70.5 25.6171875 82.6806640625 38 93 c 2
 48 102 l 2
 56.6669921875 109.333007812 61 119.666992188 61 133 c 2
 61 139 l 1
 80 139 l 1
 80 131 l 2
 80 114.333007812 73.6669921875 100 61 88 c 0
 37.294921875 67.6806640625 33.119140625 59.533203125 33.5 48.5 c 128
 34.251953125 26.6962890625 51.095703125 17 66 17 c 0
 87.3330078125 17.6669921875 101.333007812 30.6669921875 108 56 c 1
 127 51 l 1
 124.333007812 36.3330078125 119 25 111 17 c 0
 99 5 84 -1 66 -1 c 0
83 158 m 1
 58 158 l 1
 58 185 l 1
 83 185 l 1
 83 158 l 1
EndSplineSet
Substitution2: "'hwid' Half Widths lookup 5 subtable" questiondown.hwid
EndChar

StartChar: AE
Encoding: 198 198 133
Width: 229
GlyphClass: 2
Flags: HW
LayerCount: 2
Fore
SplineSet
221 2 m 1
 127 2 l 1
 118 59 l 1
 55 59 l 1
 55 58.3330078125 47.3330078125 39.3330078125 32 2 c 1
 6 2 l 1
 86 185 l 1
 217 185 l 1
 217 166 l 1
 123 166 l 1
 133 106 l 1
 207 106 l 1
 207 88 l 1
 135 88 l 1
 135.666992188 88 139.333007812 66 146 22 c 1
 221 22 l 1
 221 2 l 1
115 77 m 1
 115 77 110.333007812 106.666992188 101 168 c 1
 100 168 l 1
 62 77 l 1
 115 77 l 1
EndSplineSet
EndChar

StartChar: Eth
Encoding: 208 208 143
Width: 192
GlyphClass: 2
Flags: HW
LayerCount: 2
Fore
SplineSet
79 2 m 2
 26 2 l 1
 26 87 l 1
 7 87 l 1
 7 104 l 1
 26 104 l 1
 26 185 l 1
 81 185 l 2
 107 185.666992188 127.666992188 180.666992188 143 170 c 0
 167 154 179 128.333007812 179 93 c 128
 179 57.6669921875 166 32 140 16 c 0
 124.666992188 6.6669921875 104.333007812 2 79 2 c 2
77 22 m 2
 129 22 155 46 155 94 c 128
 155 142 129.333007812 166 78 166 c 2
 48 166 l 1
 48 104 l 1
 90 104 l 1
 90 87 l 1
 48 87 l 1
 48 22 l 1
 77 22 l 2
EndSplineSet
EndChar

StartChar: multiply
Encoding: 215 215 150
Width: 129
GlyphClass: 2
Flags: HW
LayerCount: 2
Fore
SplineSet
20 27 m 1
 10 37 l 1
 54 82 l 1
 10 126 l 1
 20 137 l 1
 65 92 l 1
 109 136 l 1
 120 126 l 1
 76 82 l 1
 120 38 l 1
 109 27 l 1
 65 71 l 1
 20 27 l 1
EndSplineSet
Substitution2: "'nalt' Alternate Annotation Forms lookup 6 subtable" multiply.fwid.1
Substitution2: "'fwid' Full Widths lookup 4 subtable" multiply.fwid
EndChar

StartChar: Oslash
Encoding: 216 216 151
Width: 197
GlyphClass: 2
Flags: HW
LayerCount: 2
Fore
SplineSet
28 -3 m 2
 27.3330078125 -3 23.6669921875 -0.3330078125 17 5 c 1
 36 27 l 1
 20 45.6669921875 12 68.5 12 95.5 c 128
 12 122.5 19.8330078125 144.833007812 35.5 162.5 c 128
 51.1669921875 180.166992188 72 189 98 189 c 0
 116.666992188 189 134 183.666992188 150 173 c 1
 164 191 l 1
 174 182 l 1
 159 164 l 1
 176.333007812 145.333007812 185 122 185 94 c 128
 185 66 177 43.1669921875 161 25.5 c 128
 145 7.8330078125 124.333007812 -1 99 -1 c 0
 79 -1 61 5.3330078125 45 18 c 1
 28 -3 l 2
99 170 m 0
 61.7958984375 170 37 139.841796875 37 93.5 c 128
 37 74.5 41 58.3330078125 49 45 c 1
 137 156 l 1
 126.333007812 165.333007812 113.666992188 170 99 170 c 0
99 18 m 0
 121.666992188 18 138.333007812 27.6669921875 149 47 c 0
 157 60.3330078125 161 76.8330078125 161 96.5 c 128
 161 116.166992188 156 133 146 147 c 1
 58 35 l 1
 69.3330078125 23.6669921875 83 18 99 18 c 0
EndSplineSet
EndChar

StartChar: Thorn
Encoding: 222 222 157
Width: 153
GlyphClass: 2
Flags: HW
LayerCount: 2
Fore
SplineSet
142 100.5 m 128
 142 75.8505859375 126.392578125 44.3203125 76 46 c 1
 41 46 l 1
 41 2 l 1
 19 2 l 1
 19 185 l 1
 41 185 l 1
 41 154 l 1
 77 154 l 2
 113.96484375 154 142 134.534179688 142 100.5 c 128
70 64 m 2
 102.666992188 64 119 76.3330078125 119 101 c 0
 119 124.333007812 104 136 74 136 c 2
 41 136 l 1
 41 64 l 1
 70 64 l 2
EndSplineSet
EndChar

StartChar: germandbls
Encoding: 223 223 158
Width: 136
GlyphClass: 2
Flags: HW
LayerCount: 2
Fore
SplineSet
126 52 m 0
 126 27.0908203125 110.16796875 0 76 0 c 0
 66.6669921875 0 57.6669921875 1.3330078125 49 4 c 1
 54 22 l 1
 60.6669921875 19.3330078125 67.3330078125 17.6669921875 74 17 c 0
 92.634765625 17 104 35.802734375 104 52 c 0
 104 76 89.6669921875 89.6669921875 61 93 c 1
 61 107 l 1
 84.3330078125 110.333007812 96 122.666992188 96 144 c 0
 96 160.728515625 83.673828125 170.978515625 67.5 171.5 c 128
 49.255859375 172.088867188 39 152.098632812 39 127 c 2
 39 2 l 1
 17 2 l 1
 17 129 l 2
 17 147 21.6669921875 161.5 31 172.5 c 128
 40.3330078125 183.5 53 189 69 189 c 0
 88.7744140625 189 118.221679688 178.985351562 117 146 c 0
 117 124.666992188 106.333007812 110 85 102 c 1
 85 101 l 1
 93.6669921875 98.3330078125 100.333007812 95.3330078125 105 92 c 0
 119 81.3330078125 126 68 126 52 c 0
EndSplineSet
Substitution2: "'hwid' Half Widths lookup 5 subtable" germandbls.hwid
EndChar

StartChar: ae
Encoding: 230 230 165
Width: 222
GlyphClass: 2
Flags: HW
LayerCount: 2
Fore
SplineSet
115 64 m 1
 113.280273438 29.603515625 137.10546875 17 159.5 17 c 128
 174.5 17 186.666992188 24.3330078125 196 39 c 1
 210 29 l 1
 198.666992188 9 180.833007812 -1 156.5 -1 c 128
 132.166992188 -1 114.666992188 9 104 29 c 1
 92.6669921875 9 75.6669921875 -1 53 -1 c 0
 29.98828125 -1 10 13.1708984375 10 38 c 0
 10 64.6669921875 32.6669921875 78.6669921875 78 80 c 1
 95 81 l 1
 95 87 l 2
 95 106.333007812 85.6669921875 116 67 116 c 0
 52.3330078125 116 41.6669921875 109 35 95 c 1
 16 104 l 1
 28 123.333007812 45.3330078125 133 68 133 c 0
 87.3330078125 133 101 125.666992188 109 111 c 1
 119.666992188 125.666992188 134 133.333007812 152 134 c 0
 174 134 190.333007812 125 201 107 c 0
 207.666992188 96.3330078125 210.666992188 83.6669921875 210 69 c 2
 210 64 l 1
 115 64 l 1
32 38 m 0
 32 22.9443359375 45.580078125 16 57 16 c 0
 69.6669921875 16 80.3330078125 21.3330078125 89 32 c 0
 93.6669921875 38 96 45.3330078125 96 54 c 2
 96 65 l 1
 82 65 l 2
 48.6669921875 65 32 56 32 38 c 0
188 80 m 1
 187.494140625 86.0732421875 183.375976562 117 152 117 c 0
 135.631835938 117 119.533203125 104.729492188 116 80 c 1
 188 80 l 1
EndSplineSet
EndChar

StartChar: eth
Encoding: 240 240 175
Width: 150
GlyphClass: 2
Flags: HW
LayerCount: 2
Fore
SplineSet
93 166 m 1
 112.787109375 150.169921875 139 116.783203125 139 72.5 c 128
 139 54.1669921875 135 38.6669921875 127 26 c 0
 115 8 97.6669921875 -1 75 -1 c 0
 34.0087890625 -1 10 28.6611328125 10 63.5 c 128
 10 81.8330078125 14.3330078125 96.6669921875 23 108 c 0
 34.3330078125 124 50.6669921875 132 72 132 c 0
 86 132 98.3330078125 127.333007812 109 118 c 1
 110 120 l 1
 102.666992188 134.666992188 91.6669921875 147.333007812 77 158 c 1
 31 135 l 1
 25 148 l 1
 64 167 l 1
 57.3330078125 170.333007812 48.3330078125 173.333007812 37 176 c 1
 48 190 l 1
 60.6669921875 186.666992188 71.6669921875 182 81 176 c 0
 81.6669921875 176 90.6669921875 180.666992188 108 190 c 1
 114 176 l 1
 93 166 l 1
75.5 116 m 128
 53.2080078125 116 34 96.9990234375 34 66 c 0
 34 56.6669921875 35.3330078125 48.6669921875 38 42 c 0
 45.3330078125 24.6669921875 57.6669921875 16 75 16 c 0
 101.84375 16 118 40.072265625 118 69 c 128
 118 101.866210938 95.26953125 116 75.5 116 c 128
EndSplineSet
EndChar

StartChar: divide
Encoding: 247 247 182
Width: 163
GlyphClass: 2
Flags: HW
LayerCount: 2
Fore
SplineSet
81 109 m 128
 71.048828125 109 65 117.181640625 65 126 c 128
 65 135.951171875 73.181640625 142 82 142 c 128
 91.951171875 142 98 133.818359375 98 125 c 128
 98 115.048828125 89.818359375 109 81 109 c 128
81 20 m 128
 71.048828125 20 65 28.181640625 65 37 c 128
 65 46.4287109375 72.572265625 54 82 54 c 128
 91.6064453125 54 98 46.35546875 98 36.5 c 128
 98 25.3740234375 89.2314453125 20 81 20 c 128
152 74 m 1
 12 74 l 1
 12 89 l 1
 152 89 l 1
 152 74 l 1
EndSplineSet
Substitution2: "'fwid' Full Widths lookup 4 subtable" divide.fwid
EndChar

StartChar: oslash
Encoding: 248 248 183
Width: 152
GlyphClass: 2
Flags: HW
LayerCount: 2
Fore
SplineSet
25.6416015625 -2 m 1
 15.6416015625 6 l 1
 27.6416015625 20 l 1
 -6.1201171875 62.2021484375 12.2822265625 134 75.6416015625 134 c 0
 88.974609375 134 101.641601562 130 113.641601562 122 c 1
 125.641601562 135 l 1
 134.641601562 127 l 1
 123.641601562 113 l 1
 134.307617188 99.6669921875 139.641601562 83.8330078125 139.641601562 65.5 c 128
 139.641601562 47.1669921875 134.307617188 32 123.641601562 20 c 0
 111.641601562 6 95.6416015625 -1 75.6416015625 -1 c 0
 60.974609375 -1 47.974609375 3 36.6416015625 11 c 1
 25.6416015625 -2 l 1
75.6416015625 117 m 0
 48.4560546875 117 33.6416015625 91.70703125 33.6416015625 67.5 c 128
 33.6416015625 55.1669921875 35.974609375 44.6669921875 40.6416015625 36 c 1
 101.641601562 107 l 1
 94.3076171875 113.666992188 85.6416015625 117 75.6416015625 117 c 0
77.6416015625 16 m 128
 101.520507812 16 117.641601562 39.482421875 117.641601562 64.5 c 128
 117.641601562 77.5 115.307617188 88.3330078125 110.641601562 97 c 1
 49.6416015625 26 l 1
 56.974609375 19.3330078125 66.3076171875 16 77.6416015625 16 c 128
EndSplineSet
EndChar

StartChar: thorn
Encoding: 254 254 189
Width: 154
GlyphClass: 2
Flags: HW
LayerCount: 2
Fore
SplineSet
40 -49 m 1
 19 -49 l 1
 19 192 l 1
 40 192 l 1
 40 108 l 1
 51.3330078125 125.333007812 66.3330078125 134 85 134 c 128
 103.666992188 134 118.333007812 126.333007812 129 111 c 0
 137.666992188 99 142 84.5 142 67.5 c 128
 142 50.5 138.666992188 36 132 24 c 0
 120.666992188 6.6669921875 105 -1.6669921875 85 -1 c 0
 67.6669921875 -1 52.6669921875 6.3330078125 40 21 c 1
 40 -49 l 1
120 65 m 128
 120 91.626953125 106.1328125 117.323242188 81 116 c 0
 61.6669921875 116 48 103.333007812 40 78 c 1
 40 49 l 1
 48 27 61.6669921875 16 81 16 c 0
 105.907226562 16 120 38.8154296875 120 65 c 128
EndSplineSet
EndChar

StartChar: Aogonek
Encoding: 260 260 195
Width: 174
GlyphClass: 2
Flags: HW
LayerCount: 2
Fore
SplineSet
141 -58 m 0
 123 -58 114 -50.6669921875 114 -36 c 0
 114 -26.6669921875 120.333007812 -17 133 -7 c 1
 133 -7.6669921875 136.666992188 -4.6669921875 144 2 c 1
 124 57 l 1
 50 57 l 1
 50 56.3330078125 43.3330078125 38 30 2 c 1
 6 2 l 1
 78 186 l 1
 97 186 l 1
 168 2 l 1
 151 -12 l 2
 141 -20 136 -26.6669921875 136 -32 c 0
 136 -38.6669921875 140.333007812 -42 149 -42 c 0
 155.666992188 -42 163.333007812 -39.6669921875 172 -35 c 1
 172 -49 l 1
 161.333007812 -55 151 -58 141 -58 c 0
117 75 m 1
 99 123 l 2
 93.6669921875 138.333007812 89.6669921875 150.666992188 87 160 c 1
 84.3330078125 150.666992188 80.3330078125 138.333007812 75 123 c 0
 74.3330078125 123 68 107 56 75 c 1
 117 75 l 1
EndSplineSet
EndChar

StartChar: aogonek
Encoding: 261 261 196
Width: 130
GlyphClass: 2
Flags: HW
LayerCount: 2
Fore
SplineSet
52 -1 m 0
 28.98828125 -1 9 13.1708984375 9 38 c 0
 9 64.6669921875 31.6669921875 78.6669921875 77 80 c 1
 94 81 l 1
 94 87 l 2
 94 106.333007812 84.6669921875 116 66 116 c 0
 51.3330078125 116 40.6669921875 109 34 95 c 1
 15 104 l 1
 27 123.333007812 44.3330078125 133 67 133 c 0
 83.6669921875 133 96 128 104 118 c 0
 110.666992188 110 114 99.6669921875 114 87 c 2
 114 40 l 2
 114 22.6669921875 116.666992188 10 122 2 c 1
 100.666992188 -14.6669921875 90 -26.1669921875 90 -32.5 c 128
 90 -38.8330078125 94.3330078125 -42 103 -42 c 0
 109 -42 116.666992188 -39.6669921875 126 -35 c 1
 126 -49 l 1
 115.333007812 -55 105 -58 95 -58 c 0
 77 -58 68 -50.6669921875 68 -36 c 0
 68.6669921875 -25.3330078125 75.6669921875 -15 89 -5 c 0
 97.6669921875 1 101 4 101 4 c 1
 98.3330078125 9.3330078125 97 15.3330078125 97 22 c 1
 96 22 l 1
 86 6.6669921875 71.3330078125 -1 52 -1 c 0
31 38 m 0
 31 22.9443359375 44.580078125 16 56 16 c 0
 68.6669921875 16 79.3330078125 21.3330078125 88 32 c 0
 92.6669921875 38 95 45.3330078125 95 54 c 2
 95 65 l 1
 81 65 l 1
 43.8037109375 63.4501953125 31 55.404296875 31 38 c 0
EndSplineSet
EndChar

StartChar: dcaron
Encoding: 271 271 206
Width: 178
GlyphClass: 2
Flags: HW
LayerCount: 2
Fore
SplineSet
157 140 m 1
 143 140 l 1
 156 192 l 1
 176 192 l 1
 157 140 l 1
10 65 m 128
 10 105.887695312 32.287109375 134 66 134 c 128
 84.6669921875 134 100 127 112 113 c 1
 112 192 l 1
 134 192 l 1
 134 2 l 1
 114 2 l 1
 114 25 l 1
 102 7.6669921875 87 -1 69 -1 c 128
 28.51171875 -1 10 33.9013671875 10 65 c 128
112 86 m 1
 110.119140625 91.6416015625 100.358398438 116 72 116 c 0
 60 116 49.294921875 111.506835938 42 101 c 0
 28.0810546875 80.9521484375 32.4013671875 50.5966796875 42 35 c 0
 48.6669921875 23 58.6669921875 17 72 17 c 0
 90 17 103.333007812 28 112 50 c 1
 112 86 l 1
EndSplineSet
EndChar

StartChar: Dcroat
Encoding: 272 272 207
Width: 192
GlyphClass: 2
Flags: HW
LayerCount: 2
Fore
SplineSet
79 2 m 2
 26 2 l 1
 26 87 l 1
 7 87 l 1
 7 104 l 1
 26 104 l 1
 26 185 l 1
 81 185 l 2
 107 185.666992188 127.666992188 180.666992188 143 170 c 0
 167 154 179 128.333007812 179 93 c 128
 179 57.6669921875 166 32 140 16 c 0
 124.666992188 6.6669921875 104.333007812 2 79 2 c 2
77 22 m 2
 129 22 155 46 155 94 c 128
 155 142 129.333007812 166 78 166 c 2
 48 166 l 1
 48 104 l 1
 90 104 l 1
 90 87 l 1
 48 87 l 1
 48 22 l 1
 77 22 l 2
EndSplineSet
EndChar

StartChar: dcroat
Encoding: 273 273 208
Width: 153
GlyphClass: 2
Flags: HW
LayerCount: 2
Fore
SplineSet
10 65 m 128
 10 105.887695312 32.287109375 134 66 134 c 128
 84.6669921875 134 100 127 112 113 c 1
 112 153 l 1
 72 153 l 1
 72 168 l 1
 112 168 l 1
 112 192 l 1
 134 192 l 1
 134 168 l 1
 146 168 l 1
 146 153 l 1
 134 153 l 1
 134 2 l 1
 114 2 l 1
 114 25 l 1
 102 7.6669921875 87 -1 69 -1 c 128
 28.51171875 -1 10 33.9013671875 10 65 c 128
112 86 m 1
 110.119140625 91.6416015625 100.358398438 116 72 116 c 0
 60 116 49.294921875 111.506835938 42 101 c 0
 28.0810546875 80.9521484375 32.4013671875 50.5966796875 42 35 c 0
 48.6669921875 23 58.6669921875 17 72 17 c 0
 90 17 103.333007812 28 112 50 c 1
 112 86 l 1
EndSplineSet
EndChar

StartChar: Eogonek
Encoding: 280 280 215
Width: 143
GlyphClass: 2
Flags: HW
LayerCount: 2
Fore
SplineSet
67 -58 m 0
 49 -58 40 -50.6669921875 40 -36 c 0
 40 -26 46 -16.3330078125 58 -7 c 1
 58 -7.6669921875 62 -4.6669921875 70 2 c 1
 18 2 l 1
 18 185 l 1
 131 185 l 1
 131 166 l 1
 40 166 l 1
 40 106 l 1
 121 106 l 1
 121 88 l 1
 40 88 l 1
 40 22 l 1
 135 22 l 1
 135 2 l 1
 93 2 l 1
 77 -12 l 2
 67 -20 61.6669921875 -26.6669921875 61 -32 c 0
 61 -38.6669921875 65.6669921875 -42 75 -42 c 0
 81 -42 88.6669921875 -39.6669921875 98 -35 c 1
 98 -49 l 1
 87.3330078125 -55 77 -58 67 -58 c 0
EndSplineSet
EndChar

StartChar: eogonek
Encoding: 281 281 216
Width: 142
GlyphClass: 2
Flags: HW
LayerCount: 2
Fore
SplineSet
72.5 134 m 128
 111.565429688 134 130 100.831054688 130 69 c 2
 130 64 l 1
 33 64 l 1
 33 53.3330078125 35.3330078125 44.3330078125 40 37 c 0
 48 23.6669921875 60.3330078125 16.8330078125 77 16.5 c 128
 93.6669921875 16.1669921875 106.333007812 23.3330078125 115 38 c 1
 130 29 l 1
 121.333007812 13.6669921875 108 4 90 0 c 1
 76 -12 l 2
 66 -20 61 -26.6669921875 61 -32 c 0
 61 -38.6669921875 65.3330078125 -42 74 -42 c 0
 80.6669921875 -42 88.6669921875 -39.6669921875 98 -35 c 1
 98 -49 l 1
 86.6669921875 -55 76 -58 66 -58 c 0
 48 -58 39 -50.6669921875 39 -36 c 0
 39 -26.6669921875 45.3330078125 -17 58 -7 c 2
 66 0 l 1
 47.3330078125 2.6669921875 33.3330078125 10 24 22 c 128
 14.6669921875 34 10 48.6669921875 10 66 c 128
 10 83.3330078125 14.6669921875 98 24 110 c 0
 35.3330078125 126 51.5 134 72.5 134 c 128
108 80 m 1
 107.333007812 88.6669921875 104.666992188 96 100 102 c 0
 93.3330078125 112 83.8330078125 117 71.5 117 c 128
 51.6650390625 117 37.39453125 102.067382812 34 80 c 1
 108 80 l 1
EndSplineSet
EndChar

StartChar: gcircumflex
Encoding: 285 285 220
Width: 133
GlyphClass: 2
Flags: HW
LayerCount: 2
Fore
SplineSet
11 86.5 m 128
 11 118.635742188 38.568359375 133 61 133 c 128
 72.3330078125 133 82 130.666992188 90 126 c 1
 96 134 107 138 123 138 c 1
 123 120 l 1
 111 120 103.666992188 119.333007812 101 118 c 1
 109.666992188 109.333007812 114 98.3330078125 114 85 c 128
 114 71.6669921875 108.666992188 61 98 53 c 0
 90 46.3330078125 79.3330078125 43.3330078125 66 44 c 0
 59.3330078125 44 52.3330078125 44.6669921875 45 46 c 1
 37 44.6669921875 33 41.3330078125 33 36 c 0
 33 28 43.3330078125 23.6669921875 64 23 c 0
 64 22.3330078125 68.6669921875 22 78 22 c 0
 109.333007812 20.6669921875 125 9.6669921875 125 -11 c 0
 125 -31.9296875 104.923828125 -50 66 -50 c 128
 48 -50 34.3330078125 -47.3330078125 25 -42 c 0
 13.6669921875 -36 7.6669921875 -27.6669921875 7 -17 c 0
 7 -3.6669921875 16.6669921875 5.3330078125 36 10 c 1
 36 11 l 1
 20.6669921875 14.3330078125 13 21.3330078125 13 32 c 0
 13 40.6669921875 19.6669921875 47.3330078125 33 52 c 1
 18.3330078125 58.6669921875 11 70.1669921875 11 86.5 c 128
99 150 m 1
 83 150 l 1
 64 170 l 1
 45 150 l 1
 29 150 l 1
 54 185 l 1
 75 185 l 1
 99 150 l 1
65 -35 m 0
 77 -35 86.5 -32.8330078125 93.5 -28.5 c 128
 100.5 -24.1669921875 104 -18.6669921875 104 -12 c 0
 104 0.6669921875 90.3330078125 7 63 7 c 0
 40.3330078125 7 29 -0.3330078125 29 -15 c 0
 29 -28.3330078125 41 -35 65 -35 c 0
62 117 m 128
 46.9599609375 117 31.8837890625 105.127929688 32.5 88.5 c 128
 33.2216796875 69.0166015625 47.142578125 59 62.5 59 c 128
 67.73046875 59 93 60.4267578125 93 88 c 0
 93 113.302734375 71.484375 117 62 117 c 128
EndSplineSet
EndChar

StartChar: gbreve
Encoding: 287 287 222
Width: 133
GlyphClass: 2
Flags: HW
LayerCount: 2
Fore
SplineSet
100 181 m 1
 98 162.333007812 86.1669921875 153 64.5 153 c 128
 42.8330078125 153 31 162.333007812 29 181 c 1
 42 181 l 1
 44 171.666992188 51.5 167 64.5 167 c 128
 77.5 167 85 171.666992188 87 181 c 1
 100 181 l 1
114 87 m 128
 114 72.0029296875 105.659179688 44 65 44 c 0
 58.3330078125 44 52 44.6669921875 46 46 c 1
 37.3330078125 45.3330078125 33 42 33 36 c 0
 33 28 43 23.6669921875 63 23 c 2
 78 22 l 2
 109.333007812 20.6669921875 125 9.3330078125 125 -12 c 0
 125 -22.6669921875 120 -31.3330078125 110 -38 c 0
 99.3330078125 -46 84.8330078125 -50 66.5 -50 c 128
 48.1669921875 -50 33.6669921875 -47 23 -41 c 128
 12.3330078125 -35 7 -27 7 -17 c 0
 7 -3.6669921875 16.6669921875 5.3330078125 36 10 c 1
 36 11 l 1
 20.6669921875 15 13 21.6669921875 13 31 c 128
 13 40.3330078125 19.6669921875 47.3330078125 33 52 c 1
 18.3330078125 59.3330078125 11 71 11 87 c 0
 11 99.6669921875 15.5 110.5 24.5 119.5 c 0
 34.1669921875 128.5 47 133 63 133 c 0
 73.6669921875 133 82.6669921875 130.666992188 90 126 c 1
 96 134 107 138 123 138 c 1
 123 120 l 1
 111.666992188 120 104.333007812 119.333007812 101 118 c 1
 109.666992188 109.333007812 114 99 114 87 c 128
65 -35 m 0
 81 -35 92.3330078125 -31.3330078125 99 -24 c 0
 102.333007812 -20 104 -16 104 -12 c 0
 104 0.6669921875 90.3330078125 6.6669921875 63 6 c 0
 40.3330078125 6 29 -1 29 -15 c 0
 29 -28.3330078125 41 -35 65 -35 c 0
62.5 117 m 128
 42.6865234375 117 33 102.46875 33 87.5 c 128
 33 72.5869140625 42.416015625 59 63 59 c 128
 83.58203125 59 93 72.5849609375 93 87.5 c 128
 93 103.416992188 81.517578125 117 62.5 117 c 128
EndSplineSet
EndChar

StartChar: gdotaccent
Encoding: 289 289 224
Width: 134
GlyphClass: 2
Flags: HW
LayerCount: 2
Fore
SplineSet
77 157 m 1
 52 157 l 1
 52 183 l 1
 77 183 l 1
 77 157 l 1
115 87 m 128
 115 72.0029296875 106.659179688 44 66 44 c 0
 59.3330078125 44 53 44.6669921875 47 46 c 1
 38.3330078125 45.3330078125 34 42 34 36 c 0
 34 28 44 23.6669921875 64 23 c 2
 79 22 l 2
 110.333007812 20.6669921875 126 9.3330078125 126 -12 c 0
 126 -22.6669921875 121 -31.3330078125 111 -38 c 0
 100.333007812 -46 85.8330078125 -50 67.5 -50 c 128
 49.1669921875 -50 34.6669921875 -47 24 -41 c 128
 13.3330078125 -35 8 -27 8 -17 c 0
 8 -3.6669921875 17.6669921875 5.3330078125 37 10 c 1
 37 11 l 1
 21.6669921875 15 14 21.6669921875 14 31 c 128
 14 40.3330078125 20.6669921875 47.3330078125 34 52 c 1
 19.3330078125 59.3330078125 12 71 12 87 c 0
 12 99.6669921875 16.5 110.5 25.5 119.5 c 0
 35.1669921875 128.5 48 133 64 133 c 0
 74.6669921875 133 83.6669921875 130.666992188 91 126 c 1
 97 134 108 138 124 138 c 1
 124 120 l 1
 112.666992188 120 105.333007812 119.333007812 102 118 c 1
 110.666992188 109.333007812 115 99 115 87 c 128
66 -35 m 0
 82 -35 93.3330078125 -31.3330078125 100 -24 c 0
 103.333007812 -20 105 -16 105 -12 c 0
 105 0.6669921875 91.3330078125 6.6669921875 64 6 c 0
 41.3330078125 6 30 -1 30 -15 c 0
 30 -28.3330078125 42 -35 66 -35 c 0
63.5 117 m 128
 43.6865234375 117 34 102.46875 34 87.5 c 128
 34 72.5869140625 43.416015625 59 64 59 c 128
 84.58203125 59 94 72.5849609375 94 87.5 c 128
 94 103.416992188 82.517578125 117 63.5 117 c 128
EndSplineSet
EndChar

StartChar: u0123
Encoding: 291 291 226
Width: 133
GlyphClass: 2
Flags: HW
LayerCount: 2
Fore
SplineSet
70 201 m 1
 84 201 l 1
 71 150 l 1
 51 150 l 1
 70 201 l 1
114 87 m 128
 114 72.0029296875 105.659179688 44 65 44 c 0
 58.3330078125 44 52 44.6669921875 46 46 c 1
 37.3330078125 45.3330078125 33 42 33 36 c 0
 33 28 43 23.6669921875 63 23 c 2
 78 22 l 2
 109.333007812 20.6669921875 125 9.3330078125 125 -12 c 0
 125 -22.6669921875 120 -31.3330078125 110 -38 c 0
 99.3330078125 -46 84.8330078125 -50 66.5 -50 c 128
 48.1669921875 -50 33.6669921875 -47 23 -41 c 128
 12.3330078125 -35 7 -27 7 -17 c 0
 7 -3.6669921875 16.6669921875 5.3330078125 36 10 c 1
 36 11 l 1
 20.6669921875 15 13 21.6669921875 13 31 c 128
 13 40.3330078125 19.6669921875 47.3330078125 33 52 c 1
 18.3330078125 59.3330078125 11 71 11 87 c 0
 11 99.6669921875 15.5 110.5 24.5 119.5 c 0
 34.1669921875 128.5 47 133 63 133 c 0
 73.6669921875 133 82.6669921875 130.666992188 90 126 c 1
 96 134 107 138 123 138 c 1
 123 120 l 1
 111.666992188 120 104.333007812 119.333007812 101 118 c 1
 109.666992188 109.333007812 114 99 114 87 c 128
65 -35 m 0
 81 -35 92.3330078125 -31.3330078125 99 -24 c 0
 102.333007812 -20 104 -16 104 -12 c 0
 104 0.6669921875 90.3330078125 6.6669921875 63 6 c 0
 40.3330078125 6 29 -1 29 -15 c 0
 29 -28.3330078125 41 -35 65 -35 c 0
62.5 117 m 128
 42.6865234375 117 33 102.46875 33 87.5 c 128
 33 72.5869140625 42.416015625 59 63 59 c 128
 83.58203125 59 93 72.5849609375 93 87.5 c 128
 93 103.416992188 81.517578125 117 62.5 117 c 128
EndSplineSet
EndChar

StartChar: Hbar
Encoding: 294 294 229
Width: 186
GlyphClass: 2
Flags: HW
LayerCount: 2
Fore
SplineSet
44 147 m 1
 44 107 l 1
 142 107 l 1
 142 147 l 1
 44 147 l 1
164 147 m 1
 164 2 l 1
 142 2 l 1
 142 88 l 1
 44 88 l 1
 44 2 l 1
 21 2 l 1
 21 147 l 1
 4 147 l 1
 4 162 l 1
 21 162 l 1
 21 185 l 1
 44 185 l 1
 44 162 l 1
 142 162 l 1
 142 185 l 1
 164 185 l 1
 164 162 l 1
 182 162 l 1
 182 147 l 1
 164 147 l 1
EndSplineSet
EndChar

StartChar: hbar
Encoding: 295 295 230
Width: 145
GlyphClass: 2
Flags: HW
LayerCount: 2
Fore
SplineSet
130 2 m 1
 108 2 l 1
 108 82 l 2
 108 103.333007812 99 114 81 114 c 128
 63 114 50 103.333007812 42 82 c 1
 42 2 l 1
 20 2 l 1
 20 153 l 1
 5 153 l 1
 5 168 l 1
 20 168 l 1
 20 192 l 1
 42 192 l 1
 42 168 l 1
 80 168 l 1
 80 153 l 1
 42 153 l 1
 42 108 l 1
 52.6669921875 124 67 132.333007812 85 133 c 0
 114.333007812 133 129.333007812 116.333007812 130 83 c 2
 130 2 l 1
EndSplineSet
EndChar

StartChar: Iogonek
Encoding: 302 302 237
Width: 73
GlyphClass: 2
Flags: HW
LayerCount: 2
Fore
SplineSet
55 2 m 1
 38 -12 l 2
 28 -20 23 -26.6669921875 23 -32 c 0
 23 -38.6669921875 27.6669921875 -42 37 -42 c 0
 43.6669921875 -42 51.3330078125 -39.6669921875 60 -35 c 1
 60 -49 l 1
 49.3330078125 -55 39 -58 29 -58 c 0
 11 -58 2 -50.6669921875 2 -36 c 0
 2 -25.3330078125 8 -15.6669921875 20 -7 c 1
 20 -7.6669921875 24 -4.6669921875 32 2 c 1
 32 185 l 1
 55 185 l 1
 55 2 l 1
EndSplineSet
EndChar

StartChar: iogonek
Encoding: 303 303 238
Width: 74
GlyphClass: 2
Flags: HW
LayerCount: 2
Fore
SplineSet
57 157 m 1
 32 157 l 1
 32 183 l 1
 57 183 l 1
 57 157 l 1
56 2 m 1
 39 -12 l 2
 29 -20 24 -26.6669921875 24 -32 c 0
 24 -38.6669921875 28.3330078125 -42 37 -42 c 0
 43.6669921875 -42 51.6669921875 -39.6669921875 61 -35 c 1
 61 -49 l 1
 50.3330078125 -55 39.6669921875 -58 29 -58 c 0
 11 -58 2 -50.6669921875 2 -36 c 0
 2 -25.3330078125 8 -15.6669921875 20 -7 c 1
 20 -7.6669921875 24.6669921875 -4.6669921875 34 2 c 1
 34 130 l 1
 56 130 l 1
 56 2 l 1
EndSplineSet
EndChar

StartChar: dotlessi
Encoding: 305 305 240
Width: 57
GlyphClass: 2
Flags: HW
HStem: 2 21G<17 39> 110 20G<17 39>
VStem: 17 22<2 130>
LayerCount: 2
Fore
SplineSet
39 2 m 1
 17 2 l 1
 17 130 l 1
 39 130 l 1
 39 2 l 1
EndSplineSet
EndChar

StartChar: IJ
Encoding: 306 306 241
Width: 159
GlyphClass: 3
Flags: HW
LayerCount: 2
Fore
SplineSet
98 -1 m 0
 86 -1 74.3330078125 2 63 8 c 1
 71 26 l 1
 79 20.6669921875 87.3330078125 18 96 18 c 0
 110.666992188 18 118 28 118 48 c 2
 118 185 l 1
 141 185 l 1
 141 49 l 2
 140.333007812 15.6669921875 126 -1 98 -1 c 0
42 2 m 1
 19 2 l 1
 19 185 l 1
 42 185 l 1
 42 2 l 1
EndSplineSet
EndChar

StartChar: ij
Encoding: 307 307 242
Width: 127
GlyphClass: 3
Flags: HW
LayerCount: 2
Fore
SplineSet
54 -32 m 1
 77.82421875 -28.5966796875 86 -16.580078125 86 6 c 2
 86 130 l 1
 108 130 l 1
 108 6 l 2
 108 -36.1162109375 86.3759765625 -46.193359375 61 -50 c 1
 54 -32 l 1
110 157 m 1
 85 157 l 1
 85 183 l 1
 110 183 l 1
 110 157 l 1
40 2 m 1
 18 2 l 1
 18 130 l 1
 40 130 l 1
 40 2 l 1
41 157 m 1
 16 157 l 1
 16 183 l 1
 41 183 l 1
 41 157 l 1
EndSplineSet
EndChar

StartChar: kgreenlandic
Encoding: 312 312 247
Width: 129
GlyphClass: 2
Flags: HW
LayerCount: 2
Fore
SplineSet
124 2 m 1
 97 2 l 1
 53 64 l 1
 39 50 l 1
 39 2 l 1
 17 2 l 1
 17 130 l 1
 39 130 l 1
 39 71 l 1
 38.3330078125 71 56 90.6669921875 92 130 c 1
 120 130 l 1
 67 77 l 1
 124 2 l 1
EndSplineSet
EndChar

StartChar: Lcaron
Encoding: 317 317 252
Width: 135
GlyphClass: 2
Flags: HW
LayerCount: 2
Fore
SplineSet
86 134 m 1
 72 134 l 1
 85 185 l 1
 105 185 l 1
 86 134 l 1
128 2 m 1
 19 2 l 1
 19 185 l 1
 41 185 l 1
 41 23 l 1
 128 23 l 1
 128 2 l 1
EndSplineSet
EndChar

StartChar: lcaron
Encoding: 318 318 253
Width: 83
GlyphClass: 2
Flags: HW
LayerCount: 2
Fore
SplineSet
40 36 m 2
 40 22.6669921875 44.6669921875 16.3330078125 54 17 c 2
 56 17 l 1
 56 0 l 1
 49 0 l 2
 28.3330078125 0 18 11 18 33 c 2
 18 192 l 1
 40 192 l 1
 40 36 l 2
61 140 m 1
 47 140 l 1
 60 192 l 1
 81 192 l 1
 61 140 l 1
EndSplineSet
EndChar

StartChar: Lslash
Encoding: 321 321 256
Width: 146
GlyphClass: 2
Flags: HW
LayerCount: 2
Fore
SplineSet
139 2 m 1
 30 2 l 1
 30 85 l 2
 30 85.6669921875 24.3330078125 82 13 74 c 1
 5 88 l 1
 30 104 l 1
 30 185 l 1
 52 185 l 1
 52 116 l 1
 90 142 l 1
 98 128 l 1
 52 98 l 1
 52 23 l 1
 139 23 l 1
 139 2 l 1
EndSplineSet
EndChar

StartChar: lslash
Encoding: 322 322 257
Width: 80
GlyphClass: 2
Flags: HW
LayerCount: 2
Fore
SplineSet
50 36 m 2
 50 22.6669921875 54.6669921875 16.3330078125 64 17 c 2
 66 17 l 1
 66 0 l 1
 59 0 l 2
 38.3330078125 0 28 11 28 33 c 2
 28 91 l 1
 13 80 l 1
 5 92 l 1
 28 109 l 1
 28 192 l 1
 50 192 l 1
 50 124 l 1
 67 136 l 1
 74 123 l 1
 50 106 l 1
 50 36 l 2
EndSplineSet
EndChar

StartChar: Eng
Encoding: 330 330 265
Width: 183
GlyphClass: 2
Flags: HW
LayerCount: 2
Fore
SplineSet
164 6 m 2
 164 -32.310546875 146.69140625 -45.9970703125 112 -50 c 1
 106 -32 l 1
 130.323242188 -30.7197265625 140.672851562 -19.89453125 142 4 c 1
 62 126 l 2
 56 135.333007812 48.6669921875 148 40 164 c 1
 39 164 l 1
 40.3330078125 136 40.6669921875 114.333007812 40 99 c 2
 40 2 l 1
 18 2 l 1
 18 185 l 1
 49 185 l 1
 48.3330078125 185 71.3330078125 149.666992188 118 79 c 0
 127.333007812 65 135.333007812 51.6669921875 142 39 c 1
 144 39 l 1
 142.666992188 63.6669921875 142 83.6669921875 142 99 c 2
 142 185 l 1
 164 185 l 1
 164 6 l 2
EndSplineSet
EndChar

StartChar: eng
Encoding: 331 331 266
Width: 143
GlyphClass: 2
Flags: HW
LayerCount: 2
Fore
SplineSet
69 -32 m 1
 95.4580078125 -30.607421875 105 -18.2607421875 105 7 c 2
 105 82 l 2
 105 103.333007812 96 114 78 114 c 0
 59.3330078125 114 46 103.333007812 38 82 c 1
 38 2 l 1
 17 2 l 1
 17 130 l 1
 37 130 l 1
 37 107 l 1
 49 123.666992188 64.3330078125 132.333007812 83 133 c 0
 112.333007812 133 127 116.333007812 127 83 c 2
 127 6 l 2
 127 -28.08984375 114.602539062 -45.4306640625 75 -50 c 1
 69 -32 l 1
EndSplineSet
EndChar

StartChar: OE
Encoding: 338 338 273
Width: 248
GlyphClass: 2
Flags: HW
LayerCount: 2
Fore
SplineSet
98 -1 m 0
 68 -1 45 10.3330078125 29 33 c 0
 17 49.6669921875 11 70.6669921875 11 96 c 128
 11 121.333007812 18 142.666992188 32 160 c 0
 48 179.333007812 69.6669921875 189 97 189 c 0
 106.333007812 189 115.333007812 187.666992188 124 185 c 1
 236 185 l 1
 236 166 l 1
 148 166 l 1
 148 106 l 1
 226 106 l 1
 226 88 l 1
 148 88 l 1
 148 22 l 1
 240 22 l 1
 240 2 l 1
 125 2 l 1
 115 -0.6669921875 106 -1.6669921875 98 -1 c 0
36 94 m 0
 36 80.859375 39.0791015625 18 98 18 c 0
 108 18 117.333007812 20 126 24 c 1
 126 164 l 1
 117.333007812 168.666992188 108 170.666992188 98 170 c 0
 61.9326171875 170 36 139.161132812 36 94 c 0
EndSplineSet
EndChar

StartChar: oe
Encoding: 339 339 274
Width: 244
GlyphClass: 2
Flags: HW
LayerCount: 2
Fore
SplineSet
135 64 m 1
 135 36.2080078125 152.923828125 16 180.5 16 c 128
 196.166992188 16 208.333007812 23.3330078125 217 38 c 1
 232 29 l 1
 220.666992188 9 202.333007812 -1 177 -1 c 0
 154.333007812 -1 137.333007812 8 126 26 c 1
 114 8 97.6669921875 -1 77 -1 c 0
 40.1318359375 0.189453125 10 23.556640625 10 67 c 0
 10 81.6669921875 13.3330078125 94 20 104 c 0
 32 123.333007812 50.3330078125 133.333007812 75 134 c 0
 97 134 114 124.666992188 126 106 c 1
 136.666992188 124 152.833007812 133.166992188 174.5 133.5 c 128
 196.166992188 133.833007812 212 125 222 107 c 0
 228 96.3330078125 231.333007812 83.6669921875 232 69 c 2
 232 64 l 1
 135 64 l 1
209 80 m 1
 208.537109375 86.01171875 204.643554688 117 173.5 117 c 128
 150.608398438 117 138.693359375 96.158203125 136 80 c 1
 209 80 l 1
42 97 m 0
 23.546875 67.0126953125 35.201171875 17.423828125 74 16.5 c 128
 104.446289062 15.775390625 115 43.8095703125 115 66.5 c 128
 115 79.5 112.333007812 90.3330078125 107 99 c 0
 99 111 88 117 74 117 c 0
 60.6669921875 117 50 110.333007812 42 97 c 0
EndSplineSet
EndChar

StartChar: tcaron
Encoding: 357 357 292
Width: 98
GlyphClass: 2
Flags: HW
LayerCount: 2
Fore
SplineSet
78 144 m 1
 65 144 l 1
 77 194 l 1
 97 194 l 1
 78 144 l 1
54 0 m 0
 34 0 24 11.3330078125 24 34 c 2
 24 114 l 1
 7 114 l 1
 7 130 l 1
 24 130 l 1
 24 159 l 1
 45 169 l 1
 45 130 l 1
 80 130 l 1
 80 114 l 1
 45 114 l 1
 45 36 l 2
 45 5.8974609375 69.5283203125 19.146484375 76 24 c 1
 83 10 l 1
 74.3330078125 3.3330078125 64.6669921875 0 54 0 c 0
EndSplineSet
EndChar

StartChar: Tbar
Encoding: 358 358 293
Width: 166
GlyphClass: 2
Flags: HW
LayerCount: 2
Fore
SplineSet
93 86 m 1
 93 2 l 1
 70 2 l 1
 70 86 l 1
 27 86 l 1
 27 100 l 1
 70 100 l 1
 70 166 l 1
 5 166 l 1
 5 185 l 1
 161 185 l 1
 161 166 l 1
 93 166 l 1
 93 100 l 1
 138 100 l 1
 138 86 l 1
 93 86 l 1
EndSplineSet
EndChar

StartChar: tbar
Encoding: 359 359 294
Width: 95
GlyphClass: 2
Flags: HW
LayerCount: 2
Fore
SplineSet
26 86 m 1
 10 86 l 1
 10 100 l 1
 26 100 l 1
 26 114 l 1
 9 114 l 1
 9 130 l 1
 26 130 l 1
 26 159 l 1
 47 169 l 1
 47 130 l 1
 82 130 l 1
 82 114 l 1
 47 114 l 1
 47 100 l 1
 80 100 l 1
 80 86 l 1
 47 86 l 1
 47 36 l 1
 45.333409796 2.66819591904 76.2857482165 22.8571654776 78 24 c 1
 85 10 l 1
 75.6666666667 3.33333333333 66 0 56 -0 c 0
 36 0 26 11 26 33 c 2
 26 86 l 1
EndSplineSet
EndChar

StartChar: Uogonek
Encoding: 370 370 305
Width: 180
GlyphClass: 2
Flags: HW
LayerCount: 2
Fore
SplineSet
106 -1 m 1
 106 -3.6943359375 78 -19.404296875 78 -32 c 0
 78 -38.6669921875 82.3330078125 -42 91 -42 c 0
 97.6669921875 -42 105.666992188 -39.6669921875 115 -35 c 1
 115 -49 l 1
 104.333007812 -55 93.6669921875 -58 83 -58 c 0
 65 -58 56 -50.6669921875 56 -36 c 0
 56 -25.3330078125 62 -15.6669921875 74 -7 c 2
 81 -2 l 1
 57.6669921875 -0.6669921875 40 8.3330078125 28 25 c 0
 20.6669921875 35 16.6669921875 48.6669921875 16 66 c 2
 16 185 l 1
 38 185 l 1
 38 68 l 2
 38 54 41.3330078125 43.3330078125 48 36 c 0
 58 23.3330078125 72 17 90 17 c 128
 108 17 121.666992188 23 131 35 c 0
 137.666992188 43 140.666992188 54 140 68 c 2
 140 185 l 1
 163 185 l 1
 163 65 l 2
 163 47.6669921875 158.666992188 34 150 24 c 0
 140 10 125.333007812 1.6669921875 106 -1 c 1
EndSplineSet
EndChar

StartChar: uogonek
Encoding: 371 371 306
Width: 142
GlyphClass: 2
Flags: HW
LayerCount: 2
Fore
SplineSet
59 0 m 0
 40.80859375 0 15 7.490234375 15 50 c 2
 15 130 l 1
 37 130 l 1
 37 51 l 2
 37 29.6669921875 46 19 64 19 c 128
 82 19 95 30 103 52 c 1
 103 130 l 1
 125 130 l 1
 125 2 l 1
 110 -12 l 2
 100 -20 95 -26.6669921875 95 -32 c 0
 95 -38.6669921875 99.3330078125 -42 108 -42 c 0
 114.666992188 -42 122.666992188 -39.6669921875 132 -35 c 1
 132 -49 l 1
 121.333007812 -55 110.666992188 -58 100 -58 c 0
 82 -58 73 -50.6669921875 73 -36 c 0
 73 -25.3330078125 79 -15.6669921875 91 -7 c 1
 91 -7.6669921875 95.6669921875 -4.6669921875 105 2 c 1
 105 26 l 1
 93 8.6669921875 77.6669921875 0 59 0 c 0
EndSplineSet
EndChar

StartChar: longs
Encoding: 383 383 318
Width: 93
GlyphClass: 2
Flags: HW
LayerCount: 2
Fore
SplineSet
39 2 m 1
 18 2 l 1
 18 146 l 2
 18 160 21.3330078125 171 28 179 c 0
 36 188.333007812 46.6669921875 193.333007812 60 194 c 0
 70.6669921875 194 80.6669921875 191 90 185 c 1
 81 170 l 1
 74.3330078125 174.666992188 68 177 62 177 c 0
 47.3330078125 177 39.6669921875 167 39 147 c 2
 39 2 l 1
EndSplineSet
EndChar

StartChar: u0180
Encoding: 384 384 319
Width: 157
GlyphClass: 2
Flags: HW
LayerCount: 2
Fore
SplineSet
88 134 m 0
 118.509765625 134 146.17578125 110.404296875 145.5 66.5 c 128
 145.166992188 44.8330078125 139 27.6669921875 127 15 c 0
 116.333007812 4.3330078125 102.666992188 -1 86 -1 c 128
 69.3330078125 -1 55 6.3330078125 43 21 c 1
 39 2 l 1
 22 2 l 1
 22 153 l 1
 4 153 l 1
 4 168 l 1
 22 168 l 1
 22 192 l 1
 44 192 l 1
 44 168 l 1
 78 168 l 1
 78 153 l 1
 44 153 l 1
 44 109 l 1
 55.3330078125 125 70 133.333007812 88 134 c 0
44 50 m 2
 44 34.55078125 61.7880859375 16 85 16 c 128
 105.436523438 16 123.126953125 33.9208984375 122.5 64 c 128
 121.748046875 100.08984375 102.298828125 116 84.5 116 c 128
 61.5185546875 116 44 92.994140625 44 80 c 2
 44 50 l 2
EndSplineSet
EndChar

StartChar: u0181
Encoding: 385 385 320
Width: 193
GlyphClass: 2
Flags: HW
LayerCount: 2
Fore
SplineSet
182 54 m 0
 182 20.20703125 152.580078125 2 114 2 c 2
 54 2 l 1
 54 167 l 1
 43 167 l 2
 29.6669921875 167 23 163.666992188 23 157 c 0
 23 153 25.3330078125 149 30 145 c 1
 16 139 l 1
 9.3330078125 147 6 154.666992188 6 162 c 0
 6 178 17.3330078125 185.666992188 40 185 c 2
 106 185 l 2
 118.146484375 185 176 184.948242188 176 140 c 0
 176 116.666992188 163 102.666992188 137 98 c 1
 137 97 l 1
 167 92.3330078125 182 78 182 54 c 0
104 106 m 2
 136.666992188 106 152.666992188 116.333007812 152 137 c 0
 152 157 136.333007812 167 105 167 c 2
 76 167 l 1
 76 106 l 1
 104 106 l 2
159 55 m 0
 159 87.6416015625 112.705078125 89 105 89 c 2
 76 89 l 1
 76 21 l 1
 110 21 l 2
 142 21 158.333007812 32.3330078125 159 55 c 0
EndSplineSet
EndChar

StartChar: u0182
Encoding: 386 386 321
Width: 157
GlyphClass: 2
Flags: HW
LayerCount: 2
Fore
SplineSet
42 21 m 1
 76 21 l 2
 108 20.3330078125 124 32 124 56 c 0
 124 82 106.666992188 95 72 95 c 2
 42 95 l 1
 42 21 l 1
19 185 m 1
 134 185 l 1
 134 166 l 1
 42 166 l 1
 42 113 l 1
 76 113 l 2
 123.333007812 113 147 94 147 56 c 0
 147 20 124 2 78 2 c 2
 19 2 l 1
 19 185 l 1
EndSplineSet
EndChar

StartChar: u0183
Encoding: 387 387 322
Width: 154
GlyphClass: 2
Flags: HW
LayerCount: 2
Fore
SplineSet
85 134 m 0
 115.509765625 134 143.17578125 110.404296875 142.5 66.5 c 128
 142.166992188 44.8330078125 136 27.6669921875 124 15 c 0
 113.333007812 4.3330078125 99.6669921875 -1 83 -1 c 128
 66.3330078125 -1 52 6.3330078125 40 21 c 1
 36 2 l 1
 19 2 l 1
 19 192 l 1
 127 192 l 1
 127 172 l 1
 41 172 l 1
 41 109 l 1
 52.3330078125 125 67 133.333007812 85 134 c 0
41 50 m 2
 41 34.55078125 58.7880859375 16 82 16 c 128
 102.436523438 16 120.126953125 33.9208984375 119.5 64 c 128
 118.748046875 100.08984375 99.298828125 116 81.5 116 c 128
 58.5185546875 116 41 92.994140625 41 80 c 2
 41 50 l 2
EndSplineSet
EndChar

StartChar: u0184
Encoding: 388 388 323
Width: 159
GlyphClass: 2
Flags: HW
LayerCount: 2
Fore
SplineSet
21 145 m 1
 3 163 l 1
 11.6669921875 171 17.6669921875 178.333007812 21 185 c 1
 44 185 l 1
 44 113 l 1
 78 113 l 2
 125.333007812 113 149 94 149 56 c 0
 149 20 126 2 80 2 c 2
 21 2 l 1
 21 145 l 1
74 95 m 2
 44 95 l 1
 44 21 l 1
 78 21 l 2
 110 20.3330078125 126 32 126 56 c 0
 126 81.3330078125 108.666992188 94.3330078125 74 95 c 2
EndSplineSet
EndChar

StartChar: u0185
Encoding: 389 389 324
Width: 156
GlyphClass: 2
Flags: HW
LayerCount: 2
Fore
SplineSet
87 134 m 0
 117.509765625 134 145.17578125 110.404296875 144.5 66.5 c 128
 144.166992188 44.8330078125 138 27.6669921875 126 15 c 0
 115.333007812 4.3330078125 101.666992188 -1 85 -1 c 128
 68.3330078125 -1 54 6.3330078125 42 21 c 1
 38 2 l 1
 21 2 l 1
 21 152 l 1
 3 169 l 1
 11 177 17 184.666992188 21 192 c 1
 43 192 l 1
 43 109 l 1
 54.3330078125 125 69 133.333007812 87 134 c 0
43 50 m 2
 43 34.55078125 60.7880859375 16 84 16 c 128
 104.436523438 16 122.126953125 33.9208984375 121.5 64 c 128
 120.748046875 100.08984375 101.298828125 116 83.5 116 c 128
 60.5185546875 116 43 92.994140625 43 80 c 2
 43 50 l 2
EndSplineSet
EndChar

StartChar: u0186
Encoding: 390 390 325
Width: 177
GlyphClass: 2
Flags: HW
LayerCount: 2
Fore
SplineSet
79 18 m 0
 110.745117188 18 141 43.8916015625 141 92.5 c 128
 141 114.833007812 135.666992188 132.666992188 125 146 c 0
 113 161.333007812 97.3330078125 169 78 169 c 0
 53.3330078125 169 35.6669921875 157.666992188 25 135 c 1
 7 144 l 1
 11.6669921875 154.666992188 18 163.666992188 26 171 c 0
 40.6669921875 183 58 189 78 189 c 0
 131.24609375 189 165 149.360351562 165 94 c 128
 165 66 156.833007812 43.1669921875 140.5 25.5 c 128
 124.166992188 7.8330078125 103.666992188 -1 79 -1 c 0
 45 -1 21.3330078125 13.6669921875 8 43 c 1
 28 52 l 1
 38 29.3330078125 55 18 79 18 c 0
EndSplineSet
EndChar

StartChar: u0187
Encoding: 391 391 326
Width: 202
GlyphClass: 2
Flags: HW
LayerCount: 2
Fore
SplineSet
98 -1 m 0
 44.75390625 -1 11 38.6396484375 11 94 c 128
 11 122 19.3330078125 144.833007812 36 162.5 c 128
 52.6669921875 180.166992188 73 189 97 189 c 0
 117.666992188 189 134.333007812 183.666992188 147 173 c 1
 147 178 l 2
 146.333007812 200.666992188 155.333007812 212 174 212 c 0
 183.333007812 212 192.666992188 208.666992188 202 202 c 1
 195 188 l 1
 190.333007812 192.666992188 185.333007812 194.666992188 180 194 c 0
 172 194 168 187.333007812 168 174 c 2
 168 143 l 1
 148 136 l 1
 138 158.666992188 121.333007812 170 98 170 c 0
 66.2548828125 170 36 144.108398438 36 95.5 c 128
 36 73.1669921875 41 55.3330078125 51 42 c 0
 62.3330078125 26.6669921875 78 19 98 19 c 0
 122 19 139.666992188 30.3330078125 151 53 c 0
 151 53.6669921875 157.333007812 50.6669921875 170 44 c 1
 165.251953125 33.146484375 146.461914062 -1 98 -1 c 0
EndSplineSet
EndChar

StartChar: u0188
Encoding: 392 392 327
Width: 166
GlyphClass: 2
Flags: HW
LayerCount: 2
Fore
SplineSet
10 66.5 m 0
 10 102.055664062 34.1982421875 132.5078125 73 134 c 0
 86.3330078125 134 97.6669921875 130.666992188 107 124 c 1
 107 135 l 2
 107 157.666992188 116.333007812 168.666992188 135 168 c 0
 144.333007812 168 153.333007812 164.666992188 162 158 c 1
 155 144 l 1
 150.333007812 148.666992188 145.333007812 151 140 151 c 0
 132 151 128 144.333007812 128 131 c 2
 128 99 l 1
 108 92 l 1
 100.666992188 108 89.3330078125 116 74 116 c 0
 54.904296875 116 33 101.157226562 33 67 c 128
 33 27.6171875 60.5888671875 17 76 17 c 0
 92 17 104 25 112 41 c 1
 129 31 l 1
 117.666992188 9 99.3330078125 -1.6669921875 74 -1 c 0
 41.0068359375 -1 10 22.2861328125 10 66.5 c 0
EndSplineSet
EndChar

StartChar: u0189
Encoding: 393 393 328
Width: 192
GlyphClass: 2
Flags: HW
LayerCount: 2
Fore
SplineSet
79 2 m 2
 26 2 l 1
 26 87 l 1
 7 87 l 1
 7 104 l 1
 26 104 l 1
 26 185 l 1
 81 185 l 2
 107 185.666992188 127.666992188 180.666992188 143 170 c 0
 167 154 179 128.333007812 179 93 c 128
 179 57.6669921875 166 32 140 16 c 0
 124.666992188 6.6669921875 104.333007812 2 79 2 c 2
77 22 m 2
 129 22 155 46 155 94 c 128
 155 142 129.333007812 166 78 166 c 2
 48 166 l 1
 48 104 l 1
 90 104 l 1
 90 87 l 1
 48 87 l 1
 48 22 l 1
 77 22 l 2
EndSplineSet
EndChar

StartChar: u018A
Encoding: 394 394 329
Width: 221
GlyphClass: 2
Flags: HW
LayerCount: 2
Fore
SplineSet
110 185 m 2
 143.966796875 185 209 174.490234375 209 94 c 0
 209 59.3330078125 196.666992188 34 172 18 c 0
 156 7.3330078125 135 2 109 2 c 2
 55 2 l 1
 55 166 l 1
 43 166 l 2
 29.6669921875 166 23 162.333007812 23 155 c 0
 23 150.333007812 25.3330078125 145.666992188 30 141 c 1
 16 135 l 1
 9.3330078125 143 6 151.333007812 6 160 c 0
 6 177.333007812 17.3330078125 185.666992188 40 185 c 2
 110 185 l 2
78 166 m 1
 78 22 l 1
 107 22 l 2
 159 22 185 46 185 94 c 128
 185 142 159.333007812 166 108 166 c 2
 78 166 l 1
EndSplineSet
EndChar

StartChar: u018B
Encoding: 395 395 330
Width: 156
GlyphClass: 2
Flags: HW
LayerCount: 2
Fore
SplineSet
114 21 m 1
 114 95 l 1
 84 95 l 2
 49.3330078125 94.3330078125 32 81.3330078125 32 56 c 0
 32 32 48 20.3330078125 80 21 c 2
 114 21 l 1
137 185 m 1
 137 2 l 1
 79 2 l 2
 32.3330078125 2 9 20 9 56 c 0
 9 94 32.6669921875 113 80 113 c 2
 114 113 l 1
 114 166 l 1
 22 166 l 1
 22 185 l 1
 137 185 l 1
EndSplineSet
EndChar

StartChar: u018C
Encoding: 396 396 331
Width: 153
GlyphClass: 2
Flags: HW
LayerCount: 2
Fore
SplineSet
111.512695312 172 m 1
 25.5126953125 172 l 1
 25.5126953125 192 l 1
 133.512695312 192 l 1
 133.512695312 2 l 1
 113.512695312 2 l 1
 113.512695312 25 l 1
 101.512695312 7.6669921875 86.1796875 -1 67.5126953125 -1 c 0
 38.6611328125 -1 10.6943359375 22.2314453125 10.0126953125 66.5 c 0
 9.6796875 88.8330078125 15.845703125 106 28.5126953125 118 c 0
 39.1796875 128.666992188 52.5126953125 134 68.5126953125 134 c 128
 84.5126953125 134 98.845703125 126.666992188 111.512695312 112 c 1
 111.512695312 172 l 1
70.5126953125 116 m 128
 50.076171875 116 32.3857421875 98.0791015625 33.0126953125 68 c 128
 33.345703125 52 37.1796875 39.3330078125 44.5126953125 30 c 128
 51.845703125 20.6669921875 61.345703125 16 73.0126953125 16 c 128
 84.6796875 16 94.845703125 22.3330078125 103.512695312 35 c 0
 108.845703125 41.6669921875 111.512695312 47.3330078125 111.512695312 52 c 2
 111.512695312 84 l 2
 111.512695312 92.6669921875 106.1796875 100.666992188 95.5126953125 108 c 0
 88.1796875 113.333007812 79.845703125 116 70.5126953125 116 c 128
EndSplineSet
EndChar

StartChar: u018D
Encoding: 397 397 332
Width: 150
GlyphClass: 2
Flags: HW
LayerCount: 2
Fore
SplineSet
75 20 m 128
 90.572265625 20 116 33.46875 116 70 c 0
 116 86 112.166992188 98.5 104.5 107.5 c 128
 96.8330078125 116.5 86.8330078125 121 74.5 121 c 128
 50.1376953125 121 34 102.342773438 34 71 c 0
 34 35.5390625 57.4541015625 20 75 20 c 128
75 138 m 128
 132.646484375 138 139 87.580078125 139 73 c 128
 139 60.77734375 139 33.75 109 15 c 0
 99 9 89.3330078125 6 80 6 c 1
 94.6669921875 -3.3330078125 111 -15.6669921875 129 -31 c 1
 129 -49 l 1
 19 -49 l 1
 19 -31 l 1
 101 -31 l 1
 100.436523438 -30.587890625 48.9248046875 6.4609375 44.5 10 c 128
 30.4716796875 21.22265625 10 39.546875 10 71 c 0
 10 103.1328125 27.826171875 138 75 138 c 128
EndSplineSet
EndChar

StartChar: u018E
Encoding: 398 398 333
Width: 147
GlyphClass: 2
Flags: HW
LayerCount: 2
Fore
SplineSet
10 3 m 1
 10 22 l 1
 106 22 l 1
 106 88 l 1
 24 88 l 1
 24 106 l 1
 106 106 l 1
 106 166 l 1
 14 166 l 1
 14 186 l 1
 128 186 l 1
 128 3 l 1
 10 3 l 1
EndSplineSet
EndChar

StartChar: u018F
Encoding: 399 399 334
Width: 195
GlyphClass: 2
Flags: HW
LayerCount: 2
Fore
SplineSet
157 80 m 1
 35 80 l 1
 37.6669921875 60.6669921875 44.5 45.5 55.5 34.5 c 128
 66.5 23.5 79.8330078125 18 95.5 18 c 128
 124.739257812 18 152.705078125 39.9130859375 157 80 c 1
22 144 m 1
 27.4482421875 156.452148438 46.3408203125 189 95 189 c 0
 119.666992188 189.666992188 140 182 156 166 c 0
 174 148 182.833007812 124 182.5 94 c 128
 181.88671875 38.78125 148.866210938 -1 96 -1 c 128
 72 -1 52 6.6669921875 36 22 c 0
 18.6669921875 39.3330078125 10 63.3330078125 10 94 c 2
 10 99 l 1
 158 99 l 1
 157.333007812 121.666992188 150 140 136 154 c 0
 125.333007812 165.333007812 111.666992188 171 95 171 c 0
 71 171 53.3330078125 159 42 135 c 0
 42 134.333007812 35.3330078125 137.333007812 22 144 c 1
EndSplineSet
EndChar

StartChar: u0190
Encoding: 400 400 335
Width: 145
GlyphClass: 2
Flags: HW
LayerCount: 2
Fore
SplineSet
32 53.5 m 128
 32 44.8251953125 35.17578125 19 73 19 c 0
 95 19 110.666992188 27.6669921875 120 45 c 1
 139 35 l 1
 125.666992188 11 103.666992188 -1 73 -1 c 0
 52.3330078125 -1 36.6669921875 4 26 14 c 128
 15.3330078125 24 10 36.3330078125 10 51 c 0
 10 76.3330078125 25 91.6669921875 55 97 c 1
 55 98 l 1
 7.32421875 103.959960938 2.703125 153.821289062 30 176 c 128
 40.6669921875 184.666992188 55 189 73 189 c 0
 101 189 121 176.666992188 133 152 c 1
 114 143 l 1
 105.333007812 161 91.6669921875 170 73 170 c 0
 65.44921875 170 36 168.252929688 36 141 c 128
 36 116.926757812 58.236328125 107 80 107 c 2
 91 107 l 1
 91 88 l 1
 81 88 l 2
 59.302734375 88 32 76.8154296875 32 53.5 c 128
EndSplineSet
EndChar

StartChar: u0191
Encoding: 401 401 336
Width: 149
GlyphClass: 2
Flags: HW
LayerCount: 2
Fore
SplineSet
1 -44 m 1
 21.916015625 -42.6923828125 29 -35.3583984375 29 -14 c 2
 29 185 l 1
 144 185 l 1
 144 166 l 1
 52 166 l 1
 52 106 l 1
 133 106 l 1
 133 88 l 1
 52 88 l 1
 52 -13 l 2
 52 -44.3330078125 37.6669921875 -60.3330078125 9 -61 c 1
 1 -44 l 1
EndSplineSet
EndChar

StartChar: florin
Encoding: 402 402 337
Width: 105
GlyphClass: 2
Flags: HW
LayerCount: 2
Fore
SplineSet
2 -44 m 1
 23.6923828125 -42.5537109375 30 -33.318359375 30 -14 c 2
 30 114 l 1
 9 114 l 1
 9 130 l 1
 30 130 l 1
 30 146 l 2
 30 160 33.3330078125 171 40 179 c 0
 48 188.333007812 58.6669921875 193.333007812 72 194 c 0
 82.6669921875 194 92.6669921875 191 102 185 c 1
 93 170 l 1
 86.3330078125 174.666992188 80 177 74 177 c 0
 59.3330078125 177 51.6669921875 167 51 147 c 2
 51 130 l 1
 86 130 l 1
 86 114 l 1
 51 114 l 1
 51 -13 l 2
 51 -44.3330078125 37.3330078125 -60.3330078125 10 -61 c 1
 2 -44 l 1
EndSplineSet
EndChar

StartChar: u0193
Encoding: 403 403 338
Width: 202
GlyphClass: 2
Flags: HW
LayerCount: 2
Fore
SplineSet
172 32 m 1
 167.625 25.875 145.819335938 -1 100 -1 c 0
 73.3330078125 -1 50.599609375 7.9638671875 33 27 c 0
 17.9326171875 43.2978515625 11 66 11 94 c 128
 11 122 19.5 144.833007812 36.5 162.5 c 128
 53.5 180.166992188 73.6669921875 189 97 189 c 0
 116.333007812 189 133 183 147 171 c 1
 147 178 l 2
 147 200.666992188 156 211.666992188 174 211 c 0
 183.333007812 211 192.666992188 207.666992188 202 201 c 1
 195 187 l 1
 190.333007812 191.666992188 185.333007812 194 180 194 c 0
 172 194 168 187.333007812 168 174 c 2
 168 142 l 1
 148 135 l 1
 138 157.666992188 121.333007812 169 98 169 c 0
 58.4697265625 169 36 135.548828125 36 95 c 128
 36 73.6669921875 40.6669921875 56.6669921875 50 44 c 0
 62.6669921875 27.3330078125 79.8330078125 18.8330078125 101.5 18.5 c 128
 123.166992188 18.1669921875 139.666992188 25 151 39 c 1
 151 74 l 1
 110 74 l 1
 110 92 l 1
 172 92 l 1
 172 32 l 1
EndSplineSet
EndChar

StartChar: u0194
Encoding: 404 404 339
Width: 170
GlyphClass: 2
Flags: HW
LayerCount: 2
Fore
SplineSet
97 8 m 1
 101.671875 -0.0087890625 111.565429688 -18.9130859375 110 -33 c 0
 110 -48.65625 100.188476562 -61 85 -61 c 128
 69.810546875 -61 60 -48.6552734375 60 -33 c 0
 60 -15.45703125 68.333984375 0.001953125 73 8 c 1
 4 185 l 1
 29 185 l 1
 72 71 l 2
 77.3330078125 55.6669921875 81.6669921875 42.3330078125 85 31 c 1
 86 31 l 1
 89.3330078125 43.6669921875 93.6669921875 57 99 71 c 2
 142 185 l 1
 167 185 l 1
 167 184.333007812 143.666992188 125.333007812 97 8 c 1
85 -42 m 128
 92 -42 92 -34.857421875 92 -32 c 0
 92 -27.1298828125 89.546875 -19.6103515625 85 -9 c 1
 83.3095703125 -11.53515625 78 -20.34765625 78 -31 c 0
 78 -35.92578125 79.1796875 -42 85 -42 c 128
EndSplineSet
EndChar

StartChar: u0195
Encoding: 405 405 340
Width: 234
GlyphClass: 2
Flags: HW
LayerCount: 2
Fore
SplineSet
130 63 m 2
 130 54.8603515625 131.708984375 17 163.5 17 c 128
 173.833007812 17 182 21.3330078125 188 30 c 0
 194 39.3330078125 197 51.3330078125 197 66 c 2
 197 130 l 1
 218 130 l 1
 218 63 l 2
 218 39.298828125 211.098632812 -2 163 -2 c 128
 142.333007812 -2 127.333007812 6 118 22 c 0
 111.333007812 32.6669921875 108 46.3330078125 108 63 c 2
 108 82 l 2
 108 103.333007812 99 114 81 114 c 128
 63 114 49.6669921875 103.333007812 41 82 c 1
 41 2 l 1
 19 2 l 1
 19 192 l 1
 41 192 l 1
 41 108 l 1
 52.3330078125 124 67.3330078125 132.333007812 86 133 c 0
 115.333007812 133 130 116.333007812 130 83 c 2
 130 63 l 2
EndSplineSet
EndChar

StartChar: u0196
Encoding: 406 406 341
Width: 92
GlyphClass: 2
Flags: HW
LayerCount: 2
Fore
SplineSet
54 -1 m 0
 29.3330078125 -1 17 15.6669921875 17 49 c 2
 17 185 l 1
 40 185 l 1
 40 48 l 2
 40 28 45.6669921875 18 57 18 c 0
 64.3330078125 18 72 20.6669921875 80 26 c 1
 88 8 l 1
 76.6669921875 2 65.3330078125 -1 54 -1 c 0
EndSplineSet
EndChar

StartChar: u0197
Encoding: 407 407 342
Width: 82
GlyphClass: 2
Flags: HW
LayerCount: 2
Fore
SplineSet
51 87 m 1
 51 2 l 1
 28 2 l 1
 28 87 l 1
 7 87 l 1
 7 104 l 1
 28 104 l 1
 28 185 l 1
 51 185 l 1
 51 104 l 1
 73 104 l 1
 73 87 l 1
 51 87 l 1
EndSplineSet
EndChar

StartChar: u0198
Encoding: 408 408 343
Width: 171
GlyphClass: 2
Flags: HW
LayerCount: 2
Fore
SplineSet
114 174 m 2
 130 190 144 192 156 180 c 0
 161.333007812 174.666992188 164.333007812 166.666992188 165 156 c 1
 151 151 l 1
 151 162.564453125 144.651367188 175.651367188 126 157 c 2
 77 108 l 1
 161 2 l 1
 131 2 l 1
 62 94 l 1
 42 74 l 1
 42 2 l 1
 19 2 l 1
 19 185 l 1
 42 185 l 1
 42 102 l 1
 114 174 l 2
EndSplineSet
EndChar

StartChar: u0199
Encoding: 409 409 344
Width: 129
GlyphClass: 2
Flags: HW
LayerCount: 2
Fore
SplineSet
18 158 m 2
 18 180.666992188 27.3330078125 192 46 192 c 0
 55.3330078125 192 64.6669921875 188.666992188 74 182 c 1
 67 168 l 1
 61.6669921875 172.666992188 56.6669921875 175 52 175 c 0
 44 175 40 168.333007812 40 155 c 2
 40 71 l 1
 39.3330078125 71 57 90.6669921875 93 130 c 1
 121 130 l 1
 68 77 l 2
 68 76.3330078125 87 51.3330078125 125 2 c 1
 98 2 l 1
 54 64 l 1
 40 50 l 1
 40 2 l 1
 18 2 l 1
 18 158 l 2
EndSplineSet
EndChar

StartChar: u019A
Encoding: 410 410 345
Width: 82
GlyphClass: 2
Flags: HW
LayerCount: 2
Fore
SplineSet
50 87 m 1
 50 36 l 2
 50 22.6669921875 54.6669921875 16.3330078125 64 17 c 2
 66 17 l 1
 66 0 l 1
 59 0 l 2
 38.3330078125 0 28 11 28 33 c 2
 28 87 l 1
 7 87 l 1
 7 104 l 1
 28 104 l 1
 28 192 l 1
 50 192 l 1
 50 104 l 1
 72 104 l 1
 72 87 l 1
 50 87 l 1
EndSplineSet
EndChar

StartChar: u019B
Encoding: 411 411 346
Width: 134
GlyphClass: 2
Flags: HW
LayerCount: 2
Fore
SplineSet
55 138 m 1
 31 128 l 1
 25 144 l 1
 49 153 l 1
 43.6669921875 165.666992188 34.3330078125 172 21 172 c 2
 17 172 l 1
 21 191 l 1
 25 191 l 2
 44.3330078125 191 57.6669921875 181.666992188 65 163 c 1
 66 160 l 1
 85 167 l 1
 91 151 l 1
 73 144 l 1
 129 2 l 1
 106 2 l 1
 78 79 l 2
 76 84.3330078125 73 92 69 102 c 1
 66.3330078125 91.3330078125 63 82 59 74 c 2
 31 2 l 1
 6 2 l 1
 60 125 l 1
 58.6669921875 129 57 133.333007812 55 138 c 1
EndSplineSet
EndChar

StartChar: u019C
Encoding: 412 412 347
Width: 214
GlyphClass: 2
Flags: HW
LayerCount: 2
Fore
SplineSet
59 -2 m 0
 38.9189453125 -2 17 8.4638671875 17 47 c 2
 17 185 l 1
 39 185 l 1
 39 48 l 2
 39 26.6669921875 47.3330078125 15.6669921875 64 15 c 0
 79.73046875 15 91.0615234375 30.24609375 95 46 c 1
 95 185 l 1
 117 185 l 1
 117 48 l 2
 117 26.6669921875 125 15.6669921875 141 15 c 0
 158.651367188 15 173 35.9775390625 173 48 c 2
 173 185 l 1
 195 185 l 1
 195 0 l 1
 174 0 l 1
 174 22 l 1
 165.333007812 5.3330078125 152.166992188 -2.8330078125 134.5 -2.5 c 128
 116.833007812 -2.1669921875 105 6.6669921875 99 24 c 1
 89.6669921875 6.6669921875 76.3330078125 -2 59 -2 c 0
EndSplineSet
EndChar

StartChar: u019D
Encoding: 413 413 348
Width: 203
GlyphClass: 2
Flags: HW
LayerCount: 2
Fore
SplineSet
2 -32 m 1
 32.5830078125 -30.30078125 38 -13.4462890625 38 7 c 2
 38 185 l 1
 69 185 l 1
 68.3330078125 185 91.3330078125 149.666992188 138 79 c 0
 147.333007812 65 155.333007812 51.6669921875 162 39 c 1
 164 39 l 1
 162.666992188 63.6669921875 162 83.6669921875 162 99 c 2
 162 185 l 1
 184 185 l 1
 184 2 l 1
 163 2 l 1
 82 126 l 2
 76 135.333007812 68.6669921875 148 60 164 c 1
 59 164 l 1
 60.3330078125 136 60.6669921875 114.333007812 60 99 c 2
 60 2 l 1
 58.693359375 -31.98046875 43.103515625 -45.94921875 8 -50 c 1
 2 -32 l 1
EndSplineSet
EndChar

StartChar: u019E
Encoding: 414 414 349
Width: 144
GlyphClass: 2
Flags: HW
LayerCount: 2
Fore
SplineSet
128 -49 m 1
 106 -49 l 1
 106 82 l 2
 106 103.333007812 97 114 79 114 c 0
 60.3330078125 114 47 103.333007812 39 82 c 1
 39 2 l 1
 17 2 l 1
 17 130 l 1
 38 130 l 1
 38 107 l 1
 50 124.333007812 65.3330078125 133 84 133 c 0
 113.333007812 133 128 116.333007812 128 83 c 2
 128 -49 l 1
EndSplineSet
EndChar

StartChar: u019F
Encoding: 415 415 350
Width: 197
GlyphClass: 2
Flags: HW
LayerCount: 2
Fore
SplineSet
98 -1 m 128
 47.2900390625 -1 11 35.31640625 11 94 c 0
 11 124.666992188 20 148.666992188 38 166 c 0
 54 182 74 189.833007812 98 189.5 c 0
 122 189.833007812 142 182 158 166 c 0
 176 148 184.833007812 124 184.5 94 c 128
 183.88671875 38.78125 150.866210938 -1 98 -1 c 128
66 121 m 0
 89.568359375 121 112.375976562 89 129 89 c 0
 139 89 149 94 159 104 c 1
 157.666992188 124.666992188 150.666992188 141.333007812 138 154 c 0
 127.333007812 165.333007812 114 171 98 171 c 128
 65.853515625 171 41.0361328125 146.32421875 37 110 c 1
 45.6669921875 116.666992188 55.3330078125 120.333007812 66 121 c 0
130 68 m 0
 104.861328125 68 83.8056640625 100 67 100 c 0
 56.3330078125 100 46 94.6669921875 36 84 c 1
 37.3330078125 62.6669921875 44.3330078125 46 57 34 c 0
 89.4384765625 1.5615234375 149.887695312 16.4912109375 159 78 c 1
 150.333007812 71.3330078125 140.666992188 68 130 68 c 0
EndSplineSet
EndChar

StartChar: Ohorn
Encoding: 416 416 351
Width: 197
GlyphClass: 2
Flags: HW
LayerCount: 2
Fore
SplineSet
151 171 m 1
 161.217773438 162.2421875 184 141.303710938 184 97 c 128
 184 73 179 53 169 37 c 0
 153 11.6669921875 129.666992188 -1 99 -1 c 128
 68.3330078125 -1 45 10.3330078125 29 33 c 0
 17 49.6669921875 11 70 11 94 c 0
 11 152.865234375 46.765625 189 98 189 c 2
 136 189 l 2
 151.745117188 189 162 195.934570312 162 214 c 1
 182 214 l 1
 182 183.313476562 165.326171875 175.775390625 151 171 c 1
97 170 m 0
 54.1376953125 170 36 130.548828125 36 96 c 128
 36 78.6669921875 39 64 45 52 c 0
 56.3330078125 29.3330078125 74 18 98 18 c 0
 139.771484375 18 160 55.46484375 160 95.5 c 128
 160 137.123046875 135.77734375 170 97 170 c 0
EndSplineSet
EndChar

StartChar: ohorn
Encoding: 417 417 352
Width: 153
GlyphClass: 2
Flags: HW
LayerCount: 2
Fore
SplineSet
10 65.5 m 128
 10 109.469726562 41.6953125 134 75 134 c 2
 98 134 l 2
 103.333007812 134 108 134.333007812 112 135 c 0
 120 137.666992188 124 146 124 160 c 1
 144 160 l 1
 144 136 135.666992188 121.333007812 119 116 c 1
 125.987304688 109.012695312 139 96 139 66.5 c 128
 139 22.6728515625 108.536132812 -1 74.5 -1 c 128
 41.5048828125 -1 10 20.7919921875 10 65.5 c 128
116 66.5 m 128
 116 101.901367188 92.890625 117 74.5 117 c 128
 64.1669921875 117 55.3330078125 113 48 105 c 0
 22.7109375 79.7109375 29.0302734375 16 74.5 16 c 128
 85.5 16 94.6669921875 20 102 28 c 0
 111.333007812 37.3330078125 116 50.1669921875 116 66.5 c 128
EndSplineSet
EndChar

StartChar: u01A2
Encoding: 418 418 353
Width: 242
GlyphClass: 2
Flags: HW
LayerCount: 2
Fore
SplineSet
98 -1 m 128
 47.2900390625 -1 11 35.31640625 11 94 c 0
 11 124.666992188 20 148.666992188 38 166 c 0
 54 182 74 189.666992188 98 189 c 0
 116.666992188 189 132.666992188 184.333007812 146 175 c 1
 154.829101562 183.829101562 169.930664062 189 183 189 c 0
 210.333007812 188.333007812 224 171.293905743 224 138 c 2
 224 -56 l 5
 201 -56 l 5
 201 140 l 2
 201 159.977081781 194 170 180 170 c 0
 168.328125 170 160.149414062 163.149414062 160 163 c 0
 176 145.666992188 184 122.666992188 184 94 c 0
 184 38.15234375 150.360351562 -1 98 -1 c 128
98 171 m 128
 64.603515625 171 35 143.541992188 35 93.5 c 128
 35 67.8330078125 42.3330078125 48 57 34 c 0
 91.736328125 -0.736328125 160 18.607421875 160 94 c 128
 160 119.333007812 152.666992188 139.333007812 138 154 c 0
 127.333007812 165.333007812 114 171 98 171 c 128
EndSplineSet
EndChar

StartChar: u01A3
Encoding: 419 419 354
Width: 204
GlyphClass: 2
Flags: HW
LayerCount: 2
Fore
SplineSet
10 65.5 m 128
 10 109.469726562 41.6953125 134 75 134 c 0
 89 134 101.333007812 130 112 122 c 1
 116.3046875 125.444335938 127.71875 134 146 134 c 0
 173.333007812 134 187 117 187 83 c 2
 187 -48 l 1
 164 -48 l 1
 164 84 l 2
 164 104 157 114 143 114 c 0
 137 114 131.333007812 112.666992188 126 110 c 1
 126 109 l 1
 135.333007812 97.6669921875 139.666992188 83.3330078125 139 66 c 0
 139 23.3876953125 109.107421875 -1 74.5 -1 c 128
 41.5048828125 -1 10 20.7919921875 10 65.5 c 128
116 66.5 m 128
 116 101.901367188 92.890625 117 74.5 117 c 128
 64.1669921875 117 55.3330078125 113 48 105 c 0
 22.7109375 79.7109375 29.0302734375 16 74.5 16 c 128
 85.5 16 94.6669921875 20 102 28 c 0
 111.333007812 37.3330078125 116 50.1669921875 116 66.5 c 128
EndSplineSet
EndChar

StartChar: u01A4
Encoding: 420 420 355
Width: 176
GlyphClass: 2
Flags: HW
LayerCount: 2
Fore
SplineSet
44 167 m 1
 42 167 l 2
 28.6669921875 167 22 163.666992188 22 157 c 0
 22 153 24.3330078125 149 29 145 c 1
 15 139 l 1
 8.3330078125 147 5 154.666992188 5 162 c 0
 5 178 16.3330078125 185.666992188 39 185 c 2
 98 185 l 2
 144 185 167 167.666992188 167 133 c 0
 167 95.6669921875 143.333007812 77 96 77 c 2
 67 77 l 1
 67 2 l 1
 44 2 l 1
 44 167 l 1
92 95 m 2
 126.666992188 95 144 107.666992188 144 133 c 0
 144 156.333007812 128 167.666992188 96 167 c 2
 67 167 l 1
 67 95 l 1
 92 95 l 2
EndSplineSet
EndChar

StartChar: u01A5
Encoding: 421 421 356
Width: 154
GlyphClass: 2
Flags: HW
LayerCount: 2
Fore
SplineSet
143 66.5 m 128
 143 24.267578125 117.368164062 -1 84 -1 c 128
 68 -1 53.6669921875 6 41 20 c 1
 41 -49 l 1
 19 -49 l 1
 19 160 l 2
 19 182.666992188 28.6669921875 194 48 194 c 0
 57.3330078125 194 65.3330078125 190.666992188 72 184 c 1
 65 170 l 1
 60.3330078125 174.666992188 55.6669921875 177 51 177 c 0
 43.6669921875 177 40 170.333007812 40 157 c 2
 40 108 l 1
 52 125.333007812 67 134 85 134 c 0
 111.98828125 134 143 113.602539062 143 66.5 c 128
41 52 m 1
 42.146484375 33.6552734375 60.591796875 16 82.5 16 c 128
 101.967773438 16 120 33.6083984375 120 64 c 128
 120 80 116 92.6669921875 108 102 c 0
 100.666992188 111.333007812 91.3330078125 116 80 116 c 128
 68.6669921875 116 59 110.333007812 51 99 c 0
 45 91 41.6669921875 84 41 78 c 2
 41 52 l 1
EndSplineSet
EndChar

StartChar: u01A6
Encoding: 422 422 357
Width: 163
GlyphClass: 2
Flags: HW
LayerCount: 2
Fore
SplineSet
141 110.5 m 128
 141 98.4228515625 136.970703125 64.759765625 93 57 c 1
 161 -28 l 1
 132 -28 l 1
 68 56 l 1
 40 56 l 1
 40 2 l 1
 18 2 l 1
 18 185 l 1
 40 185 l 1
 40 164 l 1
 76 164 l 2
 112.96484375 164 141 144.534179688 141 110.5 c 128
69 74 m 2
 101.666992188 74 118 86.3330078125 118 111 c 0
 118 134.333007812 103 146 73 146 c 2
 40 146 l 1
 40 74 l 1
 69 74 l 2
EndSplineSet
EndChar

StartChar: u01A7
Encoding: 423 423 358
Width: 139
GlyphClass: 2
Flags: HW
LayerCount: 2
Fore
SplineSet
32 47 m 128
 32 31.4462890625 46.2177734375 18 68 18 c 0
 87.3330078125 18 103 26.6669921875 115 44 c 1
 133 31 l 1
 117.666992188 9.6669921875 96 -1 68 -1 c 0
 40.2216796875 -1 9 13.3310546875 9 50 c 0
 9 60 12.1669921875 69.5 18.5 78.5 c 128
 24.8330078125 87.5 38 96 58 104 c 1
 66 108 l 1
 97.375 120.834960938 104 127.672851562 104 141 c 128
 104 158.881835938 89.9384765625 170 71 170 c 0
 52.3330078125 170 38.3330078125 162 29 146 c 1
 11 158 l 1
 25 178.666992188 45 189 71 189 c 0
 110.282226562 189 127 162.875976562 127 139 c 0
 127 117.666992188 112.666992188 101.666992188 84 91 c 2
 76 88 l 2
 44.796875 75.9990234375 32 65.9111328125 32 47 c 128
EndSplineSet
EndChar

StartChar: u01A8
Encoding: 424 424 359
Width: 116
GlyphClass: 2
Flags: HW
LayerCount: 2
Fore
SplineSet
59 134 m 0
 94.5659477094 134 102 109.256002471 102 97 c 0
 102 81.6666666667 90.6666666667 70 68 62 c 2
 59 59 l 2
 41 52.3333333333 32 44.3333333333 32 35 c 0
 32 22.3333333333 40.3333333333 16 57 16 c 0
 71 16 83 21.6666666667 93 33 c 1
 107 20 l 1
 93 6 76.3333333333 -1 57 -1 c 0
 47.5774313209 -1 11 1.23859304402 11 36 c 0
 11 54 23.3333333333 67 48 75 c 1
 56 78 l 1
 73.3333333333 83.3333333333 82 90.3333333333 82 99 c 0
 82 111 74 117 58 117 c 0
 46 117 36 112 28 102 c 1
 13 114 l 1
 25 127.333333333 40.3333333333 134 59 134 c 0
EndSplineSet
EndChar

StartChar: u01A9
Encoding: 425 425 360
Width: 162
GlyphClass: 2
Flags: HW
LayerCount: 2
Fore
SplineSet
77 52 m 2
 63 40 51.6669921875 30.6669921875 43 24 c 1
 43 22 l 1
 154 22 l 1
 154 2 l 1
 9 2 l 1
 9 19 l 1
 93 95 l 1
 13 169 l 1
 13 185 l 1
 149 185 l 1
 149 165 l 1
 47 165 l 1
 47 164 l 1
 57 156 68 146.333007812 80 135 c 2
 123 95 l 1
 77 52 l 2
EndSplineSet
EndChar

StartChar: u01AA
Encoding: 426 426 361
Width: 97
GlyphClass: 2
Flags: HW
LayerCount: 2
Fore
SplineSet
70 -14 m 2
 70 -37.525390625 79.236328125 -42.8896484375 97 -44 c 1
 90 -61 l 1
 62 -60.3330078125 48 -44.3330078125 48 -13 c 2
 48 129 l 1
 44.6669921875 127.666992188 41.3330078125 127 38 127 c 0
 20.2841796875 127 6 138.810546875 6 160 c 128
 6 182.454101562 22.9677734375 193 38 193 c 128
 57.1435546875 193 68.9033203125 177.1328125 69.5 164 c 128
 69.8330078125 156.666992188 70 151 70 147 c 2
 70 -14 l 2
31 173 m 0
 23.2099609375 163.26171875 25.560546875 144.860351562 37 142 c 128
 39.6669921875 141.333007812 43.3330078125 141.666992188 48 143 c 1
 48 160 l 1
 49.3232421875 170.583007812 43.478515625 177 37.5 177 c 128
 34.5 177 32.3330078125 175.666992188 31 173 c 0
EndSplineSet
EndChar

StartChar: u01AB
Encoding: 427 427 362
Width: 93
GlyphClass: 2
Flags: HW
LayerCount: 2
Fore
SplineSet
83 10 m 1
 83 -27 l 2
 83 -49.6669921875 73 -61 53 -61 c 0
 43 -61 33.3330078125 -57.6669921875 24 -51 c 1
 32 -37 l 1
 37.3330078125 -41.6669921875 43 -44 49 -44 c 0
 57.6669921875 -44 62 -37.3330078125 62 -24 c 2
 62 0 l 1
 59.3330078125 -0.6669921875 56.6669921875 -0.6669921875 54 0 c 0
 34 0 24 11 24 33 c 2
 24 114 l 1
 7 114 l 1
 7 130 l 1
 24 130 l 1
 24 159 l 1
 45 169 l 1
 45 130 l 1
 80 130 l 1
 80 114 l 1
 45 114 l 1
 45 36 l 1
 43.3330078125 2.66796875 74.2861328125 22.857421875 76 24 c 1
 83 10 l 1
EndSplineSet
EndChar

StartChar: u01AC
Encoding: 428 428 363
Width: 166
GlyphClass: 2
Flags: HW
LayerCount: 2
Fore
SplineSet
43 166 m 2
 29.6669921875 166 23 162.333007812 23 155 c 0
 23 150.333007812 25.3330078125 145.666992188 30 141 c 1
 16 134 l 1
 9.3330078125 142 6 150.666992188 6 160 c 0
 6 177.333007812 17.3330078125 185.666992188 40 185 c 2
 161 185 l 1
 161 166 l 1
 93 166 l 1
 93 2 l 1
 70 2 l 1
 70 166 l 1
 43 166 l 2
EndSplineSet
EndChar

StartChar: u01AD
Encoding: 429 429 364
Width: 92
GlyphClass: 2
Flags: HW
LayerCount: 2
Fore
SplineSet
24 147 m 2
 24 169.666992188 33 180.666992188 51 180 c 0
 60.3330078125 180 69.3330078125 176.666992188 78 170 c 1
 71 156 l 1
 66.3330078125 160.666992188 61.6669921875 163 57 163 c 0
 49 163 45 156.333007812 45 143 c 2
 45 130 l 1
 80 130 l 1
 80 114 l 1
 45 114 l 1
 45 36 l 1
 43.3330078125 2.66796875 74.2861328125 22.857421875 76 24 c 1
 83 10 l 1
 73.6669921875 3.3330078125 64 0 54 0 c 0
 34 0 24 11 24 33 c 2
 24 114 l 1
 7 114 l 1
 7 130 l 1
 24 130 l 1
 24 147 l 2
EndSplineSet
EndChar

StartChar: u01AE
Encoding: 430 430 365
Width: 166
GlyphClass: 2
Flags: HW
LayerCount: 2
Fore
SplineSet
93 -11 m 2
 93 -24.3330078125 97 -30.6669921875 105 -30 c 0
 109.666992188 -30 114.666992188 -28 120 -24 c 1
 128 -37 l 1
 119.333007812 -43.6669921875 109.666992188 -47 99 -47 c 0
 80.3330078125 -47 70.6669921875 -36 70 -14 c 2
 70 166 l 1
 5 166 l 1
 5 185 l 1
 161 185 l 1
 161 166 l 1
 93 166 l 1
 93 -11 l 2
EndSplineSet
EndChar

StartChar: Uhorn
Encoding: 431 431 366
Width: 200
GlyphClass: 2
Flags: HW
LayerCount: 2
Fore
SplineSet
90 17 m 0
 112.000976562 17 140 25.3740234375 140 68 c 2
 140 185 l 1
 164 185 l 2
 166.666992188 185 169.333007812 185.666992188 172 187 c 0
 176.666992188 189 179 198 179 214 c 1
 199 214 l 1
 199 191.333007812 193.666992188 177.333007812 183 172 c 0
 177.666992188 168.666992188 171.333007812 167 164 167 c 2
 163 167 l 1
 163 65 l 2
 162.333007812 48.3330078125 158 34.6669921875 150 24 c 0
 136.666992188 6.6669921875 116.5 -2 89.5 -2 c 128
 62.5 -2 42 6.6669921875 28 24 c 0
 20 34.6669921875 16 48.3330078125 16 65 c 2
 16 185 l 1
 38 185 l 1
 38 68 l 2
 38 52.6669921875 42 41 50 33 c 0
 60 22.3330078125 73.3330078125 17 90 17 c 0
EndSplineSet
EndChar

StartChar: uhorn
Encoding: 432 432 367
Width: 166
GlyphClass: 2
Flags: HW
LayerCount: 2
Fore
SplineSet
160 157 m 1
 160 128.383789062 151.919921875 112 127 112 c 2
 125 112 l 1
 125 2 l 1
 105 2 l 1
 105 26 l 1
 92.3330078125 8.6669921875 77 0 59 0 c 0
 44.755859375 0 15 4.974609375 15 50 c 0
 15 130 15 130 15 130 c 1
 37 130 l 1
 37 50 l 2
 37 28.6669921875 45.8330078125 18.1669921875 63.5 18.5 c 128
 81.1669921875 18.8330078125 94.3330078125 30 103 52 c 1
 103 130 l 1
 127 130 l 2
 133.82421875 130 140 132.759765625 140 157 c 1
 160 157 l 1
EndSplineSet
EndChar

StartChar: u01B1
Encoding: 433 433 368
Width: 195
GlyphClass: 2
Flags: HW
LayerCount: 2
Fore
SplineSet
95.5 17 m 128
 128.868164062 17 156 45.8505859375 156 84 c 0
 156 114 143.333007812 137.333007812 118 154 c 1
 118 185 l 1
 188 185 l 1
 188 166 l 1
 134 166 l 1
 164.666992188 142 179.833007812 114.666992188 179.5 84 c 128
 178.819335938 21.341796875 132.671875 -2 98.5 -2 c 128
 80.8330078125 -2 65.6669921875 2 53 10 c 0
 27.6669921875 26 15 50.3330078125 15 83 c 128
 15 115.666992188 30.3330078125 143.333007812 61 166 c 1
 6 166 l 1
 6 185 l 1
 77 185 l 1
 77 154 l 1
 51.6669921875 138 38.6669921875 114.666992188 38 84 c 0
 38 51.748046875 60.2373046875 17 95.5 17 c 128
EndSplineSet
EndChar

StartChar: u01B2
Encoding: 434 434 369
Width: 165
GlyphClass: 2
Flags: HW
LayerCount: 2
Fore
SplineSet
76 -2 m 0
 36 -2 16 21.6669921875 16 69 c 2
 16 185 l 1
 38 185 l 1
 38 71 l 2
 38 35 52 16.6669921875 80 16 c 0
 105.08984375 16 125.450195312 39.6552734375 127.5 74.5 c 128
 128.5 91.5 129 108 129 124 c 2
 129 130 l 2
 129 144.666992188 126 154.666992188 120 160 c 0
 116 163.333007812 107 166 93 168 c 1
 100 186 l 1
 122 183.333007812 136.333007812 177.666992188 143 169 c 0
 148.333007812 160.333007812 151 148 151 132 c 2
 151 124 l 2
 151.666992188 100 151 79.6669921875 149 63 c 128
 147 46.3330078125 140.333007812 31.3330078125 129 18 c 128
 117.666992188 4.6669921875 100 -2 76 -2 c 0
EndSplineSet
EndChar

StartChar: u01B3
Encoding: 435 435 370
Width: 188
GlyphClass: 2
Flags: HW
LayerCount: 2
Fore
SplineSet
94 88 m 1
 94 2 l 1
 71 2 l 1
 71 88 l 1
 71.6669921875 88 49.3330078125 120.333007812 4 185 c 1
 32 185 l 1
 32 185 49 159.333007812 83 106 c 1
 130 175 l 2
 142.666992188 193 156 197 170 187 c 0
 176.666992188 182.333007812 181.333007812 175 184 165 c 1
 171 157 l 1
 170.333007812 163 168 167.333007812 164 170 c 0
 157.333007812 174.666992188 151 172.333007812 145 163 c 2
 94 88 l 1
EndSplineSet
EndChar

StartChar: u01B4
Encoding: 436 436 371
Width: 158
GlyphClass: 2
Flags: HW
LayerCount: 2
Fore
SplineSet
100 111 m 2
 114.96484375 149.659179688 140.3515625 138.295898438 151 117 c 1
 140 106 l 1
 135.909179688 114.182617188 128.018554688 125.037109375 120 109 c 0
 120 108.333007812 102.333007812 65.3330078125 67 -20 c 0
 59 -39.3330078125 45.3330078125 -48.6669921875 26 -48 c 2
 23 -48 l 1
 18 -28 l 1
 22 -28 l 2
 36 -28 45.3330078125 -22 50 -10 c 2
 58 11 l 1
 6 130 l 1
 30 130 l 1
 58 58 l 2
 62.6669921875 46.6669921875 66 37.6669921875 68 31 c 1
 69 31 l 1
 100 111 l 2
EndSplineSet
EndChar

StartChar: u01B5
Encoding: 437 437 372
Width: 163
GlyphClass: 2
Flags: HW
LayerCount: 2
Fore
SplineSet
61 87 m 1
 38 87 l 1
 38 104 l 1
 74 104 l 1
 97 135 l 2
 101.666992188 141 110 151 122 165 c 1
 122 166 l 1
 17 166 l 1
 17 185 l 1
 149 185 l 1
 149 167 l 1
 102 104 l 1
 126 104 l 1
 126 87 l 1
 89 87 l 1
 63 52 l 2
 53.6669921875 40 46 30.6669921875 40 24 c 1
 40 22 l 1
 156 22 l 1
 156 2 l 1
 9 2 l 1
 9 19 l 1
 61 87 l 1
EndSplineSet
EndChar

StartChar: u01B6
Encoding: 438 438 373
Width: 122
GlyphClass: 2
Flags: HW
LayerCount: 2
Fore
SplineSet
42 58 m 1
 22 58 l 1
 22 75 l 1
 55 75 l 1
 64 87 l 2
 70.6669921875 95.6669921875 77.3330078125 104 84 112 c 1
 84 113 l 1
 16 113 l 1
 16 130 l 1
 109 130 l 1
 109 116 l 1
 78 75 l 1
 98 75 l 1
 98 58 l 1
 66 58 l 1
 56 46 l 2
 52.6669921875 42 46 33.6669921875 36 21 c 1
 36 20 l 1
 112 20 l 1
 112 2 l 1
 9 2 l 1
 9 15 l 1
 42 58 l 1
EndSplineSet
EndChar

StartChar: u01B7
Encoding: 439 439 374
Width: 150
GlyphClass: 2
Flags: HW
LayerCount: 2
Fore
SplineSet
140 57 m 128
 140 28.7998046875 119.536132812 -3 71 -3 c 0
 43.6669921875 -3 22 7.3330078125 6 28 c 1
 20 42 l 1
 33.3330078125 25.3330078125 50.3330078125 17 71 17 c 0
 102.333007812 17 118 31 118 59 c 128
 118 87 102.333007812 101 71 101 c 0
 57.6669921875 101 45.6669921875 96.3330078125 35 87 c 1
 21 99 l 2
 21 99.056640625 70.314453125 143.837890625 101 166 c 1
 101 167 l 1
 20 167 l 1
 20 185 l 1
 133 185 l 1
 133 168 l 1
 73 118 l 1
 75 118 l 2
 98.3330078125 118 115.666992188 111 127 97 c 0
 135.666992188 87 140 73.6669921875 140 57 c 128
EndSplineSet
EndChar

StartChar: u01B8
Encoding: 440 440 375
Width: 150
GlyphClass: 2
Flags: HW
LayerCount: 2
Fore
SplineSet
79 -3 m 0
 30.83203125 -3 10 28.2939453125 10 57.5 c 128
 10 74.5 14.3330078125 87.6669921875 23 97 c 0
 35 110.333007812 52.3330078125 117.333007812 75 118 c 2
 77 118 l 1
 18 168 l 1
 18 185 l 1
 131 185 l 1
 131 167 l 1
 50 167 l 1
 50 166 l 1
 62 158 71.3330078125 150.666992188 78 144 c 2
 129 99 l 1
 116 87 l 1
 104.666992188 96.3330078125 92.3330078125 101 79 101 c 0
 47.6669921875 101 32 87 32 59 c 128
 32 31 47.6669921875 17 79 17 c 0
 99.6669921875 17 116.666992188 25.3330078125 130 42 c 1
 145 28 l 1
 128.333007812 7.3330078125 106.333007812 -3 79 -3 c 0
EndSplineSet
EndChar

StartChar: u01B9
Encoding: 441 441 376
Width: 123
GlyphClass: 2
Flags: HW
LayerCount: 2
Fore
SplineSet
69 -45 m 0
 26.4326171875 -45 12 -12.7158203125 12 11 c 128
 12 26.3330078125 15.3330078125 38.6669921875 22 48 c 0
 32.6669921875 60.6669921875 47.3330078125 67 66 67 c 2
 67 67 l 1
 18 114 l 1
 18 130 l 1
 111 130 l 1
 111 113 l 1
 44 113 l 1
 44 112 l 1
 54.6669921875 104 62.6669921875 97 68 91 c 2
 110 50 l 1
 99 38 l 1
 89 46.6669921875 78.6669921875 51 68 51 c 0
 44.6669921875 51 33 38.1669921875 33 12.5 c 0
 32.3330078125 -13.1669921875 44 -26 68 -26 c 0
 85.3330078125 -26 97.3330078125 -19 104 -5 c 1
 122 -15 l 1
 112 -35 94.3330078125 -45 69 -45 c 0
EndSplineSet
EndChar

StartChar: u01BA
Encoding: 442 442 377
Width: 122
GlyphClass: 2
Flags: HW
LayerCount: 2
Fore
SplineSet
57 79 m 2
 78.8349609375 79 111 72.1083984375 111 31.5 c 128
 111 9.052734375 99.921875 -6.1796875 53 -14 c 4
 37.6669921875 -16.6669921875 30 -20.6669921875 30 -26 c 4
 30 -30.6669921875 36.3330078125 -33 49 -33 c 4
 58.3330078125 -33 67.3330078125 -31 76 -27 c 5
 76 -27.6669921875 78.3330078125 -32.6669921875 83 -42 c 5
 73 -47.3330078125 61.6669921875 -50 49 -50 c 4
 35 -50 24.3330078125 -47.3330078125 17 -42 c 4
 11 -37.3330078125 8 -32 8 -26 c 4
 8 -13.9951171875 11.6806640625 -2.646484375 46.5 3 c 132
 64.8876953125 5.9814453125 79.0634765625 11.3291015625 86 20 c 0
 88 22.6669921875 89 28 89 36 c 0
 89 52 77.3330078125 60.3330078125 54 61 c 0
 43.3330078125 61 33.3330078125 57.3330078125 24 50 c 1
 13 64 l 1
 55 98 l 2
 59.6669921875 102.666992188 65.3330078125 107.333007812 72 112 c 1
 72 113 l 1
 12 113 l 1
 12 130 l 1
 105 130 l 1
 105 117 l 1
 56 79 l 1
 57 79 l 2
EndSplineSet
EndChar

StartChar: u01BB
Encoding: 443 443 378
Width: 154
GlyphClass: 2
Flags: HW
LayerCount: 2
Fore
SplineSet
78 189 m 0
 119.140625 189 136 162.428710938 136 137 c 0
 136 126.333007812 133 117 127 109 c 0
 125.666992188 107.666992188 124.333007812 106 123 104 c 1
 140 104 l 1
 140 87 l 1
 102 87 l 1
 96 82.3330078125 88.6669921875 77.6669921875 80 73 c 0
 55.3330078125 57.6669921875 39.3330078125 41 32 23 c 1
 139 23 l 1
 139 2 l 1
 11 2 l 1
 11 24 l 1
 20.3330078125 47.3330078125 39 68.3330078125 67 87 c 1
 47 87 l 1
 47 104 l 1
 91 104 l 1
 101.672851562 112.538085938 113 122.139648438 113 139 c 128
 113 151.73046875 102.421875 170 76 170 c 0
 54 170 39.6669921875 157.666992188 33 133 c 1
 13 140 l 1
 22.3330078125 172.666992188 44 189 78 189 c 0
EndSplineSet
EndChar

StartChar: u01BC
Encoding: 444 444 379
Width: 148
GlyphClass: 2
Flags: HW
LayerCount: 2
Fore
SplineSet
115 59.5 m 128
 115 69.2001953125 112.094726562 101 74 101 c 0
 56.6669921875 101 43.6669921875 94.3330078125 35 81 c 1
 16 84 l 1
 25 166 l 1
 6 166 l 1
 6 185 l 1
 128 185 l 1
 128 166 l 1
 46 166 l 1
 37 104 l 1
 39 104 l 1
 51 113.333007812 65 118 81 118 c 128
 114.465820312 118 138 90.7998046875 138 61 c 128
 138 40.0478515625 126.1640625 -2.5634765625 73 -1 c 0
 44.3330078125 -1 23.6669921875 9.6669921875 11 31 c 1
 11.6669921875 31 18 34.3330078125 30 41 c 1
 39.3330078125 25 53.3330078125 17 72 17 c 0
 93.1064453125 17 115 30.52734375 115 59.5 c 128
EndSplineSet
EndChar

StartChar: u01BD
Encoding: 445 445 380
Width: 126
GlyphClass: 2
Flags: HW
LayerCount: 2
Fore
SplineSet
95 42.5 m 128
 95 46.8623046875 93.5283203125 68 65 68 c 0
 52.3330078125 68 42.6669921875 63.3330078125 36 54 c 1
 18 56 l 2
 17.3330078125 56 19.6669921875 74.6669921875 25 112 c 1
 12 112 l 1
 12 130 l 1
 108 130 l 1
 108 112 l 1
 45 112 l 1
 39 72 l 1
 49.6669921875 80.6669921875 60.3330078125 85 71 85 c 0
 94.5869140625 85 115 67.6591796875 115 43.5 c 128
 115 19.9921875 98.8125 -1 64 -1 c 0
 42 -1 25 7.6669921875 13 25 c 1
 31 33 l 1
 39 22.3330078125 50 17 64 17 c 0
 79.9267578125 17 95 25.8603515625 95 42.5 c 128
EndSplineSet
EndChar

StartChar: u01BE
Encoding: 446 446 381
Width: 125
GlyphClass: 2
Flags: HW
LayerCount: 2
Fore
SplineSet
115 36 m 0
 115 18.107421875 102.655273438 -1 69 -1 c 0
 49.6669921875 -1 33 6 19 20 c 1
 33 33 l 1
 43.6669921875 21.6669921875 56 16 70 16 c 0
 86.6669921875 16 94.6669921875 22.3330078125 94 35 c 0
 94 44.3330078125 85 52.3330078125 67 59 c 2
 58 62 l 2
 35.3330078125 70 24 81.6669921875 24 97 c 2
 24 114 l 1
 7 114 l 1
 7 130 l 1
 24 130 l 1
 24 159 l 1
 45 169 l 1
 45 130 l 1
 80 130 l 1
 80 114 l 1
 45 114 l 1
 45 99 l 2
 45 90.3330078125 53.3330078125 83.3330078125 70 78 c 2
 79 75 l 2
 103 67 115 54 115 36 c 0
EndSplineSet
EndChar

StartChar: u01BF
Encoding: 447 447 382
Width: 141
GlyphClass: 2
Flags: HW
LayerCount: 2
Fore
SplineSet
106 71 m 2
 106 79.986328125 103.768554688 115 69 115 c 0
 58.3330078125 115 50.6669921875 112.333007812 46 107 c 0
 41.3330078125 102.333007812 39 98 39 94 c 2
 39 10 l 1
 59 14.6669921875 75 21.3330078125 87 30 c 0
 99.6669921875 39.3330078125 106 52.3330078125 106 69 c 2
 106 71 l 2
38 116 m 1
 48 127.333007812 60.6669921875 133.333007812 76 134 c 0
 93.3330078125 134 106.5 128.166992188 115.5 116.5 c 128
 124.5 104.833007812 129 89.6669921875 129 71 c 2
 129 69 l 2
 129 53.591796875 125.569335938 24.9580078125 86 8 c 0
 72.6669921875 2 57 -3.6669921875 39 -9 c 1
 39 -49 l 1
 17 -49 l 1
 17 130 l 1
 38 130 l 1
 38 116 l 1
EndSplineSet
EndChar

StartChar: u01C0
Encoding: 448 448 383
Width: 52
GlyphClass: 2
Flags: HW
LayerCount: 2
Fore
SplineSet
33 2 m 1
 19 2 l 1
 19 188 l 1
 33 188 l 1
 33 2 l 1
EndSplineSet
EndChar

StartChar: u01C1
Encoding: 449 449 384
Width: 96
GlyphClass: 2
Flags: HW
LayerCount: 2
Fore
SplineSet
77 2 m 1
 63 2 l 1
 63 188 l 1
 77 188 l 1
 77 2 l 1
33 2 m 1
 19 2 l 1
 19 188 l 1
 33 188 l 1
 33 2 l 1
EndSplineSet
EndChar

StartChar: u01C2
Encoding: 450 450 385
Width: 131
GlyphClass: 2
Flags: HW
LayerCount: 2
Fore
SplineSet
72 2 m 1
 57 2 l 1
 57 71 l 1
 11 71 l 1
 11 85 l 1
 57 85 l 1
 57 117 l 1
 11 117 l 1
 11 131 l 1
 57 131 l 1
 57 188 l 1
 72 188 l 1
 72 131 l 1
 118 131 l 1
 118 117 l 1
 72 117 l 1
 72 85 l 1
 118 85 l 1
 118 71 l 1
 72 71 l 1
 72 2 l 1
EndSplineSet
EndChar

StartChar: u01C3
Encoding: 451 451 386
Width: 59
GlyphClass: 2
Flags: HW
LayerCount: 2
Fore
SplineSet
43 2 m 1
 17 2 l 1
 17 29 l 1
 43 29 l 1
 43 2 l 1
38 49 m 1
 22 49 l 1
 17 185 l 1
 42 185 l 1
 38 49 l 1
EndSplineSet
EndChar

StartChar: u01C4
Encoding: 452 452 387
Width: 332
GlyphClass: 3
Flags: HW
LayerCount: 2
Fore
SplineSet
261 197 m 1
 241 197 l 1
 217 231 l 1
 232 231 l 1
 231.333007812 231 237.666992188 224 251 210 c 1
 271 231 l 1
 285 231 l 1
 261 197 l 1
325 2 m 1
 179 2 l 1
 179 19 l 1
 267 134 l 2
 271 139.333007812 279 149.666992188 291 165 c 1
 291 166 l 1
 186 166 l 1
 186 185 l 1
 319 185 l 1
 319 167 l 1
 232 52 l 2
 226 44 218.333007812 34.6669921875 209 24 c 1
 209 23 l 1
 325 23 l 1
 325 2 l 1
74 185 m 2
 107.966796875 185 173 174.490234375 173 94 c 0
 173 59.3330078125 160.666992188 34 136 18 c 0
 120 7.3330078125 99 2 73 2 c 2
 19 2 l 1
 19 185 l 1
 74 185 l 2
71 22 m 2
 123 22 149 46 149 94 c 128
 149 142 123.333007812 166 72 166 c 2
 42 166 l 1
 42 22 l 1
 71 22 l 2
EndSplineSet
EndChar

StartChar: u01C5
Encoding: 453 453 388
Width: 297
GlyphClass: 3
Flags: HW
LayerCount: 2
Fore
SplineSet
249 151 m 1
 228 151 l 1
 204 185 l 1
 219 185 l 1
 239 165 l 1
 257 185 l 1
 273 185 l 1
 249 151 l 1
287 2 m 1
 185 2 l 1
 185 16 l 1
 240 87 l 2
 246 95 252.666992188 103.333007812 260 112 c 1
 260 113 l 1
 191 113 l 1
 191 130 l 1
 285 130 l 1
 285 116 l 1
 232 46 l 2
 224.666992188 36 218 27.6669921875 212 21 c 1
 212 20 l 1
 287 20 l 1
 287 2 l 1
74 185 m 2
 107.966796875 185 173 174.490234375 173 94 c 0
 173 59.3330078125 160.666992188 34 136 18 c 0
 120 7.3330078125 99 2 73 2 c 2
 19 2 l 1
 19 185 l 1
 74 185 l 2
71 22 m 2
 123 22 149 46 149 94 c 128
 149 142 123.333007812 166 72 166 c 2
 42 166 l 1
 42 22 l 1
 71 22 l 2
EndSplineSet
EndChar

StartChar: u01C6
Encoding: 454 454 389
Width: 266
GlyphClass: 3
Flags: HW
LayerCount: 2
Fore
SplineSet
217.512695312 151 m 1
 196.512695312 151 l 1
 172.512695312 185 l 1
 187.512695312 185 l 1
 207.512695312 165 l 1
 225.512695312 185 l 1
 241.512695312 185 l 1
 217.512695312 151 l 1
255.512695312 2 m 1
 153.512695312 2 l 1
 153.512695312 16 l 1
 208.512695312 87 l 2
 214.512695312 95 221.1796875 103.333007812 228.512695312 112 c 1
 228.512695312 113 l 1
 159.512695312 113 l 1
 159.512695312 130 l 1
 253.512695312 130 l 1
 253.512695312 116 l 1
 200.512695312 46 l 2
 193.1796875 36 186.512695312 27.6669921875 180.512695312 21 c 1
 180.512695312 20 l 1
 255.512695312 20 l 1
 255.512695312 2 l 1
67.5126953125 -1 m 0
 38.6611328125 -1 10.6943359375 22.2314453125 10.0126953125 66.5 c 0
 9.6796875 88.8330078125 15.845703125 106 28.5126953125 118 c 0
 39.1796875 128.666992188 52.5126953125 134 68.5126953125 134 c 128
 84.5126953125 134 98.845703125 126.666992188 111.512695312 112 c 1
 111.512695312 192 l 1
 133.512695312 192 l 1
 133.512695312 2 l 1
 113.512695312 2 l 1
 113.512695312 25 l 1
 101.512695312 7.6669921875 86.1796875 -1 67.5126953125 -1 c 0
70.5126953125 116 m 128
 50.076171875 116 32.3857421875 98.0791015625 33.0126953125 68 c 128
 33.345703125 52 37.1796875 39.3330078125 44.5126953125 30 c 128
 51.845703125 20.6669921875 61.345703125 16 73.0126953125 16 c 128
 84.6796875 16 94.845703125 22.3330078125 103.512695312 35 c 0
 108.845703125 41.6669921875 111.512695312 47.3330078125 111.512695312 52 c 2
 111.512695312 84 l 2
 111.512695312 92.6669921875 106.1796875 100.666992188 95.5126953125 108 c 0
 88.1796875 113.333007812 79.845703125 116 70.5126953125 116 c 128
EndSplineSet
EndChar

StartChar: u01C7
Encoding: 455 455 390
Width: 220
GlyphClass: 3
Flags: HW
LayerCount: 2
Fore
SplineSet
160 -1 m 0
 148 -1 136.333007812 2 125 8 c 1
 133 26 l 1
 141 20.6669921875 149 18 157 18 c 0
 171.666992188 18 179.333007812 28 180 48 c 2
 180 185 l 1
 202 185 l 1
 202 49 l 2
 202 15.6669921875 188 -1 160 -1 c 0
115 2 m 1
 19 2 l 1
 19 185 l 1
 42 185 l 1
 42 22 l 1
 115 22 l 1
 115 2 l 1
EndSplineSet
EndChar

StartChar: u01C8
Encoding: 456 456 391
Width: 193
GlyphClass: 3
Flags: HW
LayerCount: 2
Fore
SplineSet
119 -32 m 1
 144.70703125 -28.3271484375 152 -15.9443359375 152 6 c 2
 152 130 l 1
 174 130 l 1
 174 6 l 2
 174 -36.1162109375 152.375976562 -46.193359375 127 -50 c 1
 119 -32 l 1
176 157 m 1
 150 157 l 1
 150 183 l 1
 176 183 l 1
 176 157 l 1
128 2 m 1
 18 2 l 1
 18 185 l 1
 41 185 l 1
 41 22 l 1
 128 22 l 1
 128 2 l 1
EndSplineSet
EndChar

StartChar: u01C9
Encoding: 457 457 392
Width: 128
GlyphClass: 3
Flags: HW
LayerCount: 2
Fore
SplineSet
55 -32 m 1
 78.82421875 -28.5966796875 87 -16.580078125 87 6 c 2
 87 130 l 1
 109 130 l 1
 109 6 l 2
 109 -36.1162109375 87.3759765625 -46.193359375 62 -50 c 1
 55 -32 l 1
111 157 m 1
 86 157 l 1
 86 183 l 1
 111 183 l 1
 111 157 l 1
40 36 m 2
 40 22.6669921875 44.6669921875 16.3330078125 54 17 c 2
 56 17 l 1
 56 0 l 1
 49 0 l 2
 28.3330078125 0 18 11 18 33 c 2
 18 192 l 1
 40 192 l 1
 40 36 l 2
EndSplineSet
EndChar

StartChar: u01CA
Encoding: 458 458 393
Width: 280
GlyphClass: 3
Flags: HW
LayerCount: 2
Fore
SplineSet
220 -1 m 0
 208.666992188 -1 197 2 185 8 c 1
 193 26 l 1
 201 20.6669921875 209 18 217 18 c 0
 231.666992188 18 239 28 239 48 c 2
 239 185 l 1
 262 185 l 1
 262 49 l 2
 262 15.6669921875 248 -1 220 -1 c 0
165 2 m 1
 144 2 l 1
 63 126 l 2
 57 135.333007812 49.6669921875 148 41 164 c 1
 40 164 l 1
 41.3330078125 136 41.6669921875 114.333007812 41 99 c 2
 41 2 l 1
 19 2 l 1
 19 185 l 1
 50 185 l 1
 49.3330078125 185 72.3330078125 149.666992188 119 79 c 0
 128.333007812 65 136.333007812 51.6669921875 143 39 c 1
 145 39 l 1
 143.666992188 63.6669921875 143 83.6669921875 143 99 c 2
 143 185 l 1
 165 185 l 1
 165 2 l 1
EndSplineSet
EndChar

StartChar: u01CB
Encoding: 459 459 394
Width: 253
GlyphClass: 3
Flags: HW
LayerCount: 2
Fore
SplineSet
179 -32 m 1
 204.70703125 -28.3271484375 212 -15.9443359375 212 6 c 2
 212 130 l 1
 234 130 l 1
 234 6 l 2
 234 -36.1162109375 212.375976562 -46.193359375 187 -50 c 1
 179 -32 l 1
235 157 m 1
 210 157 l 1
 210 183 l 1
 235 183 l 1
 235 157 l 1
164 2 m 1
 143 2 l 1
 62 126 l 2
 56 135.333007812 48.6669921875 148 40 164 c 1
 39 164 l 1
 40.3330078125 136 40.6669921875 114.333007812 40 99 c 2
 40 2 l 1
 18 2 l 1
 18 185 l 1
 49 185 l 1
 48.3330078125 185 71.3330078125 149.666992188 118 79 c 0
 127.333007812 65 135.333007812 51.6669921875 142 39 c 1
 144 39 l 1
 142.666992188 63.6669921875 142 83.6669921875 142 99 c 2
 142 185 l 1
 164 185 l 1
 164 2 l 1
EndSplineSet
EndChar

StartChar: u01CC
Encoding: 460 460 395
Width: 214
GlyphClass: 3
Flags: HW
LayerCount: 2
Fore
SplineSet
140 -32 m 1
 165.70703125 -28.3271484375 173 -15.9443359375 173 6 c 2
 173 130 l 1
 195 130 l 1
 195 6 l 2
 195 -36.1162109375 173.375976562 -46.193359375 148 -50 c 1
 140 -32 l 1
197 157 m 1
 171 157 l 1
 171 183 l 1
 197 183 l 1
 197 157 l 1
128 2 m 1
 106 2 l 1
 106 82 l 2
 106 103.333007812 97 114 79 114 c 0
 60.3330078125 114 47 103.333007812 39 82 c 1
 39 2 l 1
 17 2 l 1
 17 130 l 1
 38 130 l 1
 38 107 l 1
 50 124.333007812 65.3330078125 133 84 133 c 0
 113.333007812 133 128 116.333007812 128 83 c 2
 128 2 l 1
EndSplineSet
EndChar

StartChar: u01CD
Encoding: 461 461 396
Width: 172
GlyphClass: 2
Flags: HW
LayerCount: 2
Fore
SplineSet
97 197 m 1
 77 197 l 1
 53 231 l 1
 68 231 l 1
 87 210 l 1
 107 231 l 1
 122 231 l 1
 97 197 l 1
168 2 m 1
 144 2 l 1
 124 56 l 1
 50 56 l 1
 30 2 l 1
 6 2 l 1
 78 187 l 1
 96 187 l 1
 168 2 l 1
117 74 m 1
 99 123 l 2
 93.6669921875 136.333007812 89.6669921875 148.666992188 87 160 c 1
 86 160 l 1
 83.3330078125 148 79.6669921875 135.666992188 75 123 c 0
 74.3330078125 122.333007812 68 106 56 74 c 1
 117 74 l 1
EndSplineSet
Ligature2: "'ccmp' Glyph Composition/Decomposition lookup 1 subtable" A u030C
EndChar

StartChar: u01CE
Encoding: 462 462 397
Width: 129
GlyphClass: 2
Flags: HW
LayerCount: 2
Fore
SplineSet
77 151 m 1
 57 151 l 1
 33 185 l 1
 48 185 l 1
 47.3330078125 185 53.6669921875 178.333007812 67 165 c 1
 87 185 l 1
 102 185 l 1
 77 151 l 1
67 133 m 0
 85.384765625 133 114 126.633789062 114 87 c 2
 114 40 l 2
 114 24 116.333007812 11.3330078125 121 2 c 1
 102 2 l 1
 99.3330078125 8.6669921875 97.3330078125 15.3330078125 96 22 c 1
 95 22 l 1
 85.6669921875 6.6669921875 71.3330078125 -1 52 -1 c 0
 21.287109375 -1 9 20.435546875 9 38 c 0
 9 64.6669921875 31.6669921875 78.6669921875 77 80 c 1
 94 80 l 1
 94 87 l 2
 94 91.3857421875 92.8056640625 116 66 116 c 0
 51.3330078125 116 40.6669921875 109 34 95 c 1
 15 104 l 1
 27 123.333007812 44.3330078125 133 67 133 c 0
31 38 m 0
 31 36.5068359375 31.447265625 16 56 16 c 0
 78.201171875 16 95 34.4072265625 95 54 c 2
 95 65 l 1
 81 65 l 2
 47.6669921875 64.3330078125 31 55.3330078125 31 38 c 0
EndSplineSet
LCarets2: 1 0
Ligature2: "'ccmp' Glyph Composition/Decomposition lookup 1 subtable" a u030C
EndChar

StartChar: u01CF
Encoding: 463 463 398
Width: 69
GlyphClass: 2
Flags: HW
LayerCount: 2
Fore
SplineSet
45 197 m 1
 25 197 l 1
 1 231 l 1
 16 231 l 1
 35 210 l 1
 55 231 l 1
 69 231 l 1
 45 197 l 1
47 2 m 1
 24 2 l 1
 24 185 l 1
 47 185 l 1
 47 2 l 1
EndSplineSet
Ligature2: "'ccmp' Glyph Composition/Decomposition lookup 1 subtable" I u030C
EndChar

StartChar: u01D0
Encoding: 464 464 399
Width: 74
GlyphClass: 2
Flags: HW
LayerCount: 2
Fore
SplineSet
48 151 m 1
 27 151 l 1
 3 185 l 1
 19 185 l 1
 38 165 l 1
 57 185 l 1
 72 185 l 1
 48 151 l 1
49 2 m 1
 27 2 l 1
 27 130 l 1
 49 130 l 1
 49 2 l 1
EndSplineSet
Ligature2: "'ccmp' Glyph Composition/Decomposition lookup 1 subtable" i u030C
EndChar

StartChar: u01D1
Encoding: 465 465 400
Width: 197
GlyphClass: 2
Flags: HW
LayerCount: 2
Fore
SplineSet
108 197 m 1
 87 197 l 1
 63 231 l 1
 78 231 l 1
 97 210 l 1
 117 231 l 1
 132 231 l 1
 108 197 l 1
98 -1 m 128
 47.2900390625 -1 11 35.31640625 11 94 c 0
 11 124.666992188 20 148.666992188 38 166 c 0
 54 182 74 189.833007812 98 189.5 c 0
 122 189.833007812 142 182 158 166 c 0
 176 148 184.833007812 124 184.5 94 c 128
 183.88671875 38.78125 150.866210938 -1 98 -1 c 128
98 171 m 128
 64.603515625 171 35 143.541992188 35 93.5 c 128
 35 67.8330078125 42.3330078125 48 57 34 c 0
 91.736328125 -0.736328125 160 18.607421875 160 94 c 128
 160 119.333007812 152.666992188 139.333007812 138 154 c 0
 127.333007812 165.333007812 114 171 98 171 c 128
EndSplineSet
Ligature2: "'ccmp' Glyph Composition/Decomposition lookup 1 subtable" O u030C
EndChar

StartChar: u01D2
Encoding: 466 466 401
Width: 150
GlyphClass: 2
Flags: HW
LayerCount: 2
Fore
SplineSet
86 151 m 1
 65 151 l 1
 41 185 l 1
 56 185 l 1
 76 165 l 1
 94 185 l 1
 110 185 l 1
 86 151 l 1
74.5 -1 m 128
 41.5048828125 -1 10 20.7919921875 10 65.5 c 128
 10 109.469726562 41.6953125 134 75 134 c 128
 109.36328125 134 139 108.290039062 139 66 c 128
 139 23.3876953125 109.107421875 -1 74.5 -1 c 128
116 66.5 m 128
 116 101.901367188 92.890625 117 74.5 117 c 128
 64.1669921875 117 55.3330078125 113 48 105 c 0
 22.7109375 79.7109375 29.0302734375 16 74.5 16 c 128
 85.5 16 94.6669921875 20 102 28 c 0
 111.333007812 37.3330078125 116 50.1669921875 116 66.5 c 128
EndSplineSet
Ligature2: "'ccmp' Glyph Composition/Decomposition lookup 1 subtable" o u030C
EndChar

StartChar: u01D3
Encoding: 467 467 402
Width: 180
GlyphClass: 2
Flags: HW
LayerCount: 2
Fore
SplineSet
100 197 m 1
 79 197 l 1
 55 231 l 1
 70 231 l 1
 89 210 l 1
 109 231 l 1
 124 231 l 1
 100 197 l 1
163 65 m 2
 162.1875 44.693359375 153.326171875 -2 89 -2 c 128
 61.6669921875 -2 41.3330078125 7 28 25 c 0
 20.6669921875 35 16.6669921875 48.6669921875 16 66 c 2
 16 185 l 1
 38 185 l 1
 38 68 l 2
 38 54 41.3330078125 43.3330078125 48 36 c 0
 58 23.3330078125 72 17 90 17 c 128
 108 17 121.666992188 23 131 35 c 0
 137.666992188 43 140.666992188 54 140 68 c 2
 140 185 l 1
 163 185 l 1
 163 65 l 2
EndSplineSet
Ligature2: "'ccmp' Glyph Composition/Decomposition lookup 1 subtable" U u030C
EndChar

StartChar: u01D4
Encoding: 468 468 403
Width: 141
GlyphClass: 2
Flags: HW
LayerCount: 2
Fore
SplineSet
79 151 m 1
 59 151 l 1
 34 185 l 1
 50 185 l 1
 69 165 l 1
 88 185 l 1
 104 185 l 1
 79 151 l 1
58 0 m 0
 43.755859375 0 14 4.974609375 14 50 c 0
 14 130 14 130 14 130 c 1
 36 130 l 1
 36 50 l 2
 36 28.6669921875 44.8330078125 18.1669921875 62.5 18.5 c 128
 80.1669921875 18.8330078125 93.3330078125 30 102 52 c 1
 102 130 l 1
 124 130 l 1
 124 2 l 1
 104 2 l 1
 104 26 l 1
 91.3330078125 8.6669921875 76 0 58 0 c 0
EndSplineSet
Ligature2: "'ccmp' Glyph Composition/Decomposition lookup 1 subtable" u u030C
EndChar

StartChar: u01D5
Encoding: 469 469 404
Width: 180
GlyphClass: 2
Flags: HW
LayerCount: 2
Fore
SplineSet
75 201 m 1
 52 201 l 1
 52 225 l 1
 75 225 l 1
 75 201 l 1
127 201 m 1
 104 201 l 1
 104 225 l 1
 127 225 l 1
 127 201 l 1
163 65 m 2
 162.1875 44.693359375 153.326171875 -2 89 -2 c 128
 61.6669921875 -2 41.3330078125 7 28 25 c 0
 20.6669921875 35 16.6669921875 48.6669921875 16 66 c 2
 16 185 l 1
 38 185 l 1
 38 68 l 2
 38 54 41.3330078125 43.3330078125 48 36 c 0
 58 23.3330078125 72 17 90 17 c 128
 108 17 121.666992188 23 131 35 c 0
 137.666992188 43 140.666992188 54 140 68 c 2
 140 185 l 1
 163 185 l 1
 163 65 l 2
122 242 m 1
 57 242 l 1
 57 256 l 1
 122 256 l 1
 122 242 l 1
EndSplineSet
Ligature2: "'ccmp' Glyph Composition/Decomposition lookup 1 subtable" Udieresis u0304
Ligature2: "'ccmp' Glyph Composition/Decomposition lookup 1 subtable" U u0308 u0304
EndChar

StartChar: u01D6
Encoding: 470 470 405
Width: 141
GlyphClass: 2
Flags: HW
LayerCount: 2
Fore
SplineSet
106 156 m 1
 83 156 l 1
 83 180 l 1
 106 180 l 1
 106 156 l 1
58 0 m 0
 39.80859375 0 14 7.490234375 14 50 c 2
 14 130 l 1
 36 130 l 1
 36 51 l 2
 36 29.6669921875 45 19 63 19 c 128
 81 19 94 30 102 52 c 1
 102 130 l 1
 124 130 l 1
 124 2 l 1
 104 2 l 1
 104 26 l 1
 92 8.6669921875 76.6669921875 0 58 0 c 0
102 197 m 1
 37 197 l 1
 37 211 l 1
 102 211 l 1
 102 197 l 1
56 156 m 1
 33 156 l 1
 33 180 l 1
 56 180 l 1
 56 156 l 1
EndSplineSet
Ligature2: "'ccmp' Glyph Composition/Decomposition lookup 1 subtable" udieresis u0304
Ligature2: "'ccmp' Glyph Composition/Decomposition lookup 1 subtable" u u0308 u0304
EndChar

StartChar: u01D7
Encoding: 471 471 406
Width: 180
GlyphClass: 2
Flags: HW
LayerCount: 2
Fore
SplineSet
75 201 m 1
 52 201 l 1
 52 225 l 1
 75 225 l 1
 75 201 l 1
127 201 m 1
 104 201 l 1
 104 225 l 1
 127 225 l 1
 127 201 l 1
163 65 m 2
 162.1875 44.693359375 153.326171875 -2 89 -2 c 128
 61.6669921875 -2 41.3330078125 7 28 25 c 0
 20.6669921875 35 16.6669921875 48.6669921875 16 66 c 2
 16 185 l 1
 38 185 l 1
 38 68 l 2
 38 54 41.3330078125 43.3330078125 48 36 c 0
 58 23.3330078125 72 17 90 17 c 128
 108 17 121.666992188 23 131 35 c 0
 137.666992188 43 140.666992188 54 140 68 c 2
 140 185 l 1
 163 185 l 1
 163 65 l 2
94 234 m 1
 77 234 l 1
 96 268 l 1
 120 268 l 1
 94 234 l 1
EndSplineSet
Ligature2: "'ccmp' Glyph Composition/Decomposition lookup 1 subtable" Udieresis acutecomb
Ligature2: "'ccmp' Glyph Composition/Decomposition lookup 1 subtable" U u0308 acutecomb
EndChar

StartChar: u01D8
Encoding: 472 472 407
Width: 141
GlyphClass: 2
Flags: HW
LayerCount: 2
Fore
SplineSet
106 156 m 1
 83 156 l 1
 83 180 l 1
 106 180 l 1
 106 156 l 1
58 0 m 0
 39.80859375 0 14 7.490234375 14 50 c 2
 14 130 l 1
 36 130 l 1
 36 51 l 2
 36 29.6669921875 45 19 63 19 c 128
 81 19 94 30 102 52 c 1
 102 130 l 1
 124 130 l 1
 124 2 l 1
 104 2 l 1
 104 26 l 1
 92 8.6669921875 76.6669921875 0 58 0 c 0
73 189 m 1
 57 189 l 1
 76 223 l 1
 99 223 l 1
 73 189 l 1
56 156 m 1
 33 156 l 1
 33 180 l 1
 56 180 l 1
 56 156 l 1
EndSplineSet
Ligature2: "'ccmp' Glyph Composition/Decomposition lookup 1 subtable" udieresis acutecomb
Ligature2: "'ccmp' Glyph Composition/Decomposition lookup 1 subtable" u u0308 acutecomb
EndChar

StartChar: u01D9
Encoding: 473 473 408
Width: 180
GlyphClass: 2
Flags: HW
LayerCount: 2
Fore
SplineSet
75 201 m 1
 52 201 l 1
 52 225 l 1
 75 225 l 1
 75 201 l 1
127 201 m 1
 104 201 l 1
 104 225 l 1
 127 225 l 1
 127 201 l 1
163 65 m 2
 162.1875 44.693359375 153.326171875 -2 89 -2 c 128
 61.6669921875 -2 41.3330078125 7 28 25 c 0
 20.6669921875 35 16.6669921875 48.6669921875 16 66 c 2
 16 185 l 1
 38 185 l 1
 38 68 l 2
 38 54 41.3330078125 43.3330078125 48 36 c 0
 58 23.3330078125 72 17 90 17 c 128
 108 17 121.666992188 23 131 35 c 0
 137.666992188 43 140.666992188 54 140 68 c 2
 140 185 l 1
 163 185 l 1
 163 65 l 2
100 234 m 1
 79 234 l 1
 55 268 l 1
 71 268 l 1
 90 248 l 1
 109 268 l 1
 124 268 l 1
 100 234 l 1
EndSplineSet
Ligature2: "'ccmp' Glyph Composition/Decomposition lookup 1 subtable" Udieresis u030C
Ligature2: "'ccmp' Glyph Composition/Decomposition lookup 1 subtable" U u0308 u030C
EndChar

StartChar: u01DA
Encoding: 474 474 409
Width: 141
GlyphClass: 2
Flags: HW
LayerCount: 2
Fore
SplineSet
106 156 m 1
 83 156 l 1
 83 180 l 1
 106 180 l 1
 106 156 l 1
58 0 m 0
 39.80859375 0 14 7.490234375 14 50 c 2
 14 130 l 1
 36 130 l 1
 36 51 l 2
 36 29.6669921875 45 19 63 19 c 128
 81 19 94 30 102 52 c 1
 102 130 l 1
 124 130 l 1
 124 2 l 1
 104 2 l 1
 104 26 l 1
 92 8.6669921875 76.6669921875 0 58 0 c 0
79 189 m 1
 59 189 l 1
 35 223 l 1
 50 223 l 1
 49.3330078125 223 55.6669921875 216.333007812 69 203 c 1
 89 223 l 1
 104 223 l 1
 79 189 l 1
56 156 m 1
 33 156 l 1
 33 180 l 1
 56 180 l 1
 56 156 l 1
EndSplineSet
Ligature2: "'ccmp' Glyph Composition/Decomposition lookup 1 subtable" udieresis u030C
Ligature2: "'ccmp' Glyph Composition/Decomposition lookup 1 subtable" u u0308 u030C
EndChar

StartChar: u01DB
Encoding: 475 475 410
Width: 180
GlyphClass: 2
Flags: HW
LayerCount: 2
Fore
SplineSet
75 201 m 1
 52 201 l 1
 52 225 l 1
 75 225 l 1
 75 201 l 1
127 201 m 1
 104 201 l 1
 104 225 l 1
 127 225 l 1
 127 201 l 1
163 65 m 2
 162.1875 44.693359375 153.326171875 -2 89 -2 c 128
 61.6669921875 -2 41.3330078125 7 28 25 c 0
 20.6669921875 35 16.6669921875 48.6669921875 16 66 c 2
 16 185 l 1
 38 185 l 1
 38 68 l 2
 38 54 41.3330078125 43.3330078125 48 36 c 0
 58 23.3330078125 72 17 90 17 c 128
 108 17 121.666992188 23 131 35 c 0
 137.666992188 43 140.666992188 54 140 68 c 2
 140 185 l 1
 163 185 l 1
 163 65 l 2
102 234 m 1
 86 234 l 1
 60 268 l 1
 83 268 l 1
 102 234 l 1
EndSplineSet
Ligature2: "'ccmp' Glyph Composition/Decomposition lookup 1 subtable" Udieresis gravecomb
Ligature2: "'ccmp' Glyph Composition/Decomposition lookup 1 subtable" U u0308 gravecomb
EndChar

StartChar: u01DC
Encoding: 476 476 411
Width: 141
GlyphClass: 2
Flags: HW
LayerCount: 2
Fore
SplineSet
106 156 m 1
 83 156 l 1
 83 180 l 1
 106 180 l 1
 106 156 l 1
58 0 m 0
 39.80859375 0 14 7.490234375 14 50 c 2
 14 130 l 1
 36 130 l 1
 36 51 l 2
 36 29.6669921875 45 19 63 19 c 128
 81 19 94 30 102 52 c 1
 102 130 l 1
 124 130 l 1
 124 2 l 1
 104 2 l 1
 104 26 l 1
 92 8.6669921875 76.6669921875 0 58 0 c 0
82 189 m 1
 65 189 l 1
 40 223 l 1
 63 223 l 1
 82 189 l 1
56 156 m 1
 33 156 l 1
 33 180 l 1
 56 180 l 1
 56 156 l 1
EndSplineSet
Ligature2: "'ccmp' Glyph Composition/Decomposition lookup 1 subtable" udieresis gravecomb
Ligature2: "'ccmp' Glyph Composition/Decomposition lookup 1 subtable" u u0308 gravecomb
EndChar

StartChar: u01DD
Encoding: 477 477 412
Width: 140
GlyphClass: 2
Flags: HW
LayerCount: 2
Fore
SplineSet
129 67 m 128
 129 51.6943359375 124.8359375 -1 67.5 -1 c 128
 46.5 -1 31 6.6669921875 21 22 c 0
 13.6669921875 33.3330078125 10 47.3330078125 10 64 c 2
 10 69 l 1
 107 69 l 1
 106.333007812 82.3330078125 103.333007812 93 98 101 c 0
 89.3330078125 111 78.3330078125 116 65 116 c 0
 48.3330078125 116 36 108.666992188 28 94 c 1
 13 104 l 1
 24.3330078125 124 42.3330078125 134 67 134 c 0
 106.534179688 134 129 104.794921875 129 67 c 128
32 53 m 1
 34.4560546875 33.3544921875 43.8759765625 16 69.5 16 c 128
 92.36328125 16 103.405273438 34.8359375 106 53 c 1
 32 53 l 1
EndSplineSet
EndChar

StartChar: u01DE
Encoding: 478 478 413
Width: 174
GlyphClass: 2
Flags: HW
LayerCount: 2
Fore
SplineSet
75 201 m 1
 51 201 l 1
 51 225 l 1
 75 225 l 1
 75 201 l 1
122 242 m 1
 56 242 l 1
 56 256 l 1
 122 256 l 1
 122 242 l 1
127 201 m 1
 103 201 l 1
 103 225 l 1
 127 225 l 1
 127 201 l 1
170 2 m 1
 145 2 l 1
 125 57 l 1
 51 57 l 1
 51 56.3330078125 44.3330078125 38 31 2 c 1
 7 2 l 1
 79 186 l 1
 98 186 l 1
 170 2 l 1
118 75 m 1
 99 125 l 2
 95 135 91.3330078125 146.666992188 88 160 c 1
 87 160 l 1
 84.3330078125 148.666992188 80.6669921875 136.333007812 76 123 c 0
 75.3330078125 123 69 107 57 75 c 1
 118 75 l 1
EndSplineSet
EndChar

StartChar: u01DF
Encoding: 479 479 414
Width: 129
GlyphClass: 2
Flags: HW
LayerCount: 2
Fore
SplineSet
102 156 m 1
 79 156 l 1
 79 180 l 1
 102 180 l 1
 102 156 l 1
98 197 m 1
 33 197 l 1
 33 211 l 1
 98 211 l 1
 98 197 l 1
52 156 m 1
 29 156 l 1
 29 180 l 1
 52 180 l 1
 52 156 l 1
52 -1 m 0
 28.98828125 -1 9 13.1708984375 9 38 c 0
 9 64.6669921875 31.6669921875 78.6669921875 77 80 c 1
 94 81 l 1
 94 87 l 2
 94 106.333007812 84.6669921875 116 66 116 c 0
 51.3330078125 116 40.6669921875 109 34 95 c 1
 15 104 l 1
 27 123.333007812 44.3330078125 133 67 133 c 0
 83.6669921875 133 96 128 104 118 c 0
 110.666992188 110 114 99.6669921875 114 87 c 2
 114 40 l 2
 114 24 116.333007812 11.3330078125 121 2 c 1
 102 2 l 1
 100 8.6669921875 98.3330078125 15.3330078125 97 22 c 1
 96 22 l 1
 86 6.6669921875 71.3330078125 -1 52 -1 c 0
31 38 m 0
 31 22.9443359375 44.580078125 16 56 16 c 0
 68.6669921875 16 79.3330078125 21.3330078125 88 32 c 0
 92.6669921875 38 95 45.3330078125 95 54 c 2
 95 65 l 1
 81 65 l 1
 43.8037109375 63.4501953125 31 55.404296875 31 38 c 0
EndSplineSet
EndChar

StartChar: u01E0
Encoding: 480 480 415
Width: 174
GlyphClass: 2
Flags: HW
LayerCount: 2
Fore
SplineSet
122 242 m 1
 56 242 l 1
 56 256 l 1
 122 256 l 1
 122 242 l 1
170 2 m 1
 145 2 l 1
 125 57 l 1
 51 57 l 1
 51 56.3330078125 44.3330078125 38 31 2 c 1
 7 2 l 1
 79 186 l 1
 98 186 l 1
 170 2 l 1
118 75 m 1
 99 125 l 2
 95 135 91.3330078125 146.666992188 88 160 c 1
 87 160 l 1
 84.3330078125 148.666992188 80.6669921875 136.333007812 76 123 c 0
 75.3330078125 123 69 107 57 75 c 1
 118 75 l 1
100 201 m 1
 77 201 l 1
 77 225 l 1
 100 225 l 1
 100 201 l 1
EndSplineSet
EndChar

StartChar: u01E1
Encoding: 481 481 416
Width: 129
GlyphClass: 2
Flags: HW
LayerCount: 2
Fore
SplineSet
98 197 m 1
 33 197 l 1
 33 211 l 1
 98 211 l 1
 98 197 l 1
52 -1 m 0
 28.98828125 -1 9 13.1708984375 9 38 c 0
 9 64.6669921875 31.6669921875 78.6669921875 77 80 c 1
 94 81 l 1
 94 87 l 2
 94 106.333007812 84.6669921875 116 66 116 c 0
 51.3330078125 116 40.6669921875 109 34 95 c 1
 15 104 l 1
 27 123.333007812 44.3330078125 133 67 133 c 0
 83.6669921875 133 96 128 104 118 c 0
 110.666992188 110 114 99.6669921875 114 87 c 2
 114 40 l 2
 114 24 116.333007812 11.3330078125 121 2 c 1
 102 2 l 1
 100 8.6669921875 98.3330078125 15.3330078125 97 22 c 1
 96 22 l 1
 86 6.6669921875 71.3330078125 -1 52 -1 c 0
31 38 m 0
 31 22.9443359375 44.580078125 16 56 16 c 0
 68.6669921875 16 79.3330078125 21.3330078125 88 32 c 0
 92.6669921875 38 95 45.3330078125 95 54 c 2
 95 65 l 1
 81 65 l 1
 43.8037109375 63.4501953125 31 55.404296875 31 38 c 0
77 156 m 1
 54 156 l 1
 54 180 l 1
 77 180 l 1
 77 156 l 1
EndSplineSet
EndChar

StartChar: u01E2
Encoding: 482 482 417
Width: 229
GlyphClass: 2
Flags: HW
LayerCount: 2
Fore
SplineSet
162 207 m 1
 93 207 l 1
 93 222 l 1
 162 222 l 1
 162 207 l 1
221 2 m 1
 127 2 l 1
 118 59 l 1
 55 59 l 1
 55 58.3330078125 47.3330078125 39.3330078125 32 2 c 1
 6 2 l 1
 86 185 l 1
 217 185 l 1
 217 166 l 1
 123 166 l 1
 133 106 l 1
 207 106 l 1
 207 88 l 1
 135 88 l 1
 135.666992188 88 139.333007812 66 146 22 c 1
 221 22 l 1
 221 2 l 1
115 77 m 1
 115 77 110.333007812 106.666992188 101 168 c 1
 100 168 l 1
 62 77 l 1
 115 77 l 1
EndSplineSet
EndChar

StartChar: u01E3
Encoding: 483 483 418
Width: 221
GlyphClass: 2
Flags: HW
LayerCount: 2
Fore
SplineSet
140 161 m 1
 74 161 l 1
 74 175 l 1
 140 175 l 1
 140 161 l 1
114 64 m 1
 112.280273438 29.603515625 136.10546875 17 158.5 17 c 128
 173.5 17 185.666992188 24.3330078125 195 39 c 1
 209 29 l 1
 197.666992188 9 179.833007812 -1 155.5 -1 c 128
 131.166992188 -1 113.666992188 9 103 29 c 1
 91.6669921875 9 74.6669921875 -1 52 -1 c 0
 28.98828125 -1 9 13.1708984375 9 38 c 0
 9 64.6669921875 31.6669921875 78.6669921875 77 80 c 1
 94 81 l 1
 94 87 l 2
 94 106.333007812 84.6669921875 116 66 116 c 0
 51.3330078125 116 40.6669921875 109 34 95 c 1
 15 104 l 1
 27 123.333007812 44.3330078125 133 67 133 c 0
 86.3330078125 133 100 125.666992188 108 111 c 1
 118.666992188 125.666992188 133 133.333007812 151 134 c 0
 173 134 189.333007812 125 200 107 c 0
 206.666992188 96.3330078125 209.666992188 83.6669921875 209 69 c 2
 209 64 l 1
 114 64 l 1
31 38 m 0
 31 22.9443359375 44.580078125 16 56 16 c 0
 68.6669921875 16 79.3330078125 21.3330078125 88 32 c 0
 92.6669921875 38 95 45.3330078125 95 54 c 2
 95 65 l 1
 81 65 l 2
 47.6669921875 65 31 56 31 38 c 0
187 80 m 1
 186.494140625 86.0732421875 182.375976562 117 151 117 c 0
 134.631835938 117 118.533203125 104.729492188 115 80 c 1
 187 80 l 1
EndSplineSet
EndChar

StartChar: u01E4
Encoding: 484 484 419
Width: 193
GlyphClass: 2
Flags: HW
LayerCount: 2
Fore
SplineSet
36 95 m 128
 36 78.982421875 40.06640625 18 102 18 c 128
 123.333007812 18 139.666992188 25 151 39 c 1
 151 46 l 1
 110 46 l 1
 110 62 l 1
 151 62 l 1
 151 74 l 1
 110 74 l 1
 110 92 l 1
 172 92 l 1
 172 62 l 1
 185 62 l 1
 185 46 l 1
 172 46 l 1
 172 31 l 1
 168.060546875 25.748046875 144.071289062 -1 100 -1 c 0
 74 -1 52.6669921875 7.6669921875 36 25 c 128
 19.3330078125 42.3330078125 11 65.1669921875 11 93.5 c 128
 11 121.833007812 19.3330078125 144.833007812 36 162.5 c 128
 52.6669921875 180.166992188 73 189 97 189 c 0
 131 189 155 174.333007812 169 145 c 1
 149 136 l 1
 138.333007812 158.666992188 121.333007812 170 98 170 c 0
 66.767578125 170 36 144.833007812 36 95 c 128
EndSplineSet
EndChar

StartChar: u01E5
Encoding: 485 485 420
Width: 135
GlyphClass: 2
Flags: HW
LayerCount: 2
Fore
SplineSet
115 87 m 128
 115 72.0029296875 106.659179688 44 66 44 c 0
 59.3330078125 44 53 44.6669921875 47 46 c 1
 38.3330078125 45.3330078125 34 42 34 36 c 0
 34 28 44 23.6669921875 64 23 c 2
 79 22 l 2
 107 20.6669921875 122.666992188 11.6669921875 126 -5 c 1
 134 -5 l 1
 134 -22 l 1
 125 -22 l 1
 123 -28.6669921875 118.333007812 -34 111 -38 c 0
 100.333007812 -46 85.8330078125 -50 67.5 -50 c 128
 49.1669921875 -50 34.6669921875 -47 24 -41 c 128
 13.3330078125 -35 8 -27 8 -17 c 0
 8 -3.6669921875 17.6669921875 5.3330078125 37 10 c 1
 37 11 l 1
 21.6669921875 15 14 21.6669921875 14 31 c 128
 14 40.3330078125 20.6669921875 47.3330078125 34 52 c 1
 19.3330078125 59.3330078125 12 71 12 87 c 0
 12 99.6669921875 16.5 110.5 25.5 119.5 c 0
 35.1669921875 128.5 48 133 64 133 c 0
 74.6669921875 133 83.6669921875 130.666992188 91 126 c 1
 97 134 108 138 124 138 c 1
 124 120 l 1
 112.666992188 120 105.333007812 119.333007812 102 118 c 1
 110.666992188 109.333007812 115 99 115 87 c 128
102 -22 m 1
 70 -22 l 1
 70 -5 l 1
 103 -5 l 1
 98.3330078125 2.3330078125 85.3330078125 6 64 6 c 0
 41.3330078125 6 30 -1 30 -15 c 0
 30 -28.3330078125 42 -35 66 -35 c 0
 82 -35 93.3330078125 -31.3330078125 100 -24 c 0
 101.333007812 -23.3330078125 102 -22.6669921875 102 -22 c 1
34 87.5 m 128
 34 72.5869140625 43.416015625 59 64 59 c 128
 84.58203125 59 94 72.5849609375 94 87.5 c 128
 94 103.416992188 82.517578125 117 63.5 117 c 128
 43.6865234375 117 34 102.46875 34 87.5 c 128
EndSplineSet
EndChar

StartChar: Gcaron
Encoding: 486 486 421
Width: 186
GlyphClass: 2
Flags: HW
LayerCount: 2
Fore
SplineSet
132 231 m 1
 108 197 l 1
 87 197 l 1
 63 231 l 1
 78 231 l 1
 97 211 l 1
 117 231 l 1
 132 231 l 1
172 32 m 1
 167.625 25.875 145.819335938 -1 100 -1 c 0
 73.3330078125 -1 50.599609375 7.9638671875 33 27 c 0
 17.9326171875 43.2978515625 11 66 11 94 c 128
 11 122 19.5 144.833007812 36.5 162.5 c 128
 53.5 180.166992188 74 189 98 189 c 0
 132 189 155.666992188 174.333007812 169 145 c 1
 149 135 l 1
 138.333007812 157.666992188 121.333007812 169 98 169 c 0
 58.4697265625 169 36 135.548828125 36 95 c 128
 36 73.6669921875 40.6669921875 56.6669921875 50 44 c 0
 62.6669921875 27.3330078125 79.8330078125 18.8330078125 101.5 18.5 c 128
 123.166992188 18.1669921875 139.666992188 25 151 39 c 1
 151 74 l 1
 110 74 l 1
 110 92 l 1
 172 92 l 1
 172 32 l 1
EndSplineSet
EndChar

StartChar: gcaron
Encoding: 487 487 422
Width: 133
GlyphClass: 2
Flags: HW
LayerCount: 2
Fore
SplineSet
11 86.5 m 128
 11 118.635742188 38.568359375 133 61 133 c 128
 72.3330078125 133 82 130.666992188 90 126 c 1
 96 134 107 138 123 138 c 1
 123 120 l 1
 111 120 103.666992188 119.333007812 101 118 c 1
 109.666992188 109.333007812 114 98.3330078125 114 85 c 128
 114 71.6669921875 108.666992188 61 98 53 c 0
 90 46.3330078125 79.3330078125 43.3330078125 66 44 c 0
 59.3330078125 44 52.3330078125 44.6669921875 45 46 c 1
 37 44.6669921875 33 41.3330078125 33 36 c 0
 33 28 43.3330078125 23.6669921875 64 23 c 0
 64 22.3330078125 68.6669921875 22 78 22 c 0
 109.333007812 20.6669921875 125 9.6669921875 125 -11 c 0
 125 -31.9296875 104.923828125 -50 66 -50 c 128
 48 -50 34.3330078125 -47.3330078125 25 -42 c 0
 13.6669921875 -36 7.6669921875 -27.6669921875 7 -17 c 0
 7 -3.6669921875 16.6669921875 5.3330078125 36 10 c 1
 36 11 l 1
 20.6669921875 14.3330078125 13 21.3330078125 13 32 c 0
 13 40.6669921875 19.6669921875 47.3330078125 33 52 c 1
 18.3330078125 58.6669921875 11 70.1669921875 11 86.5 c 128
99 185 m 1
 99 184.333007812 91 172.666992188 75 150 c 1
 54 150 l 1
 29 185 l 1
 45 185 l 1
 64 165 l 1
 83 185 l 1
 99 185 l 1
65 -35 m 0
 77 -35 86.5 -32.8330078125 93.5 -28.5 c 128
 100.5 -24.1669921875 104 -18.6669921875 104 -12 c 0
 104 0.6669921875 90.3330078125 7 63 7 c 0
 40.3330078125 7 29 -0.3330078125 29 -15 c 0
 29 -28.3330078125 41 -35 65 -35 c 0
62 117 m 128
 46.9599609375 117 31.8837890625 105.127929688 32.5 88.5 c 128
 33.2216796875 69.0166015625 47.142578125 59 62.5 59 c 128
 67.73046875 59 93 60.4267578125 93 88 c 0
 93 113.302734375 71.484375 117 62 117 c 128
EndSplineSet
EndChar

StartChar: u01E8
Encoding: 488 488 423
Width: 165
GlyphClass: 2
Flags: HW
LayerCount: 2
Fore
SplineSet
114 231 m 1
 90 197 l 1
 69 197 l 1
 69.6669921875 197 62 208.333007812 46 231 c 1
 60 231 l 1
 80 211 l 1
 99 231 l 1
 114 231 l 1
160 2 m 1
 130 2 l 1
 61 94 l 1
 41 74 l 1
 41 2 l 1
 18 2 l 1
 18 185 l 1
 41 185 l 1
 41 98 l 1
 122 185 l 1
 152 185 l 1
 76 108 l 1
 160 2 l 1
EndSplineSet
EndChar

StartChar: u01E9
Encoding: 489 489 424
Width: 135
GlyphClass: 2
Flags: HW
LayerCount: 2
Fore
SplineSet
71 234 m 1
 47 200 l 1
 26 200 l 2
 25.3330078125 200 17 211.333007812 1 234 c 1
 17 234 l 1
 36 214 l 1
 35.3330078125 214 41.6669921875 220.666992188 55 234 c 1
 71 234 l 1
131 2 m 1
 104 2 l 1
 60 64 l 1
 46 50 l 1
 46 2 l 1
 24 2 l 1
 24 192 l 1
 46 192 l 1
 46 71 l 1
 45.3330078125 71 63 90.6669921875 99 130 c 1
 127 130 l 1
 74 77 l 1
 131 2 l 1
EndSplineSet
EndChar

StartChar: u01EA
Encoding: 490 490 425
Width: 197
GlyphClass: 2
Flags: HW
LayerCount: 2
Fore
SplineSet
89 -1 m 1
 47.6416015625 1.7568359375 11 35.1318359375 11 94 c 0
 11 124.666992188 20 148.666992188 38 166 c 0
 54 182 74 189.833007812 98 189.5 c 0
 122 189.833007812 142 182 158 166 c 0
 176 148 184.833007812 124 184.5 94 c 128
 184.166992188 64 175 40 157 22 c 0
 145.666992188 10 131.333007812 2.6669921875 114 0 c 1
 100 -12 l 2
 90 -20 85 -26.6669921875 85 -32 c 0
 85 -38.6669921875 89.3330078125 -42 98 -42 c 0
 104.666992188 -42 112.666992188 -39.6669921875 122 -35 c 1
 122 -49 l 1
 111.333007812 -55 100.666992188 -58 90 -58 c 0
 72 -58 63 -50.6669921875 63 -36 c 0
 63.6669921875 -25.3330078125 70 -15.6669921875 82 -7 c 1
 89 -1 l 1
98 171 m 128
 64.603515625 171 35 143.541992188 35 93.5 c 128
 35 67.8330078125 42.3330078125 48 57 34 c 0
 91.736328125 -0.736328125 160 18.607421875 160 94 c 128
 160 119.333007812 152.666992188 139.333007812 138 154 c 0
 127.333007812 165.333007812 114 171 98 171 c 128
EndSplineSet
EndChar

StartChar: u01EB
Encoding: 491 491 426
Width: 150
GlyphClass: 2
Flags: HW
LayerCount: 2
Fore
SplineSet
74.51171875 134 m 128
 108.875 134 138.51171875 108.290039062 138.51171875 66 c 128
 138.51171875 55.5654296875 135.928710938 13.044921875 94.51171875 2 c 1
 78.51171875 -12 l 2
 68.51171875 -20 63.51171875 -26.6669921875 63.51171875 -32 c 0
 63.51171875 -38.6669921875 68.1787109375 -42 77.51171875 -42 c 0
 84.1787109375 -42 91.845703125 -39.6669921875 100.51171875 -35 c 1
 100.51171875 -49 l 1
 90.51171875 -55 80.1787109375 -58 69.51171875 -58 c 0
 51.51171875 -58 42.1787109375 -50.6669921875 41.51171875 -36 c 0
 41.51171875 -25.3330078125 47.845703125 -15.6669921875 60.51171875 -7 c 1
 67.51171875 -1 l 1
 40.6083984375 1.33984375 10.7431640625 20.912109375 10.01171875 65.5 c 128
 9.2861328125 109.764648438 41.5400390625 134 74.51171875 134 c 128
115.51171875 66.5 m 128
 115.51171875 101.901367188 92.40234375 117 74.01171875 117 c 128
 63.6787109375 117 54.845703125 113 47.51171875 105 c 0
 22.22265625 79.7109375 28.5419921875 16 74.01171875 16 c 128
 85.01171875 16 94.1787109375 20 101.51171875 28 c 0
 110.845703125 37.3330078125 115.51171875 50.1669921875 115.51171875 66.5 c 128
EndSplineSet
EndChar

StartChar: u01EC
Encoding: 492 492 427
Width: 197
GlyphClass: 2
Flags: HW
LayerCount: 2
Fore
SplineSet
132 207 m 1
 63 207 l 1
 63 222 l 1
 132 222 l 1
 132 207 l 1
89 -1 m 1
 47.6416015625 1.7568359375 11 35.1318359375 11 94 c 0
 11 124.666992188 20 148.666992188 38 166 c 0
 54 182 74 189.833007812 98 189.5 c 0
 122 189.833007812 142 182 158 166 c 0
 176 148 184.833007812 124 184.5 94 c 128
 184.166992188 64 175 40 157 22 c 0
 145.666992188 10 131.333007812 2.6669921875 114 0 c 1
 100 -12 l 2
 90 -20 85 -26.6669921875 85 -32 c 0
 85 -38.6669921875 89.3330078125 -42 98 -42 c 0
 104.666992188 -42 112.666992188 -39.6669921875 122 -35 c 1
 122 -49 l 1
 111.333007812 -55 100.666992188 -58 90 -58 c 0
 72 -58 63 -50.6669921875 63 -36 c 0
 63.6669921875 -25.3330078125 70 -15.6669921875 82 -7 c 1
 89 -1 l 1
98 171 m 128
 64.603515625 171 35 143.541992188 35 93.5 c 128
 35 67.8330078125 42.3330078125 48 57 34 c 0
 91.736328125 -0.736328125 160 18.607421875 160 94 c 128
 160 119.333007812 152.666992188 139.333007812 138 154 c 0
 127.333007812 165.333007812 114 171 98 171 c 128
EndSplineSet
EndChar

StartChar: u01ED
Encoding: 493 493 428
Width: 150
GlyphClass: 2
Flags: HW
LayerCount: 2
Fore
SplineSet
107.51171875 161 m 1
 41.51171875 161 l 1
 41.51171875 175 l 1
 107.51171875 175 l 1
 107.51171875 161 l 1
74.51171875 134 m 128
 108.875 134 138.51171875 108.290039062 138.51171875 66 c 128
 138.51171875 55.5654296875 135.928710938 13.044921875 94.51171875 2 c 1
 78.51171875 -12 l 2
 68.51171875 -20 63.51171875 -26.6669921875 63.51171875 -32 c 0
 63.51171875 -38.6669921875 68.1787109375 -42 77.51171875 -42 c 0
 84.1787109375 -42 91.845703125 -39.6669921875 100.51171875 -35 c 1
 100.51171875 -49 l 1
 90.51171875 -55 80.1787109375 -58 69.51171875 -58 c 0
 51.51171875 -58 42.1787109375 -50.6669921875 41.51171875 -36 c 0
 41.51171875 -25.3330078125 47.845703125 -15.6669921875 60.51171875 -7 c 1
 67.51171875 -1 l 1
 40.6083984375 1.33984375 10.7431640625 20.912109375 10.01171875 65.5 c 128
 9.2861328125 109.764648438 41.5400390625 134 74.51171875 134 c 128
115.51171875 66.5 m 128
 115.51171875 101.901367188 92.40234375 117 74.01171875 117 c 128
 63.6787109375 117 54.845703125 113 47.51171875 105 c 0
 22.22265625 79.7109375 28.5419921875 16 74.01171875 16 c 128
 85.01171875 16 94.1787109375 20 101.51171875 28 c 0
 110.845703125 37.3330078125 115.51171875 50.1669921875 115.51171875 66.5 c 128
EndSplineSet
EndChar

StartChar: u01EE
Encoding: 494 494 429
Width: 150
GlyphClass: 2
Flags: HW
LayerCount: 2
Fore
SplineSet
140 57 m 128
 140 28.7998046875 119.536132812 -3 71 -3 c 0
 43.6669921875 -3 22 7.3330078125 6 28 c 1
 20 42 l 1
 33.3330078125 25.3330078125 50.3330078125 17 71 17 c 0
 102.333007812 17 118 31 118 59 c 128
 118 87 102.333007812 101 71 101 c 0
 57.6669921875 101 45.6669921875 96.3330078125 35 87 c 1
 21 99 l 2
 21 99.056640625 70.314453125 143.837890625 101 166 c 1
 101 167 l 1
 20 167 l 1
 20 185 l 1
 133 185 l 1
 133 168 l 1
 73 118 l 1
 75 118 l 2
 98.3330078125 118 115.666992188 111 127 97 c 0
 135.666992188 87 140 73.6669921875 140 57 c 128
83 197 m 1
 63 197 l 1
 39 231 l 1
 54 231 l 1
 73 210 l 1
 93 231 l 1
 108 231 l 1
 83 197 l 1
EndSplineSet
EndChar

StartChar: u01EF
Encoding: 495 495 430
Width: 121
GlyphClass: 2
Flags: HW
LayerCount: 2
Fore
SplineSet
70 151 m 1
 50 151 l 1
 25 185 l 1
 41 185 l 1
 60 165 l 1
 79 185 l 1
 95 185 l 1
 70 151 l 1
112 11 m 128
 112 -12.720703125 97.564453125 -45 55 -45 c 0
 29.6669921875 -45 12 -35 2 -15 c 1
 20 -5 l 1
 26.6669921875 -19 38.3330078125 -26 55 -26 c 0
 78.3330078125 -26 90.1669921875 -13.1669921875 90.5 12.5 c 128
 90.8330078125 38.1669921875 79 51 55 51 c 0
 44.3330078125 51 34.3330078125 46.6669921875 25 38 c 1
 14 50 l 1
 56 91 l 2
 61.3330078125 96.3330078125 69.3330078125 103.333007812 80 112 c 1
 80 113 l 1
 13 113 l 1
 13 130 l 1
 106 130 l 1
 106 114 l 1
 57 67 l 1
 58 67 l 2
 77.6259765625 67 112 60.0048828125 112 11 c 128
EndSplineSet
EndChar

StartChar: u01F0
Encoding: 496 496 431
Width: 83
GlyphClass: 2
Flags: HW
LayerCount: 2
Fore
SplineSet
3 -32 m 1
 26.82421875 -28.5966796875 35 -16.580078125 35 6 c 2
 35 130 l 1
 57 130 l 1
 57 6 l 2
 57 -36.1162109375 35.3759765625 -46.193359375 10 -50 c 1
 3 -32 l 1
57 151 m 1
 36 151 l 1
 12 185 l 1
 28 185 l 1
 47 165 l 1
 66 185 l 1
 81 185 l 1
 57 151 l 1
EndSplineSet
EndChar

StartChar: u01F1
Encoding: 497 497 432
Width: 332
GlyphClass: 3
Flags: HW
LayerCount: 2
Fore
SplineSet
325 2 m 1
 179 2 l 1
 179 19 l 1
 267 134 l 2
 271 139.333007812 279 149.666992188 291 165 c 1
 291 166 l 1
 186 166 l 1
 186 185 l 1
 319 185 l 1
 319 167 l 1
 232 52 l 2
 226 44 218.333007812 34.6669921875 209 24 c 1
 209 23 l 1
 325 23 l 1
 325 2 l 1
74 185 m 2
 107.966796875 185 173 174.490234375 173 94 c 0
 173 59.3330078125 160.666992188 34 136 18 c 0
 120 7.3330078125 99 2 73 2 c 2
 19 2 l 1
 19 185 l 1
 74 185 l 2
71 22 m 2
 123 22 149 46 149 94 c 128
 149 142 123.333007812 166 72 166 c 2
 42 166 l 1
 42 22 l 1
 71 22 l 2
EndSplineSet
EndChar

StartChar: u01F2
Encoding: 498 498 433
Width: 297
GlyphClass: 3
Flags: HW
LayerCount: 2
Fore
SplineSet
287 2 m 1
 185 2 l 1
 185 16 l 1
 240 87 l 2
 246 95 252.666992188 103.333007812 260 112 c 1
 260 113 l 1
 191 113 l 1
 191 130 l 1
 285 130 l 1
 285 116 l 1
 232 46 l 2
 224.666992188 36 218 27.6669921875 212 21 c 1
 212 20 l 1
 287 20 l 1
 287 2 l 1
74 185 m 2
 107.966796875 185 173 174.490234375 173 94 c 0
 173 59.3330078125 160.666992188 34 136 18 c 0
 120 7.3330078125 99 2 73 2 c 2
 19 2 l 1
 19 185 l 1
 74 185 l 2
71 22 m 2
 123 22 149 46 149 94 c 128
 149 142 123.333007812 166 72 166 c 2
 42 166 l 1
 42 22 l 1
 71 22 l 2
EndSplineSet
EndChar

StartChar: u01F3
Encoding: 499 499 434
Width: 266
GlyphClass: 3
Flags: HW
LayerCount: 2
Fore
SplineSet
255.512695312 2 m 1
 153.512695312 2 l 1
 153.512695312 16 l 1
 208.512695312 87 l 2
 214.512695312 95 221.1796875 103.333007812 228.512695312 112 c 1
 228.512695312 113 l 1
 159.512695312 113 l 1
 159.512695312 130 l 1
 253.512695312 130 l 1
 253.512695312 116 l 1
 200.512695312 46 l 2
 193.1796875 36 186.512695312 27.6669921875 180.512695312 21 c 1
 180.512695312 20 l 1
 255.512695312 20 l 1
 255.512695312 2 l 1
67.5126953125 -1 m 0
 38.6611328125 -1 10.6943359375 22.2314453125 10.0126953125 66.5 c 0
 9.6796875 88.8330078125 15.845703125 106 28.5126953125 118 c 0
 39.1796875 128.666992188 52.5126953125 134 68.5126953125 134 c 128
 84.5126953125 134 98.845703125 126.666992188 111.512695312 112 c 1
 111.512695312 192 l 1
 133.512695312 192 l 1
 133.512695312 2 l 1
 113.512695312 2 l 1
 113.512695312 25 l 1
 101.512695312 7.6669921875 86.1796875 -1 67.5126953125 -1 c 0
70.5126953125 116 m 128
 50.076171875 116 32.3857421875 98.0791015625 33.0126953125 68 c 128
 33.345703125 52 37.1796875 39.3330078125 44.5126953125 30 c 128
 51.845703125 20.6669921875 61.345703125 16 73.0126953125 16 c 128
 84.6796875 16 94.845703125 22.3330078125 103.512695312 35 c 0
 108.845703125 41.6669921875 111.512695312 47.3330078125 111.512695312 52 c 2
 111.512695312 84 l 2
 111.512695312 92.6669921875 106.1796875 100.666992188 95.5126953125 108 c 0
 88.1796875 113.333007812 79.845703125 116 70.5126953125 116 c 128
EndSplineSet
EndChar

